<svg width="60" height="52" viewBox="0 0 60 52" fill="none" xmlns="http://www.w3.org/2000/svg">
<path d="M29.0475 0.687622C28.9244 0.689576 28.8029 0.715765 28.6899 0.764693C28.5769 0.813622 28.4746 0.88433 28.3889 0.972781C28.3033 1.06123 28.2359 1.16569 28.1906 1.2802C28.1453 1.3947 28.123 1.517 28.125 1.64012V3.51512C28.125 3.76376 28.2238 4.00222 28.3996 4.17803C28.5754 4.35385 28.8139 4.45262 29.0625 4.45262C29.3111 4.45262 29.5496 4.35385 29.7254 4.17803C29.9012 4.00222 30 3.76376 30 3.51512V1.64012C30.002 1.51448 29.9788 1.38971 29.9316 1.27323C29.8845 1.15675 29.8144 1.05094 29.7255 0.962088C29.6367 0.873233 29.5309 0.803148 29.4144 0.755998C29.2979 0.708848 29.1731 0.685595 29.0475 0.687622ZM23.9681 3.1195C23.7808 3.11836 23.5973 3.1734 23.4416 3.27752C23.2858 3.38163 23.1647 3.53003 23.0941 3.70358C23.0235 3.87714 23.0065 4.06787 23.0453 4.25118C23.0841 4.43449 23.177 4.60197 23.3119 4.732L24.6394 6.05575C24.7267 6.14279 24.8302 6.21179 24.9442 6.2588C25.0581 6.30581 25.1802 6.32992 25.3035 6.32974C25.4268 6.32957 25.5488 6.30512 25.6626 6.25778C25.7765 6.21045 25.8798 6.14116 25.9669 6.05387C26.0539 5.96658 26.1229 5.86301 26.1699 5.74905C26.2169 5.6351 26.241 5.513 26.2409 5.38973C26.2407 5.26646 26.2162 5.14443 26.1689 5.03062C26.1216 4.9168 26.0523 4.81341 25.965 4.72637L24.6394 3.4045C24.5522 3.31456 24.4479 3.24301 24.3326 3.19406C24.2173 3.1451 24.0934 3.11975 23.9681 3.1195ZM34.1306 3.1195C33.8867 3.12694 33.6553 3.22918 33.4856 3.4045L32.16 4.72637C32.0726 4.81341 32.0032 4.91682 31.9557 5.03069C31.9083 5.14455 31.8837 5.26665 31.8835 5.39001C31.8832 5.51336 31.9072 5.63557 31.9542 5.74963C32.0012 5.8637 32.0701 5.9674 32.1572 6.05481C32.2442 6.14222 32.3476 6.21163 32.4615 6.25908C32.5754 6.30653 32.6975 6.33108 32.8208 6.33134C32.9442 6.3316 33.0664 6.30757 33.1805 6.2606C33.2945 6.21364 33.3982 6.14466 33.4856 6.05762L34.8112 4.73012C34.9478 4.59868 35.0414 4.42893 35.0795 4.24325C35.1176 4.05757 35.0986 3.86469 35.0249 3.69006C34.9512 3.51542 34.8262 3.36723 34.6666 3.26504C34.507 3.16285 34.3201 3.11332 34.1306 3.1195ZM29.0625 6.33887C27.5212 6.33887 26.25 7.60825 26.25 9.15137V10.0851H0.9375C0.68886 10.0851 0.450403 10.1839 0.274587 10.3597C0.0987721 10.5355 0 10.774 0 11.0226L0 42.8826C0 43.1313 0.0987721 43.3697 0.274587 43.5455C0.450403 43.7213 0.68886 43.8201 0.9375 43.8201H5.97C5.7481 44.4193 5.63138 45.0524 5.625 45.6914C5.625 48.7851 8.15625 51.3126 11.25 51.3126C14.3438 51.3126 16.875 48.7851 16.875 45.6914C16.875 45.0332 16.74 44.407 16.53 43.8201H41.595C41.3731 44.4193 41.2564 45.0524 41.25 45.6914C41.25 48.7851 43.7812 51.3126 46.875 51.3126C49.9688 51.3126 52.5 48.7851 52.5 45.6914C52.5 45.0332 52.365 44.407 52.155 43.8201H59.0625C59.3111 43.8201 59.5496 43.7213 59.7254 43.5455C59.9012 43.3697 60 43.1313 60 42.8826V32.5739C59.9975 31.0831 59.404 29.6542 58.3495 28.6005C57.295 27.5467 55.8657 26.9541 54.375 26.9526H52.5V21.3782C52.4985 19.3899 51.7077 17.4835 50.3014 16.0779C48.8951 14.6723 46.9883 13.8825 45 13.882H37.5V11.0226C37.5 10.774 37.4012 10.5355 37.2254 10.3597C37.0496 10.1839 36.8111 10.0851 36.5625 10.0851H31.875V9.15137C31.875 7.60825 30.6038 6.33887 29.0625 6.33887ZM29.0625 8.21387C29.5987 8.21387 30 8.61512 30 9.15137V10.0851H28.125V9.15137C28.125 8.61512 28.5263 8.21387 29.0625 8.21387ZM1.875 11.9601H35.625V36.3201H1.875V34.4489H4.7025C4.95114 34.4489 5.1896 34.3501 5.36541 34.1743C5.54123 33.9985 5.64 33.76 5.64 33.5114C5.64 33.2627 5.54123 33.0243 5.36541 32.8485C5.1896 32.6726 4.95114 32.5739 4.7025 32.5739H1.875V11.9601ZM37.5 15.757H45C48.1312 15.757 50.625 18.2489 50.625 21.3782V28.8276H54.375C56.4694 28.8276 58.125 30.4814 58.125 32.5739H55.2975C55.0489 32.5739 54.8104 32.6726 54.6346 32.8485C54.4588 33.0243 54.36 33.2627 54.36 33.5114C54.36 33.76 54.4588 33.9985 54.6346 34.1743C54.8104 34.3501 55.0489 34.4489 55.2975 34.4489H58.125V36.3201H37.5V15.757ZM17.8125 17.5814C17.5639 17.5814 17.3254 17.6801 17.1496 17.856C16.9738 18.0318 16.875 18.2702 16.875 18.5189V21.3314H14.0625C13.8139 21.3314 13.5754 21.4301 13.3996 21.606C13.2238 21.7818 13.125 22.0202 13.125 22.2689V26.0151C13.125 26.2638 13.2238 26.5022 13.3996 26.678C13.5754 26.8538 13.8139 26.9526 14.0625 26.9526H16.875V29.7651C16.875 30.0138 16.9738 30.2522 17.1496 30.428C17.3254 30.6038 17.5639 30.7026 17.8125 30.7026H21.5625C21.8111 30.7026 22.0496 30.6038 22.2254 30.428C22.4012 30.2522 22.5 30.0138 22.5 29.7651V26.9526H25.3125C25.5611 26.9526 25.7996 26.8538 25.9754 26.678C26.1512 26.5022 26.25 26.2638 26.25 26.0151V22.2689C26.25 22.0202 26.1512 21.7818 25.9754 21.606C25.7996 21.4301 25.5611 21.3314 25.3125 21.3314H22.5V18.5189C22.5 18.2702 22.4012 18.0318 22.2254 17.856C22.0496 17.6801 21.8111 17.5814 21.5625 17.5814H17.8125ZM39.375 17.5814V26.8945H48.7388L48.75 25.9664L48.7612 24.9482V22.2501C48.7612 20.9095 48.3075 19.7076 47.4581 18.8657C46.6088 18.0257 45.4012 17.5814 44.0625 17.5814H39.375ZM18.75 19.4564H20.625V22.2689C20.625 22.5175 20.7238 22.756 20.8996 22.9318C21.0754 23.1076 21.3139 23.2064 21.5625 23.2064H24.375V25.0776H21.5625C21.3139 25.0776 21.0754 25.1764 20.8996 25.3522C20.7238 25.528 20.625 25.7665 20.625 26.0151V28.8276H18.75V26.0151C18.75 25.7665 18.6512 25.528 18.4754 25.3522C18.2996 25.1764 18.0611 25.0776 17.8125 25.0776H15V23.2064H17.8125C18.0611 23.2064 18.2996 23.1076 18.4754 22.9318C18.6512 22.756 18.75 22.5175 18.75 22.2689V19.4564ZM41.25 19.4564H44.0625C45.0019 19.4564 45.6769 19.7432 46.1381 20.1989C46.6012 20.6564 46.8862 21.3164 46.8862 22.2501V25.0195H41.25V19.4564ZM40.2188 28.8276C39.9701 28.8401 39.7366 28.9507 39.5696 29.1354C39.4025 29.32 39.3157 29.5634 39.3281 29.812C39.3406 30.0606 39.4513 30.2942 39.6359 30.4612C39.8205 30.6282 40.0639 30.715 40.3125 30.7026H42.1875C42.4361 30.7026 42.6746 30.6038 42.8504 30.428C43.0262 30.2522 43.125 30.0138 43.125 29.7651C43.125 29.5165 43.0262 29.278 42.8504 29.1022C42.6746 28.9264 42.4361 28.8276 42.1875 28.8276H40.3125C40.2813 28.8261 40.25 28.8261 40.2188 28.8276ZM1.875 38.1951H58.125V41.9451H51.0356C50.0044 40.8014 48.5269 40.0701 46.875 40.0701C45.2231 40.0701 43.7456 40.8014 42.7144 41.9451H15.4125C14.3813 40.8014 12.9037 40.0701 11.2519 40.0701C9.6 40.0701 8.1225 40.8014 7.09125 41.9451H1.875V38.1951ZM11.25 41.9451C13.3313 41.9451 15 43.6101 15 45.6914C15 47.7726 13.3313 49.4376 11.25 49.4376C9.16875 49.4376 7.5 47.7726 7.5 45.6914C7.5 43.6101 9.16875 41.9451 11.25 41.9451ZM46.875 41.9451C48.9562 41.9451 50.625 43.6101 50.625 45.6914C50.625 47.7726 48.9562 49.4376 46.875 49.4376C44.7938 49.4376 43.125 47.7726 43.125 45.6914C43.125 43.6101 44.7938 41.9451 46.875 41.9451ZM11.1844 44.7539C10.9473 44.7705 10.7254 44.8766 10.5635 45.0506C10.4016 45.2247 10.3119 45.4537 10.3125 45.6914C10.3125 45.94 10.4113 46.1785 10.5871 46.3543C10.7629 46.5301 11.0014 46.6289 11.25 46.6289C11.4986 46.6289 11.7371 46.5301 11.9129 46.3543C12.0887 46.1785 12.1875 45.94 12.1875 45.6914C12.1875 45.4427 12.0887 45.2043 11.9129 45.0285C11.7371 44.8526 11.4986 44.7539 11.25 44.7539C11.2281 44.7531 11.2062 44.7531 11.1844 44.7539ZM46.8094 44.7539C46.5723 44.7705 46.3504 44.8766 46.1885 45.0506C46.0266 45.2247 45.9369 45.4537 45.9375 45.6914C45.9375 45.94 46.0363 46.1785 46.2121 46.3543C46.3879 46.5301 46.6264 46.6289 46.875 46.6289C47.1236 46.6289 47.3621 46.5301 47.5379 46.3543C47.7137 46.1785 47.8125 45.94 47.8125 45.6914C47.8125 45.4427 47.7137 45.2043 47.5379 45.0285C47.3621 44.8526 47.1236 44.7539 46.875 44.7539C46.8531 44.7531 46.8312 44.7531 46.8094 44.7539Z" fill="#FA0000"/>
</svg>
