<svg width="56" height="53" viewBox="0 0 56 53" fill="none" xmlns="http://www.w3.org/2000/svg">
<path fill-rule="evenodd" clip-rule="evenodd" d="M28.0011 10.3099C22.8212 10.3099 17.8533 12.3676 14.1906 16.0304C10.5278 19.6932 8.47003 24.661 8.47003 29.841C8.47003 35.0209 10.5278 39.9887 14.1906 43.6515C17.8533 47.3143 22.8212 49.3721 28.0011 49.3721C33.1811 49.3721 38.1489 47.3143 41.8117 43.6515C45.4745 39.9887 47.5322 35.0209 47.5322 29.841C47.5322 24.661 45.4745 19.6932 41.8117 16.0304C38.1489 12.3676 33.1811 10.3099 28.0011 10.3099ZM5.21484 29.841C5.21484 26.8486 5.80423 23.8856 6.94935 21.121C8.09446 18.3565 9.77289 15.8445 11.8888 13.7286C14.0047 11.6127 16.5166 9.93431 19.2812 8.78919C22.0457 7.64407 25.0088 7.05469 28.0011 7.05469C30.9935 7.05469 33.9565 7.64407 36.7211 8.78919C39.4856 9.93431 41.9975 11.6127 44.1134 13.7286C46.2294 15.8445 47.9078 18.3565 49.0529 21.121C50.198 23.8856 50.7874 26.8486 50.7874 29.841C50.7874 35.8843 48.3867 41.68 44.1134 45.9533C39.8402 50.2265 34.0444 52.6272 28.0011 52.6272C21.9578 52.6272 16.162 50.2265 11.8888 45.9533C7.61553 41.68 5.21484 35.8843 5.21484 29.841Z" fill="#00CCFA"/>
<path fill-rule="evenodd" clip-rule="evenodd" d="M5.69138 52.1495C5.84257 52.301 6.02218 52.4213 6.21991 52.5033C6.41765 52.5854 6.62963 52.6276 6.84371 52.6276C7.0578 52.6276 7.26978 52.5854 7.46752 52.5033C7.66525 52.4213 7.84486 52.301 7.99605 52.1495L12.8788 47.2667C13.0299 47.1154 13.1498 46.9358 13.2315 46.7381C13.3132 46.5405 13.3551 46.3287 13.355 46.1148C13.3548 45.901 13.3126 45.6892 13.2306 45.4917C13.1486 45.2942 13.0285 45.1148 12.8772 44.9637C12.7259 44.8125 12.5463 44.6927 12.3486 44.611C12.151 44.5293 11.9392 44.4873 11.7253 44.4875C11.5115 44.4876 11.2997 44.5299 11.1022 44.6119C10.9047 44.6939 10.7253 44.814 10.5742 44.9653L5.69138 49.8481C5.38625 50.1533 5.21484 50.5672 5.21484 50.9988C5.21484 51.4303 5.38625 51.8442 5.69138 52.1495ZM43.126 44.962C43.2772 44.8105 43.4568 44.6902 43.6545 44.6081C43.8522 44.5261 44.0642 44.4839 44.2783 44.4839C44.4924 44.4839 44.7044 44.5261 44.9021 44.6081C45.0998 44.6902 45.2795 44.8105 45.4306 44.962L50.3134 49.8448C50.619 50.1504 50.7907 50.5649 50.7907 50.9971C50.7907 51.4293 50.619 51.8438 50.3134 52.1495C50.0078 52.4551 49.5933 52.6268 49.1611 52.6268C48.7289 52.6268 48.3144 52.4551 48.0088 52.1495L43.126 47.2667C42.8209 46.9615 42.6494 46.5476 42.6494 46.116C42.6494 45.6844 42.8209 45.2705 43.126 44.9653V44.962ZM28.0024 18.4453C28.4341 18.4453 28.848 18.6168 29.1533 18.922C29.4585 19.2273 29.63 19.6412 29.63 20.0729V29.8384C29.63 30.2701 29.4585 30.6841 29.1533 30.9893C28.848 31.2946 28.4341 31.466 28.0024 31.466C27.5707 31.466 27.1568 31.2946 26.8515 30.9893C26.5463 30.6841 26.3748 30.2701 26.3748 29.8384V20.0729C26.3748 19.6412 26.5463 19.2273 26.8515 18.922C27.1568 18.6168 27.5707 18.4453 28.0024 18.4453Z" fill="#00CCFA"/>
<path fill-rule="evenodd" clip-rule="evenodd" d="M39.3967 29.8385C39.3967 30.2702 39.2252 30.6842 38.92 30.9894C38.6148 31.2946 38.2008 31.4661 37.7691 31.4661H28.0036C27.5719 31.4661 27.1579 31.2946 26.8527 30.9894C26.5475 30.6842 26.376 30.2702 26.376 29.8385C26.376 29.4069 26.5475 28.9929 26.8527 28.6876C27.1579 28.3824 27.5719 28.2109 28.0036 28.2109H37.7691C38.2008 28.2109 38.6148 28.3824 38.92 28.6876C39.2252 28.9929 39.3967 29.4069 39.3967 29.8385Z" fill="#00CCFA"/>
<path d="M3.20006 3.13515C9.78529 -3.1506 16.0613 4.3591 16.0613 4.3591L3.82831 16.0387C3.82831 16.0387 -3.38518 9.42416 3.20006 3.13515Z" fill="#00CCFA"/>
<path fill-rule="evenodd" clip-rule="evenodd" d="M8.37067 3.90705C7.63825 3.99494 6.64542 4.3465 5.44751 5.49233C4.24635 6.63815 3.85247 7.61145 3.72878 8.34061C3.60182 9.10558 3.73203 9.90635 4.06406 10.7332C4.1194 10.8731 4.18125 11.0066 4.2431 11.1401L11.1441 4.54833C11.0138 4.47905 10.8814 4.41391 10.7469 4.35301C10.0114 3.98741 9.18876 3.83303 8.37067 3.90705ZM13.5855 2.22087C11.1571 0.61281 7.23786 -0.71856 3.20144 3.13558C-0.83499 6.99297 0.310835 10.9708 1.80171 13.4708C2.36709 14.4088 3.04725 15.2727 3.82643 16.0424L16.0594 4.35627C16.0594 4.35627 15.8413 4.09585 15.4409 3.71174C14.8687 3.15982 14.2477 2.66082 13.5855 2.22087Z" fill="#00CCFA"/>
<path d="M52.8007 3.13515C46.2154 -3.1506 39.9395 4.3591 39.9395 4.3591L52.1724 16.0387C52.1724 16.0387 59.3859 9.42416 52.8007 3.13515Z" fill="#00CCFA"/>
<path fill-rule="evenodd" clip-rule="evenodd" d="M47.6282 3.90705C48.3606 3.99494 49.3534 4.3465 50.5513 5.49233C51.7525 6.63815 52.1464 7.61145 52.2701 8.34061C52.397 9.10558 52.2668 9.90635 51.9348 10.7332C51.8795 10.8707 51.8198 11.0064 51.7558 11.1401L44.8548 4.54833C44.985 4.47997 45.1152 4.41161 45.2519 4.35301C46.0625 3.98192 46.8567 3.81591 47.6282 3.90705ZM42.4134 2.22087C44.8418 0.61281 48.761 -0.71856 52.7974 3.13558C56.8338 6.99297 55.688 10.9708 54.1972 13.4708C53.7089 14.2878 53.1815 14.9486 52.7909 15.3913C52.4231 15.808 52.1724 16.0424 52.1724 16.0424L39.9395 4.35627C39.9395 4.35627 40.1575 4.09585 40.5579 3.71174C40.9844 3.29834 41.6191 2.74495 42.4134 2.22087Z" fill="#00CCFA"/>
</svg>
