<svg fill="none" height="60" viewBox="0 0 60 60" width="60" xmlns="http://www.w3.org/2000/svg" xmlns:xlink="http://www.w3.org/1999/xlink"><clipPath id="a"><path d="m0 0h60v60h-60z"/></clipPath><g clip-path="url(#a)" fill="#0099bc"><path d="m51.6667 56.666h-30c-.4421 0-.866-.1756-1.1785-.4881-.3126-.3126-.4882-.7365-.4882-1.1785v-36.6667c0-.442.1756-.866.4882-1.1785.3125-.3126.7364-.4882 1.1785-.4882h30c.442 0 .8659.1756 1.1785.4882.3125.3125.4881.7365.4881 1.1785v36.6667c0 .442-.1756.8659-.4881 1.1785-.3126.3125-.7365.4881-1.1785.4881zm-28.3334-3.3333h26.6667v-33.3334h-26.6667z"/><path d="m26.667 26.666h20v3.3333h-20z"/><path d="m26.667 33.334h20v3.3333h-20z"/><path d="m26.667 40h20v3.3333h-20z"/><path d="m10.0003 40.0007v-33.33338h30v-1.66667c0-.44203-.1756-.86595-.4881-1.17851-.3126-.31256-.7365-.48816-1.1785-.48816h-30.00004c-.44203 0-.86595.1756-1.17851.48816s-.48816.73648-.48816 1.17851v36.66665c0 .4421.1756.866.48816 1.1785.31256.3126.73648.4882 1.17851.4882h1.66664z"/><path d="m16.6663 46.6667v-33.3334h30v-1.6666c0-.4421-.1756-.866-.4881-1.1785-.3126-.3126-.7365-.4882-1.1785-.4882h-30c-.4421 0-.866.1756-1.1785.4882-.3126.3125-.4882.7364-.4882 1.1785v36.6666c0 .4421.1756.866.4882 1.1786.3125.3125.7364.4881 1.1785.4881h1.6666z"/></g></svg>