<svg width="43" height="43" viewBox="0 0 43 43" fill="none" xmlns="http://www.w3.org/2000/svg">
<path d="M25.8754 0.875C16.92 0.875 9.62541 8.16962 9.62541 17.125C9.62541 21.0169 10.9888 24.5789 13.2817 27.3836L0.332031 40.33L2.66878 42.67L15.6168 29.7204C18.509 32.0914 22.1355 33.3833 25.8754 33.375C34.8308 33.375 42.1254 26.0804 42.1254 17.125C42.1254 8.16962 34.8308 0.875 25.8754 0.875ZM25.8754 4.125C33.0742 4.125 38.8754 9.92625 38.8754 17.125C38.8754 24.3237 33.0742 30.125 25.8754 30.125C18.6767 30.125 12.8754 24.3237 12.8754 17.125C12.8754 9.92625 18.6767 4.125 25.8754 4.125ZM25.8754 9C24.1515 9 22.4982 9.68482 21.2792 10.9038C20.0602 12.1228 19.3754 13.7761 19.3754 15.5C19.3754 20.375 25.8754 26.875 25.8754 26.875C25.8754 26.875 32.3754 20.375 32.3754 15.5C32.3754 13.7761 31.6906 12.1228 30.4716 10.9038C29.2526 9.68482 27.5993 9 25.8754 9ZM25.8754 12.25C26.3082 12.2402 26.7386 12.317 27.1413 12.4758C27.544 12.6347 27.911 12.8724 28.2206 13.175C28.5302 13.4776 28.7762 13.839 28.9442 14.2379C29.1122 14.6369 29.1988 15.0654 29.1989 15.4984C29.199 15.9313 29.1126 16.3598 28.9448 16.7589C28.777 17.158 28.5312 17.5195 28.2217 17.8222C27.9123 18.125 27.5455 18.3629 27.1428 18.5219C26.7402 18.681 26.3098 18.7579 25.877 18.7484C25.0279 18.7296 24.2198 18.3791 23.6258 17.772C23.0318 17.1649 22.6991 16.3494 22.6989 15.5C22.6987 14.6506 23.031 13.8349 23.6247 13.2275C24.2184 12.6201 25.0263 12.2692 25.8754 12.25Z" fill="#FDBE01"/>
</svg>
