<svg width="52" height="52" viewBox="0 0 52 52" fill="none" xmlns="http://www.w3.org/2000/svg">
<path d="M19.0669 24.2668C16.7684 24.2668 14.564 23.3537 12.9387 21.7284C11.3134 20.1031 10.4003 17.8987 10.4003 15.6001V8.6668C10.4003 8.20709 10.5829 7.76621 10.9079 7.44115C11.233 7.11608 11.6739 6.93346 12.1336 6.93346H13.8669C14.3266 6.93346 14.7675 6.75085 15.0926 6.42578C15.4176 6.10072 15.6003 5.65984 15.6003 5.20013C15.6003 4.74042 15.4176 4.29954 15.0926 3.97448C14.7675 3.64942 14.3266 3.4668 13.8669 3.4668H12.1336C10.7545 3.4668 9.43183 4.01465 8.45664 4.98984C7.48145 5.96503 6.93359 7.28767 6.93359 8.6668V15.6001C6.93582 17.5583 7.41333 19.4867 8.32511 21.2197C9.23689 22.9527 10.5557 24.4385 12.1683 25.5495C13.7176 26.9154 14.974 28.5811 15.8618 30.446C16.7496 32.3109 17.2502 34.3364 17.3336 36.4001C17.3336 39.6181 18.6119 42.7043 20.8874 44.9797C23.1628 47.2551 26.249 48.5335 29.4669 48.5335C32.6849 48.5335 35.771 47.2551 38.0465 44.9797C40.3219 42.7043 41.6003 39.6181 41.6003 36.4001V34.4241C43.2342 34.0022 44.6582 32.9989 45.6053 31.6023C46.5524 30.2056 46.9576 28.5114 46.745 26.8373C46.5324 25.1633 45.7165 23.6242 44.4503 22.5086C43.1841 21.3931 41.5545 20.7776 39.8669 20.7776C38.1794 20.7776 36.5498 21.3931 35.2836 22.5086C34.0174 23.6242 33.2015 25.1633 32.9889 26.8373C32.7762 28.5114 33.1814 30.2056 34.1285 31.6023C35.0757 32.9989 36.4997 34.0022 38.1336 34.4241V36.4001C38.1336 38.6987 37.2205 40.9031 35.5952 42.5284C33.9699 44.1537 31.7655 45.0668 29.4669 45.0668C27.1684 45.0668 24.964 44.1537 23.3387 42.5284C21.7134 40.9031 20.8003 38.6987 20.8003 36.4001C20.888 34.3338 21.3941 32.3068 22.2879 30.4417C23.1817 28.5766 24.4446 26.9123 26.0003 25.5495C27.6064 24.4346 28.9185 22.9472 29.8241 21.2144C30.7297 19.4817 31.2019 17.5553 31.2003 15.6001V8.6668C31.2003 7.28767 30.6524 5.96503 29.6772 4.98984C28.702 4.01465 27.3794 3.4668 26.0003 3.4668H24.2669C23.8072 3.4668 23.3663 3.64942 23.0413 3.97448C22.7162 4.29954 22.5336 4.74042 22.5336 5.20013C22.5336 5.65984 22.7162 6.10072 23.0413 6.42578C23.3663 6.75085 23.8072 6.93346 24.2669 6.93346H26.0003C26.46 6.93346 26.9008 7.11608 27.2259 7.44115C27.551 7.76621 27.7336 8.20709 27.7336 8.6668V15.6001C27.7336 16.7383 27.5094 17.8652 27.0739 18.9167C26.6383 19.9682 26 20.9236 25.1952 21.7284C24.3904 22.5332 23.435 23.1715 22.3835 23.6071C21.332 24.0426 20.2051 24.2668 19.0669 24.2668ZM39.8669 31.2001C38.9475 31.2001 38.0658 30.8349 37.4156 30.1848C36.7655 29.5346 36.4003 28.6529 36.4003 27.7335C36.4003 26.814 36.7655 25.9323 37.4156 25.2822C38.0658 24.632 38.9475 24.2668 39.8669 24.2668C40.7863 24.2668 41.6681 24.632 42.3182 25.2822C42.9684 25.9323 43.3336 26.814 43.3336 27.7335C43.3336 28.6529 42.9684 29.5346 42.3182 30.1848C41.6681 30.8349 40.7863 31.2001 39.8669 31.2001Z" fill="#FDBE01"/>
</svg>
