<svg width="68" height="54" viewBox="0 0 68 54" fill="none" xmlns="http://www.w3.org/2000/svg">
<path d="M1.04395 7.25586H66.9568V52.5881H1.04395V7.25586Z" fill="#FF0000"/>
<path d="M23.0674 33.049H31.9524V41.9341H38.2063V33.049H47.0913V26.7952H38.2063V17.9102H31.9524V26.7952H23.0674V33.049Z" fill="white"/>
<path d="M23.6534 7.2947V3.35179C23.6534 1.84766 24.8741 0.626953 26.3782 0.626953H41.6226C43.1267 0.626953 44.3474 1.84634 44.3474 3.35179V7.2947M1.04395 7.2947H66.9568V52.627H1.04395V7.2947Z" stroke="black" stroke-linecap="round" stroke-linejoin="round"/>
<path d="M38.2062 17.9482V26.8332H47.0912V33.0857H38.2062V41.9708H31.9523V33.0857H23.0673V26.8319H31.9523V17.9469L38.2062 17.9482ZM38.2062 15.3103H31.9523C31.2531 15.3103 30.5825 15.5881 30.088 16.0826C29.5936 16.577 29.3158 17.2476 29.3158 17.9469V24.1954H23.0673C22.368 24.1954 21.6974 24.4732 21.203 24.9676C20.7085 25.4621 20.4308 26.1327 20.4308 26.8319V33.0857C20.4308 33.785 20.7085 34.4556 21.203 34.95C21.6974 35.4445 22.368 35.7223 23.0673 35.7223H29.3158V41.9708C29.3158 42.67 29.5936 43.3406 30.088 43.8351C30.5825 44.3295 31.2531 44.6073 31.9523 44.6073H38.2062C38.9054 44.6073 39.576 44.3295 40.0705 43.8351C40.5649 43.3406 40.8427 42.67 40.8427 41.9708V35.7223H47.0912C47.7905 35.7223 48.4611 35.4445 48.9555 34.95C49.45 34.4556 49.7277 33.785 49.7277 33.0857V26.8319C49.7277 26.1327 49.45 25.4621 48.9555 24.9676C48.4611 24.4732 47.7905 24.1954 47.0912 24.1954H40.8427V17.9469C40.8427 17.2476 40.5649 16.577 40.0705 16.0826C39.576 15.5881 38.9054 15.3103 38.2062 15.3103ZM11.5114 3.8125H15.279C15.9553 3.8125 16.5037 4.35958 16.5037 5.03584V7.44957C16.5038 7.61045 16.4723 7.76977 16.4108 7.91844C16.3493 8.0671 16.2591 8.20217 16.1454 8.31593C16.0316 8.42968 15.8965 8.51988 15.7479 8.58137C15.5992 8.64285 15.4399 8.67441 15.279 8.67423H11.5114C11.3507 8.67423 11.1915 8.64255 11.043 8.58099C10.8945 8.51943 10.7595 8.4292 10.6459 8.31546C10.5323 8.20172 10.4422 8.06671 10.3808 7.91813C10.3194 7.76956 10.2879 7.61033 10.2881 7.44957V5.03584C10.2881 4.35958 10.8352 3.8125 11.5114 3.8125ZM54.0806 3.8125H57.8508C58.5258 3.8125 59.0742 4.35958 59.0742 5.03584V7.44957C59.0744 7.61045 59.0428 7.76977 58.9813 7.91844C58.9198 8.0671 58.8296 8.20217 58.7159 8.31593C58.6021 8.42968 58.467 8.51988 58.3184 8.58137C58.1697 8.64285 58.0104 8.67441 57.8495 8.67423H54.0806C53.9199 8.67423 53.7607 8.64255 53.6122 8.58099C53.4637 8.51943 53.3287 8.4292 53.2151 8.31546C53.1015 8.20172 53.0114 8.06671 52.95 7.91813C52.8886 7.76956 52.8571 7.61033 52.8573 7.44957V5.03584C52.8573 4.35958 53.4057 3.8125 54.0806 3.8125Z" fill="black"/>
</svg>
