<svg width="40" height="48" viewBox="0 0 40 48" fill="none" xmlns="http://www.w3.org/2000/svg">
<path d="M38.8889 29.5549H33.3333V3.99935C33.3333 3.70466 33.2163 3.42205 33.0079 3.21367C32.7995 3.0053 32.5169 2.88824 32.2222 2.88824H25.5556V1.77713C25.5556 1.48244 25.4385 1.19983 25.2301 0.991452C25.0217 0.783079 24.7391 0.666016 24.4444 0.666016H8.88889C8.5942 0.666016 8.31159 0.783079 8.10322 0.991452C7.89484 1.19983 7.77778 1.48244 7.77778 1.77713V2.88824H1.11111C0.816426 2.88824 0.533811 3.0053 0.325437 3.21367C0.117063 3.42205 0 3.70466 0 3.99935L0 46.2216C0 46.5162 0.117063 46.7989 0.325437 47.0072C0.533811 47.2156 0.816426 47.3327 1.11111 47.3327H25.5556C29.3865 47.3327 33.0605 45.8109 35.7693 43.102C38.4782 40.3931 40 36.7191 40 32.8882V30.666C40 30.3713 39.8829 30.0887 39.6746 29.8803C39.4662 29.672 39.1836 29.5549 38.8889 29.5549ZM10 2.88824H23.3333V5.11046H10V2.88824ZM2.22222 45.1105V5.11046H7.77778V6.22157C7.77778 6.51626 7.89484 6.79887 8.10322 7.00724C8.31159 7.21562 8.5942 7.33268 8.88889 7.33268H24.4444C24.7391 7.33268 25.0217 7.21562 25.2301 7.00724C25.4385 6.79887 25.5556 6.51626 25.5556 6.22157V5.11046H31.1111V29.5549H28.8889C28.5942 29.5549 28.3116 29.672 28.1032 29.8803C27.8948 30.0887 27.7778 30.3713 27.7778 30.666C27.7753 31.2544 27.5395 31.8178 27.1222 32.2327C26.7059 32.6466 26.1426 32.8789 25.5556 32.8789C24.9685 32.8789 24.4053 32.6466 23.9889 32.2327C23.5716 31.8178 23.3358 31.2544 23.3333 30.666C23.3333 30.3713 23.2163 30.0887 23.0079 29.8803C22.7995 29.672 22.5169 29.5549 22.2222 29.5549H12.2222C11.9275 29.5549 11.6449 29.672 11.4365 29.8803C11.2282 30.0887 11.1111 30.3713 11.1111 30.666V32.8882C11.1024 36.1103 12.1787 39.2414 14.1667 41.7771C14.2009 41.8441 14.2419 41.9073 14.2889 41.966C15.309 43.2038 16.5251 44.2661 17.8889 45.1105H2.22222ZM13.3333 32.8882V31.7771H21.2556C21.3615 32.1682 21.5224 32.5423 21.7333 32.8882L15.2333 39.3882C13.9954 37.4461 13.3363 35.1914 13.3333 32.8882ZM23.3333 34.4882C23.682 34.691 24.0555 34.8479 24.4444 34.9549V45.1105C21.4659 44.8173 18.6984 43.4415 16.6667 41.2438L23.3333 34.4882ZM26.6667 45.1105V34.9549C27.0556 34.8479 27.4291 34.691 27.7778 34.4882L34.4444 41.1549L34.1333 41.4882C32.1504 43.5397 29.5053 44.8229 26.6667 45.1105ZM37.7778 32.8882C37.7789 35.2009 37.1239 37.4664 35.8889 39.4216L29.3778 32.8882C29.5887 32.5423 29.7496 32.1682 29.8556 31.7771H37.7778V32.8882ZM7.77778 13.9993C7.77778 13.7047 7.89484 13.422 8.10322 13.2137C8.31159 13.0053 8.5942 12.8882 8.88889 12.8882H24.4444C24.7391 12.8882 25.0217 13.0053 25.2301 13.2137C25.4385 13.422 25.5556 13.7047 25.5556 13.9993C25.5556 14.294 25.4385 14.5766 25.2301 14.785C25.0217 14.9934 24.7391 15.1105 24.4444 15.1105H8.88889C8.5942 15.1105 8.31159 14.9934 8.10322 14.785C7.89484 14.5766 7.77778 14.294 7.77778 13.9993ZM7.77778 18.4438C7.77778 18.1491 7.89484 17.8665 8.10322 17.6581C8.31159 17.4497 8.5942 17.3327 8.88889 17.3327H24.4444C24.7391 17.3327 25.0217 17.4497 25.2301 17.6581C25.4385 17.8665 25.5556 18.1491 25.5556 18.4438C25.5556 18.7385 25.4385 19.0211 25.2301 19.2295C25.0217 19.4378 24.7391 19.5549 24.4444 19.5549H8.88889C8.5942 19.5549 8.31159 19.4378 8.10322 19.2295C7.89484 19.0211 7.77778 18.7385 7.77778 18.4438ZM24.4444 23.9993H8.88889C8.5942 23.9993 8.31159 23.8823 8.10322 23.6739C7.89484 23.4655 7.77778 23.1829 7.77778 22.8882C7.77778 22.5935 7.89484 22.3109 8.10322 22.1026C8.31159 21.8942 8.5942 21.7771 8.88889 21.7771H24.4444C24.7391 21.7771 25.0217 21.8942 25.2301 22.1026C25.4385 22.3109 25.5556 22.5935 25.5556 22.8882C25.5556 23.1829 25.4385 23.4655 25.2301 23.6739C25.0217 23.8823 24.7391 23.9993 24.4444 23.9993Z" fill="#09AE41"/>
</svg>
