<svg width="52" height="52" viewBox="0 0 52 52" fill="none" xmlns="http://www.w3.org/2000/svg">
<path d="M30.8754 4.875C21.92 4.875 14.6254 12.1696 14.6254 21.125C14.6254 25.0169 15.9888 28.5789 18.2817 31.3836L5.33203 44.33L7.66878 46.67L20.6168 33.7204C23.509 36.0914 27.1355 37.3833 30.8754 37.375C39.8308 37.375 47.1254 30.0804 47.1254 21.125C47.1254 12.1696 39.8308 4.875 30.8754 4.875ZM30.8754 8.125C38.0742 8.125 43.8754 13.9263 43.8754 21.125C43.8754 28.3237 38.0742 34.125 30.8754 34.125C23.6767 34.125 17.8754 28.3237 17.8754 21.125C17.8754 13.9263 23.6767 8.125 30.8754 8.125ZM30.8754 13C29.1515 13 27.4982 13.6848 26.2792 14.9038C25.0602 16.1228 24.3754 17.7761 24.3754 19.5C24.3754 24.375 30.8754 30.875 30.8754 30.875C30.8754 30.875 37.3754 24.375 37.3754 19.5C37.3754 17.7761 36.6906 16.1228 35.4716 14.9038C34.2526 13.6848 32.5993 13 30.8754 13ZM30.8754 16.25C31.3082 16.2402 31.7386 16.317 32.1413 16.4758C32.544 16.6347 32.911 16.8724 33.2206 17.175C33.5302 17.4776 33.7762 17.839 33.9442 18.2379C34.1122 18.6369 34.1988 19.0654 34.1989 19.4984C34.199 19.9313 34.1126 20.3598 33.9448 20.7589C33.777 21.158 33.5312 21.5195 33.2217 21.8222C32.9123 22.125 32.5455 22.3629 32.1428 22.5219C31.7402 22.681 31.3098 22.7579 30.877 22.7484C30.0279 22.7296 29.2198 22.3791 28.6258 21.772C28.0318 21.1649 27.6991 20.3494 27.6989 19.5C27.6987 18.6506 28.031 17.8349 28.6247 17.2275C29.2184 16.6201 30.0263 16.2692 30.8754 16.25Z" fill="#FDBE01"/>
</svg>
