<svg width="64" height="66" viewBox="0 0 64 66" fill="none" xmlns="http://www.w3.org/2000/svg">
<path d="M34.4 22.7488H32.2C32 20.8488 31.3 19.1488 30.1 17.7488L31.7 16.1488C32.1 15.7488 32.1 15.1488 31.7 14.7488C31.3 14.3488 30.7 14.3488 30.3 14.7488L28.7 16.3488C27.3 15.2488 25.6 14.4488 23.7 14.2488V12.0488C23.7 11.5488 23.3 11.0488 22.7 11.0488C22.2 11.0488 21.7 11.4488 21.7 12.0488V14.2488C19.8 14.4488 18.1 15.1488 16.7 16.3488L15.1 14.7488C14.7 14.3488 14.1 14.3488 13.7 14.7488C13.3 15.1488 13.3 15.7488 13.7 16.1488L15.3 17.7488C14.2 19.1488 13.4 20.8488 13.2 22.7488H11C10.5 22.7488 10 23.1488 10 23.7488C10 24.2488 10.4 24.7488 11 24.7488H13.2C13.4 26.6488 14.1 28.3488 15.3 29.7488L13.7 31.3488C13.3 31.7488 13.3 32.3488 13.7 32.7488C13.9 32.9488 14.1 33.0488 14.4 33.0488C14.6 33.0488 14.9 32.9488 15.1 32.7488L16.7 31.1488C18.1 32.2488 19.8 33.0488 21.7 33.2488V35.4488C21.7 35.9488 22.1 36.4488 22.7 36.4488C23.2 36.4488 23.7 36.0488 23.7 35.4488V33.2488C25.6 33.0488 27.3 32.3488 28.7 31.1488L30.3 32.7488C30.5 32.9488 30.7 33.0488 31 33.0488C31.2 33.0488 31.5 32.9488 31.7 32.7488C32.1 32.3488 32.1 31.7488 31.7 31.3488L30.1 29.7488C31.2 28.3488 32 26.6488 32.2 24.7488H34.4C34.9 24.7488 35.4 24.3488 35.4 23.7488C35.4 23.1488 34.9 22.7488 34.4 22.7488ZM22.8 16.1488C26.9 16.1488 30.3 19.5488 30.3 23.6488C30.3 27.7488 26.9 31.1488 22.8 31.1488C18.7 31.1488 15.3 27.7488 15.3 23.6488C15.3 19.5488 18.6 16.1488 22.8 16.1488Z" fill="#00CCFA"/>
<path d="M21.9004 26.7484C21.1004 26.7484 20.5004 27.3484 20.5004 28.1484C20.5004 28.9484 21.1004 29.5484 21.9004 29.5484C22.7004 29.5484 23.3004 28.9484 23.3004 28.1484C23.3004 27.3484 22.6004 26.7484 21.9004 26.7484ZM19.8004 21.4484C20.6004 21.4484 21.2004 20.8484 21.2004 20.0484C21.2004 19.2484 20.6004 18.6484 19.8004 18.6484C19.0004 18.6484 18.4004 19.2484 18.4004 20.0484C18.4004 20.8484 19.0004 21.4484 19.8004 21.4484ZM25.9004 22.9484C26.7004 22.9484 27.3004 22.3484 27.3004 21.5484C27.3004 20.7484 26.7004 20.1484 25.9004 20.1484C25.1004 20.1484 24.5004 20.7484 24.5004 21.5484C24.5004 22.2484 25.2004 22.9484 25.9004 22.9484ZM22.3004 25.1484C23.1004 25.1484 23.7004 24.5484 23.7004 23.7484C23.7004 22.9484 23.1004 22.3484 22.3004 22.3484C21.5004 22.3484 20.9004 22.9484 20.9004 23.7484C20.9004 24.4484 21.5004 25.1484 22.3004 25.1484Z" fill="#00CCFA"/>
<path d="M62.6 54.5492L46.5 38.4492C46.1 38.0492 45.5 38.0492 45.1 38.4492L44.4 39.1492L41.6 36.3492C44.1 32.6492 45.5 28.2492 45.5 23.6492C45.5 11.1492 35.3 0.949219 22.8 0.949219C10.2 0.949219 0 11.1492 0 23.7492C0 36.3492 10.2 46.5492 22.8 46.5492C27.4 46.5492 31.7 45.1492 35.5 42.6492L38.3 45.4492L37.6 46.1492C37.2 46.5492 37.2 47.1492 37.6 47.5492L53.7 63.6492C54.6 64.5492 55.8 65.0492 57.1 65.0492C58.4 65.0492 59.6 64.5492 60.5 63.6492L62.6 61.5492C63.5 60.6492 64 59.4492 64 58.1492C64 56.6492 63.5 55.4492 62.6 54.5492ZM1.9 23.7492C1.9 12.2492 11.2 2.94922 22.7 2.94922C34.2 2.94922 43.5 12.2492 43.5 23.7492C43.5 28.1492 42.1 32.4492 39.5 35.9492C39 36.6492 38.5 37.2492 37.9 37.8492C37.7 38.0492 37.6 38.2492 37.4 38.4492C37.3 38.5492 37.2 38.6492 37.1 38.7492C36.8 39.0492 36.5 39.2492 36.2 39.5492C36 39.6492 35.9 39.7492 35.7 39.9492C35.4 40.1492 35.2 40.3492 34.9 40.5492C31.3 43.1492 27.1 44.5492 22.7 44.5492C11.3 44.5492 1.9 35.1492 1.9 23.7492ZM37.2 41.2492C37.8 40.7492 38.3 40.3492 38.8 39.7492C39.3 39.2492 39.8 38.6492 40.3 38.1492C40.4 38.0492 40.4 38.0492 40.5 37.9492L43.1 40.5492L39.6 44.0492L37 41.4492C37.1 41.3492 37.1 41.3492 37.2 41.2492ZM61.2 60.0492L59.1 62.1492C58 63.2492 56.1 63.2492 55 62.1492L39.6 46.7492L45.8 40.5492L61.2 55.9492C61.8 56.5492 62.1 57.2492 62.1 58.0492C62.1 58.7492 61.8 59.5492 61.2 60.0492Z" fill="#00CCFA"/>
<path d="M40.7002 23.75C40.7002 13.85 32.6002 5.75 22.7002 5.75C12.8002 5.75 4.7002 13.85 4.7002 23.75C4.7002 33.65 12.8002 41.75 22.7002 41.75C32.7002 41.65 40.7002 33.65 40.7002 23.75ZM22.8002 39.75C14.0002 39.75 6.8002 32.55 6.8002 23.75C6.8002 14.95 14.0002 7.75 22.8002 7.75C31.6002 7.75 38.8002 14.95 38.8002 23.75C38.8002 32.55 31.6002 39.75 22.8002 39.75Z" fill="#00CCFA"/>
</svg>
