<svg width="400" height="380" viewBox="0 0 400 380" fill="none" xmlns="http://www.w3.org/2000/svg">
<g clip-path="url(#clip0_17_2211)">
<path d="M330.832 357.329C330.832 357.329 344.431 327.502 380.479 228.496C416.526 129.49 402.806 12.9143 338.021 1.70504C273.237 -9.50423 222.932 38.2242 222.932 38.2242C222.932 38.2242 150.674 9.51118 92.9978 29.1474C35.3213 48.7836 40.9972 145.008 40.9972 145.008C40.9972 145.008 2.83538 162.87 0.150394 208.995C-3.4813 271.386 59.8652 357.07 59.8652 357.07L330.832 357.329Z" fill="#F4FDFF"/>
<path d="M376.028 236.791C375.843 233.645 375.376 230.398 373.628 227.72C371.19 223.984 366.723 221.989 363.21 219.128C354.139 211.739 352.092 199.014 353.684 187.764C355.276 176.514 359.829 165.799 361.581 154.57C363.333 143.341 361.674 130.634 352.925 122.903C345.891 116.689 335.597 114.916 326.012 115.504C316.427 116.092 307.125 118.731 297.639 120.168C279.758 122.878 261.21 121.049 244.172 115.293C228.076 109.856 216.857 98.0742 201.809 91.8252C179.915 82.7337 151.612 91.1823 139.127 110.537C124.36 133.428 130.333 167.03 108.823 184.444C100.81 190.932 90.128 193.915 82.2722 200.572C67.9974 212.67 66.773 234.314 74.2206 251.053C81.6683 267.792 95.9536 280.776 109.862 293.254L239.771 321.011C270.501 324.928 303.105 322.675 330.234 308.413C357.362 294.15 377.755 266.201 376.028 236.791Z" fill="#42BAE4"/>
<path d="M259.656 106.914C266.544 109.22 273.975 109.759 281.27 109.406C284.465 109.252 287.757 108.9 290.546 107.41C293.334 105.92 295.513 103.03 295.172 100.007C294.831 96.985 292.176 94.6743 289.421 93.1259C283.38 89.7295 276.257 88.6122 269.308 87.6632C262.498 86.7327 248.712 84.7956 245.704 93.105C243.078 100.363 254.091 105.05 259.656 106.914Z" fill="#42BAE4"/>
<path d="M366.435 190.733C368.012 188.455 370.242 186.307 373.086 185.955C375.557 185.649 378.161 186.905 379.359 188.982C380.193 190.43 380.355 192.141 380.327 193.792C380.238 198.982 376.674 208.935 369.371 207.797C360.946 206.483 363.241 195.343 366.435 190.733Z" fill="#42BAE4"/>
<path d="M93.0561 178.235C89.3573 180.783 84.1567 182.671 80.3938 180.21C76.68 177.78 76.6221 172.584 77.7105 168.426C79.8276 160.336 93.7619 136.906 105.06 146.769C115.226 155.644 100.81 172.894 93.0561 178.235Z" fill="#42BAE4"/>
<path d="M105.133 241.357C105.13 253.871 114.165 283.221 117.62 293.984C117.987 293.908 118.386 293.917 118.813 294.079C120.767 294.822 122.982 302.742 122.982 302.742V277.123C118.812 260.169 105.133 241.357 105.133 241.357Z" fill="#5E9DA6"/>
<path d="M110.265 255.338L109.406 255.606L119.699 285.31L120.558 285.042L110.265 255.338Z" fill="white"/>
<path d="M73.0172 290.604C85.174 327.525 122.981 324.067 122.981 324.067V314.43C117.242 306.791 73.0172 290.604 73.0172 290.604Z" fill="#5E9DA6"/>
<path d="M112.806 316.569C97.1878 312.137 79.7786 297.147 79.6048 296.996L80.214 296.362C80.3869 296.511 97.6469 311.37 113.064 315.745L112.806 316.569Z" fill="white"/>
<path d="M96.5707 313.477L96.5602 312.618C98.5228 312.596 100.519 312.206 102.33 311.493L102.675 312.287C100.759 313.04 98.6483 313.453 96.5707 313.477Z" fill="white"/>
<path d="M97.674 309.685C97.4221 308.41 97.2606 307.106 97.1939 305.811L98.0971 305.769C98.1621 307.025 98.3183 308.29 98.5623 309.528L97.674 309.685Z" fill="white"/>
<path d="M90.5572 307.177L90.5208 308.036L95.0201 308.208L95.0564 307.349L90.5572 307.177Z" fill="white"/>
<path d="M90.6591 305.049C90.6161 304.081 90.5082 303.107 90.3387 302.153L91.2305 302.01C91.4061 302.999 91.5176 304.01 91.5623 305.012L90.6591 305.049Z" fill="white"/>
<path d="M84.7879 304.109L84.6132 303.266C85.8903 303.026 87.2008 302.843 88.5104 302.72L88.5991 303.576C87.3193 303.695 86.0369 303.875 84.7879 304.109Z" fill="white"/>
<path d="M84.1269 300.789C83.8952 299.88 83.7197 298.951 83.6047 298.025L84.5026 297.924C84.6132 298.815 84.7817 299.711 85.0056 300.586L84.1269 300.789Z" fill="white"/>
<path d="M80.9636 299.734L80.3878 299.071C80.8758 298.689 81.4191 298.376 82.0019 298.141L82.3548 298.931C81.8527 299.135 81.384 299.405 80.9636 299.734Z" fill="white"/>
<path d="M120.275 321.285C114.425 320.333 108.943 317.455 104.983 313.255C104.53 312.775 104.085 312.259 103.887 311.642C103.688 311.025 103.791 310.279 104.303 309.855C104.613 309.597 105.027 309.489 105.429 309.403C106.698 309.132 108.003 309.014 109.304 309.052C105.155 306.811 101.27 304.129 98.0312 300.799C97.1886 299.933 96.3662 299.01 95.9264 297.907C95.6815 297.293 95.5665 296.587 95.8544 295.99C96.1564 295.363 96.8559 294.973 97.5687 294.839C98.2814 294.705 99.0178 294.786 99.7393 294.869C95.4024 290.943 91.3261 285.882 88.4577 280.886C87.8002 279.742 87.2025 278.268 88.0109 277.215C88.8386 276.136 90.5423 276.261 91.9248 276.498C91.9248 276.498 76.0814 255.342 78.9473 251.258C81.8131 247.174 96.4039 272.792 96.4039 272.792C96.4039 272.792 96.274 267.1 98.7492 267.471C101.224 267.842 108.65 286.051 108.65 286.051C108.65 286.051 108.52 281.827 110.865 282.694C113.21 283.56 115.425 295.689 115.425 295.689C115.425 295.689 116.858 293.337 118.812 294.079C120.766 294.822 122.981 302.742 122.981 302.742V321.284L120.275 321.285Z" fill="#77DBD3"/>
<path d="M121.176 314.993C110.74 300.672 96.1696 279.058 96.0239 278.842L96.7849 278.379C96.9306 278.596 111.492 300.197 121.919 314.505L121.176 314.993Z" fill="white"/>
<path d="M116.311 303.058L115.407 303.06L115.416 306.788L116.32 306.786L116.311 303.058Z" fill="white"/>
<path d="M118.64 311.235C116.877 311.098 115.133 310.742 113.46 310.179L113.762 309.368C115.362 309.907 117.028 310.247 118.714 310.379L118.64 311.235Z" fill="white"/>
<path d="M112.935 302.95C111.396 302.947 109.84 302.892 108.306 302.788L108.37 301.931C109.883 302.034 111.419 302.088 112.935 302.091L112.935 302.95Z" fill="white"/>
<path d="M109.947 297.673L109.053 297.542C109.232 296.435 109.258 295.31 109.129 294.198L110.027 294.104C110.165 295.29 110.139 296.491 109.947 297.673Z" fill="white"/>
<path d="M102.613 291.961L102.408 292.798L106.412 293.683L106.617 292.846L102.613 291.961Z" fill="white"/>
<path d="M104.061 285.38L103.161 285.454L103.542 289.645L104.443 289.571L104.061 285.38Z" fill="white"/>
<path d="M97.2974 284.106L97.199 284.959L100.646 285.318L100.744 284.464L97.2974 284.106Z" fill="white"/>
<path d="M98.816 281.34L97.9979 280.974C98.464 280.035 98.8353 279.049 99.1013 278.042L99.9781 278.251C99.6981 279.312 99.3066 280.351 98.816 281.34Z" fill="white"/>
<path d="M311.914 322.284L311.157 321.444C311.274 321.349 322.841 311.627 322.569 287.726C322.324 266.368 328.169 240.187 328.228 239.925L329.368 240.156C329.309 240.417 323.489 266.481 323.733 287.713C324.012 312.176 312.408 321.884 311.914 322.284Z" fill="#5E718C"/>
<path d="M320.508 306.715C320.508 306.715 312.162 298.425 314.659 292.938C317.156 287.452 320.508 306.715 320.508 306.715Z" fill="#5E9DA6"/>
<path d="M322.753 296.022C322.775 295.823 329.38 286.297 331.912 289.311C334.445 292.325 322.753 296.022 322.753 296.022Z" fill="#5E9DA6"/>
<path d="M323.162 284.219C323.162 284.219 316.964 281.479 317.571 277.422C318.177 273.365 321.888 276.819 323.162 284.219Z" fill="#77DBD3"/>
<path d="M323.646 274.458C323.683 273.979 327.946 266.469 331.102 268.826C334.257 271.183 323.646 274.458 323.646 274.458Z" fill="#77DBD3"/>
<path d="M324.672 264.402C324.672 264.402 319.177 263.497 319.833 260.049C320.487 256.6 324.672 264.402 324.672 264.402Z" fill="#5E9DA6"/>
<path d="M325.935 255.463C325.935 255.463 329.6 249.683 332.013 252.094C334.426 254.505 325.935 255.463 325.935 255.463Z" fill="#5E9DA6"/>
<path d="M326.969 249.323C326.969 249.323 320.646 248.037 322.475 244.756C324.254 241.566 326.969 249.323 326.969 249.323Z" fill="#77DBD3"/>
<path d="M325.67 239.611C325.168 238.95 324.911 238.137 324.859 237.323C324.828 236.828 324.882 236.295 325.209 235.908C325.578 235.47 326.247 235.32 326.818 235.465C327.388 235.61 327.86 236.012 328.17 236.491C328.48 236.969 328.643 237.52 328.756 238.071C328.913 238.841 329.425 240.854 328.368 241.26C327.473 241.603 326.13 240.214 325.67 239.611Z" fill="#5E9DA6"/>
<path d="M332.979 239.106C333.41 239.135 333.85 239.203 334.224 239.41C334.597 239.617 334.894 239.988 334.897 240.399C334.903 240.975 334.36 241.422 333.808 241.656C332.704 242.125 329.892 242.472 329.302 241.049C328.628 239.424 331.952 239.038 332.979 239.106Z" fill="#77DBD3"/>
<path d="M311.77 321.816C316.371 317.821 319.963 312.899 323.267 307.878C323.697 307.226 324.318 306.479 325.117 306.604C325.643 306.686 326.028 307.152 326.157 307.642C326.286 308.134 326.21 308.649 326.134 309.149C328.381 303.903 332.27 299.677 336.245 295.456C336.913 294.747 337.684 293.992 338.682 293.909C339.681 293.826 340.739 294.905 340.188 295.701C344.143 289.798 348.983 284.071 354.504 279.438C355.64 278.483 356.832 277.545 358.24 277.007C357.818 281.592 355.3 285.968 351.464 288.78C351.845 288.429 352.594 288.07 353.112 287.961C353.63 287.852 354.275 288.122 354.345 288.622C354.377 288.856 354.281 289.088 354.173 289.301C353.777 290.079 353.192 290.755 352.607 291.417C349.244 295.225 345.681 298.874 341.937 302.345C342.589 302.11 343.253 301.838 343.95 301.843C344.648 301.848 345.389 302.151 345.695 302.747C346.175 303.682 345.41 304.756 344.607 305.464C340.722 308.889 335.229 309.974 330.432 312.117C331.094 311.962 331.786 312.587 331.925 313.221C332.065 313.855 331.803 314.508 331.455 315.066C330.172 317.108 327.793 318.272 325.471 319.161C321.125 320.822 316.455 321.807 311.77 321.816Z" fill="#77DBD3"/>
<path d="M380.5 298.096L379.779 297.228L369.107 305.23C368.723 303.797 368.515 302.327 368.51 300.843L367.345 300.846C367.35 302.584 367.616 304.305 368.112 305.976L362.535 310.157C362.454 310.154 362.375 310.143 362.294 310.143L362.294 310.339L360.679 311.55C360.229 311.887 359.768 312.204 359.306 312.521L359.659 306.913L358.496 306.846L358.101 313.142L358.347 313.156C355.46 315.014 352.371 316.502 349.198 317.675C349.827 315.854 350.527 314.05 351.339 312.306L350.275 311.859C349.321 313.904 348.499 316.024 347.798 318.164C343.248 319.709 338.589 320.654 334.19 321.206C335.419 319.035 337.062 317.048 339.024 315.445L338.264 314.607C335.987 316.468 334.089 318.808 332.764 321.375C321.329 322.614 312.026 321.296 311.859 321.271L311.679 322.364C311.794 322.382 316.208 323.01 322.686 323.01C322.942 323.01 323.215 323.005 323.477 323.002C324.009 323.661 324.418 324.472 324.815 325.259C325.514 326.647 326.238 328.084 327.704 328.915L328.303 327.967C327.137 327.305 326.52 326.078 325.864 324.78C325.559 324.175 325.222 323.568 324.842 322.986C329.012 322.896 333.847 322.525 338.856 321.603C340.957 323.493 343.288 325.158 345.791 326.543L346.378 325.588C344.187 324.375 342.142 322.935 340.264 321.321C347.546 319.836 355.088 317.153 361.4 312.42L362.908 311.29C363.685 311.366 364.46 311.561 365.27 311.769C366.331 312.043 367.426 312.324 368.57 312.324C368.647 312.324 368.724 312.323 368.8 312.32L368.759 311.214C367.727 311.246 366.673 310.984 365.575 310.702C365.106 310.581 364.628 310.463 364.145 310.363L372.236 304.297C373.325 305.019 374.366 305.811 375.311 306.696L376.128 305.907C375.218 305.057 374.22 304.294 373.184 303.586L380.5 298.096Z" fill="#5E718C"/>
<path d="M325.163 326.06C325.082 327.672 326.088 329.194 327.412 330.206C328.736 331.217 330.353 331.807 331.941 332.38C331.723 331.603 331.5 330.848 331.281 330.071C331.118 329.491 330.951 328.902 330.624 328.388C330.373 327.994 330.036 327.657 329.686 327.34C329.133 326.839 328.528 326.371 327.825 326.087C327.122 325.804 325.875 325.794 325.163 326.06Z" fill="#77DBD3"/>
<path d="M335.276 318.21C334.802 316.944 335.114 315.487 335.895 314.368C336.677 313.248 337.882 312.441 339.18 311.905C340.477 311.368 341.871 311.082 343.26 310.831C343.139 312.587 341.906 314.244 340.495 315.383C339.082 316.522 336.964 317.485 335.276 318.21Z" fill="#77DBD3"/>
<path d="M342.676 324.247C342.498 324.949 342.865 325.67 343.312 326.252C344.365 327.62 345.913 328.606 347.594 329.171C349.275 329.737 351.086 329.9 352.867 329.816C351.944 328.41 350.92 327.083 349.592 326.01C347.817 324.577 344.989 323.984 342.676 324.247Z" fill="#5E9DA6"/>
<path d="M348.928 315.453C348.508 313.814 348.745 312.058 349.42 310.499C350.095 308.939 351.189 307.565 352.461 306.389C353.203 307.222 353.548 308.408 353.511 309.498C353.474 310.589 353.086 311.651 352.521 312.6C351.799 313.812 350.346 315.1 348.928 315.453Z" fill="#5E9DA6"/>
<path d="M358.788 310.044C358.042 309.782 357.647 308.998 357.505 308.254C357.276 307.046 357.523 305.781 358.067 304.667C358.611 303.553 359.441 302.581 360.38 301.738C360.997 303.12 361.453 304.67 361.258 306.161C361.065 307.652 360.164 309.305 358.788 310.044Z" fill="#77DBD3"/>
<path d="M367.862 303.061C367.492 302.94 367.203 302.656 366.992 302.343C366.429 301.508 366.343 300.435 366.605 299.474C366.867 298.515 367.447 297.656 368.128 296.905C368.447 297.004 368.677 297.249 368.852 297.521C369.407 298.385 369.645 299.429 369.515 300.433C369.385 301.438 368.62 302.35 367.862 303.061Z" fill="#5E9DA6"/>
<path d="M374.17 305.228C374.077 305.858 374.406 306.482 374.837 306.97C375.566 307.799 376.617 308.367 377.739 308.539C377.613 308.27 377.594 307.966 377.571 307.672C377.508 306.863 377.278 306.033 376.71 305.426C376.143 304.819 374.952 304.901 374.17 305.228Z" fill="#5E9DA6"/>
<path d="M375.752 300.774C376.438 298.987 377.915 297.53 379.661 296.598C381.406 295.664 383.407 295.226 385.405 295.089C385.079 296.992 383.819 298.694 382.112 299.736C380.404 300.779 377.709 301.283 375.752 300.774Z" fill="#77DBD3"/>
<path d="M365.617 311.42C366.595 312.569 368.009 313.375 369.536 313.654C370.937 313.91 372.381 313.733 373.796 313.556C373.128 312.085 371.764 310.837 370.112 310.519C369.246 310.352 368.349 310.442 367.475 310.562C366.756 310.66 366.108 310.912 365.617 311.42Z" fill="#77DBD3"/>
<path d="M336.245 295.457C336.913 294.747 337.684 293.992 338.682 293.909C339.681 293.826 340.739 294.905 340.188 295.701C341.623 293.56 343.178 291.443 344.835 289.392C347.485 278.623 350.41 258.288 350.41 258.288C340.086 274.466 335.168 291.808 333.562 298.355C334.441 297.381 335.34 296.418 336.245 295.457Z" fill="#5E9DA6"/>
<path d="M340.751 290.285L339.879 290.057C339.911 289.944 343.155 278.764 345.069 273.623L345.922 273.91C344.019 279.022 340.783 290.173 340.751 290.285Z" fill="white"/>
<path d="M366.839 291.666C363.579 291.35 360.291 291.14 357.031 291.448C355.178 291.623 353.333 291.981 351.574 292.556C348.515 295.952 345.304 299.224 341.936 302.345C342.588 302.11 343.252 301.838 343.95 301.843C344.647 301.848 345.388 302.151 345.694 302.746C345.794 302.939 345.829 303.138 345.832 303.338C353.545 300.797 360.768 296.792 366.839 291.666Z" fill="#5E9DA6"/>
<path d="M307.131 199.286H129.112C125.726 199.286 122.981 201.894 122.981 205.111V322.219H313.262V205.111C313.262 201.894 310.517 199.286 307.131 199.286Z" fill="#454966"/>
<path d="M304.645 204.085H131.598C129.74 204.085 128.234 205.516 128.234 207.281V314.18C128.234 315.946 129.74 317.376 131.598 317.376H304.646C306.504 317.376 308.01 315.946 308.01 314.18V207.281C308.009 205.516 306.503 204.085 304.645 204.085Z" fill="#F2EBEB"/>
<path d="M313.044 322.219H123.198L95.7939 363.853C94.9626 365.116 94.5229 366.574 94.5229 368.063V373.909C94.5229 374.82 95.3006 375.559 96.26 375.559H339.983C340.942 375.559 341.72 374.82 341.72 373.909V368.063C341.72 366.574 341.279 365.116 340.449 363.853L313.044 322.219Z" fill="#D0DCEA"/>
<path d="M94.5229 368.063V373.909C94.5229 374.82 95.3006 375.559 96.26 375.559H339.983C340.942 375.559 341.72 374.82 341.72 373.909V368.063C341.72 367.783 341.689 367.506 341.659 367.23H94.5843C94.5536 367.507 94.5229 367.783 94.5229 368.063Z" fill="#B5BCCA"/>
<path d="M241.378 364.482H194.865C193.983 364.482 193.352 363.672 193.608 362.871L196.302 354.467C196.47 353.942 196.98 353.583 197.559 353.583H238.685C239.263 353.583 239.773 353.942 239.942 354.467L242.636 362.871C242.891 363.672 242.26 364.482 241.378 364.482Z" fill="#B5BCCA"/>
<path d="M256.307 328.674H267.382L266.241 325.341H255.448L256.307 328.674Z" fill="#454966"/>
<path d="M226.508 330.142L227.209 335.752H240.397L239.549 330.142H226.508Z" fill="#454966"/>
<path d="M270.105 328.674H282.355L281.062 325.341H268.964L270.105 328.674Z" fill="#454966"/>
<path d="M226.325 328.674H239.326L238.822 325.341H225.908L226.325 328.674Z" fill="#454966"/>
<path d="M242.049 328.674H253.585L252.726 325.341H241.545L242.049 328.674Z" fill="#454966"/>
<path d="M241.514 343.128L240.619 337.22H227.392L228.13 343.128H241.514Z" fill="#454966"/>
<path d="M195.115 343.128H208.105L208.843 337.22H196.154L195.115 343.128Z" fill="#454966"/>
<path d="M209.727 330.142H197.398L196.412 335.752H209.027L209.727 330.142Z" fill="#454966"/>
<path d="M210.327 325.341H198.243L197.656 328.674H209.911L210.327 325.341Z" fill="#454966"/>
<path d="M183.54 328.674H194.934L195.52 325.341H184.399L183.54 328.674Z" fill="#454966"/>
<path d="M212.449 330.142L211.749 335.752H224.486L223.786 330.142H212.449Z" fill="#454966"/>
<path d="M212.632 328.674H223.603L223.186 325.341H213.048L212.632 328.674Z" fill="#454966"/>
<path d="M210.828 343.128H225.407L224.67 337.22H211.565L210.828 343.128Z" fill="#454966"/>
<path d="M257.309 343.128L255.787 337.22H243.342L244.237 343.128H257.309Z" fill="#454966"/>
<path d="M285.647 330.142L287.823 335.752H300.026L297.311 330.142H285.647Z" fill="#454966"/>
<path d="M302.748 335.752H314.067L310.729 330.142H300.033L302.748 335.752Z" fill="#454966"/>
<path d="M314.939 337.22H300.736H298.044H288.392L290.683 343.128H300.902H303.594H318.453L314.939 337.22Z" fill="#454966"/>
<path d="M269.805 335.752L267.885 330.142H256.685L258.13 335.752H269.805Z" fill="#454966"/>
<path d="M287.961 343.128L285.67 337.22H273.029L275.052 343.128H287.961Z" fill="#454966"/>
<path d="M285.1 335.752L282.924 330.142H270.607L272.527 335.752H285.1Z" fill="#454966"/>
<path d="M272.33 343.128L270.307 337.22H258.509L260.032 343.128H272.33Z" fill="#454966"/>
<path d="M285.077 328.674H296.601L294.989 325.341H283.785L285.077 328.674Z" fill="#454966"/>
<path d="M242.271 330.142L243.12 335.752H255.408L253.963 330.142H242.271Z" fill="#454966"/>
<path d="M161.57 344.595H148.595L145.878 351.599H159.172L161.57 344.595Z" fill="#454966"/>
<path d="M288.53 344.595H275.555L277.952 351.599H291.247L288.53 344.595Z" fill="#454966"/>
<path d="M272.832 344.595H260.41L262.214 351.599H275.23L272.832 344.595Z" fill="#454966"/>
<path d="M257.687 344.595H179.438L177.632 351.599H259.492L257.687 344.595Z" fill="#454966"/>
<path d="M143.155 351.599L145.873 344.595H132.82L129.431 351.599H143.155Z" fill="#454966"/>
<path d="M176.715 344.595H164.292L161.895 351.599H174.91L176.715 344.595Z" fill="#454966"/>
<path d="M299.324 328.674H309.857L307.875 325.341H297.711L299.324 328.674Z" fill="#454966"/>
<path d="M130.098 344.595H116.918L112.752 351.599H126.709L130.098 344.595Z" fill="#454966"/>
<path d="M137.801 328.674L139.414 325.341H128.368L126.386 328.674H137.801Z" fill="#454966"/>
<path d="M304.304 344.595H291.252L293.969 351.599H307.694L304.304 344.595Z" fill="#454966"/>
<path d="M319.325 344.595H307.027L310.416 351.599H323.491L319.325 344.595Z" fill="#454966"/>
<path d="M149.164 343.128H162.073L164.095 337.22H151.455L149.164 343.128Z" fill="#454966"/>
<path d="M180.439 330.142H169.24L167.32 335.752H178.994L180.439 330.142Z" fill="#454966"/>
<path d="M194.675 330.142H183.162L181.716 335.752H193.69L194.675 330.142Z" fill="#454966"/>
<path d="M193.432 337.22H181.338L179.816 343.128H192.393L193.432 337.22Z" fill="#454966"/>
<path d="M166.518 330.142H154.2L152.024 335.752H164.598L166.518 330.142Z" fill="#454966"/>
<path d="M178.615 337.22H166.818L164.795 343.128H177.093L178.615 337.22Z" fill="#454966"/>
<path d="M122.176 335.752H134.377L137.091 330.142H125.513L122.176 335.752Z" fill="#454966"/>
<path d="M139.958 337.22H136.389H121.304L117.79 343.128H133.53H137.099H146.442L148.732 337.22H139.958Z" fill="#454966"/>
<path d="M149.302 335.752L151.478 330.142H139.814L137.099 335.752H149.302Z" fill="#454966"/>
<path d="M169.742 328.674H180.818L181.677 325.341H170.883L169.742 328.674Z" fill="#454966"/>
<path d="M140.524 328.674H152.047L153.34 325.341H142.136L140.524 328.674Z" fill="#454966"/>
<path d="M154.77 328.674H167.02L168.161 325.341H156.062L154.77 328.674Z" fill="#454966"/>
<path d="M245.562 370.347H190.68C189.205 370.347 187.891 369.465 187.398 368.145L187.057 367.23H249.186L248.845 368.145C248.351 369.466 247.037 370.347 245.562 370.347Z" fill="#969DA8"/>
<path d="M274.634 251.416C274.18 229.421 271.003 225.54 271.003 225.54C261.697 212.387 229.332 213.019 229.332 213.019L218.121 213.014L206.91 213.019C206.91 213.019 174.546 212.387 165.239 225.54C165.239 225.54 162.062 229.422 161.608 251.416C161.154 273.41 161.608 317.399 161.608 317.399H218.121H274.634C274.634 317.399 275.088 273.41 274.634 251.416Z" fill="#D9E5F1"/>
<path d="M238.052 213.343C232.926 212.951 229.332 213.018 229.332 213.018L218.122 213.013L206.911 213.018C206.911 213.018 203.318 212.951 198.192 213.343C197.387 227.728 195.293 290.625 218.122 317.398C240.951 290.625 238.857 227.728 238.052 213.343Z" fill="#55BCD9"/>
<path d="M238.052 213.343C238.052 213.343 248.653 220.975 252.702 235.776L245.377 243.399C245.377 243.399 250.273 249.807 250.542 252.627C250.812 255.447 240.476 307.832 218.121 317.399C240.951 290.625 238.857 227.728 238.052 213.343Z" fill="#F2EBEB"/>
<path d="M229.332 198.238H206.911V222.493H229.332V198.238Z" fill="#CA7975"/>
<path d="M183.36 168.267C185.005 164.408 189.456 167.349 189.456 167.349C189.456 167.349 191.185 177.221 192.836 181.799C183.941 179.388 181.716 172.127 183.36 168.267Z" fill="#CA7975"/>
<path d="M192.216 179.865C191.197 176.351 190.236 171.531 189.762 169.022C188.766 168.543 186.707 167.882 185.799 170.013C184.618 172.786 186.139 177.911 192.216 179.865Z" fill="#B06A75"/>
<path d="M191.096 174.9C191.096 174.9 184.507 169.678 185.537 154.6C186.568 139.523 213.364 118.374 237.274 138.935L239.542 141.872C239.542 141.872 246.756 139.131 249.229 143.635C251.703 148.139 252.277 171.416 243.436 178.576C234.595 185.735 191.096 174.9 191.096 174.9Z" fill="#834252"/>
<path d="M190.278 167.658C190.278 167.658 190.871 201.092 216.963 205.79C217.414 205.871 217.889 205.871 218.34 205.79C236.031 202.604 241.999 186.207 244.008 175.98V174.646C242.948 173.594 242.55 172.402 242.075 171.017C240.611 166.751 240.556 162.18 240.515 157.692C239.157 160.179 236.224 161.753 233.39 162.53C230.557 163.308 227.56 163.321 224.612 163.256C225.546 162.933 225.972 162.017 226.166 161.091C226.359 160.165 226.459 159.154 227.118 158.447C219.693 162.301 211.015 163.077 202.555 163.233C203.995 162.421 205.137 161.075 205.564 159.537C200.981 162.34 195.342 162.585 189.893 162.732C189.725 163.972 190.189 166.412 190.278 167.658Z" fill="#DF9781"/>
<path d="M252.026 168.267C250.381 164.408 245.931 167.349 245.931 167.349C245.931 167.349 244.201 177.221 242.55 181.799C251.445 179.388 253.671 172.127 252.026 168.267Z" fill="#CA7975"/>
<path d="M243.1 180.102C249.486 178.097 251.087 172.739 249.855 169.846C248.884 167.568 246.65 168.362 245.655 168.86C245.182 171.373 244.167 176.494 243.1 180.102Z" fill="#B06A75"/>
<path d="M220.108 174.551C218.055 173.916 215.792 173.915 213.738 174.551L213.201 173.524C215.603 172.781 218.244 172.783 220.644 173.524L220.108 174.551Z" fill="#834252"/>
<path d="M225.409 191.843C226.033 191.827 226.755 191.855 227.137 192.324C227.427 192.68 227.415 193.18 227.317 193.619C226.935 195.322 225.458 196.661 223.778 197.357C222.098 198.051 220.227 198.192 218.395 198.229C216.685 198.263 214.948 198.211 213.31 197.743C212.469 197.502 211.645 197.142 211.017 196.56C209.964 195.582 209.602 193.789 210.938 192.851C211.767 192.27 221.635 191.943 225.409 191.843Z" fill="#CA6866"/>
<path d="M213.311 197.743C214.949 198.211 216.685 198.263 218.396 198.229C220.228 198.192 222.099 198.051 223.779 197.356C224.373 197.11 224.938 196.781 225.442 196.385C224.547 195.437 223.222 194.903 221.89 194.659C219.256 194.176 216.466 194.612 214.093 195.785C213.472 196.092 212.485 196.552 211.893 197.169C212.338 197.413 212.819 197.603 213.311 197.743Z" fill="#AF4E5E"/>
<path d="M217.592 187.632C217.524 187.632 217.455 187.621 217.388 187.597C216.533 187.295 215.072 186.663 214.893 185.837C214.766 185.258 214.916 184.704 215.048 184.215C215.649 181.98 216.06 179.7 216.273 177.418C216.301 177.115 216.577 176.888 216.905 176.916C217.226 176.943 217.462 177.212 217.434 177.517C217.215 179.857 216.794 182.197 216.181 184.473C216.066 184.898 215.963 185.284 216.034 185.614C216.114 185.765 216.779 186.2 217.795 186.561C218.096 186.668 218.25 186.986 218.137 187.272C218.05 187.496 217.828 187.632 217.592 187.632Z" fill="#834252"/>
<path d="M205.449 213.018C204.219 213.031 202.279 213.078 199.891 213.225L208.949 229.533L218.121 222.492L206.91 213.018H205.449Z" fill="#9DE7E9"/>
<path d="M230.794 213.018H229.332L218.122 222.492L227.294 229.533L236.352 213.225C233.963 213.078 232.024 213.031 230.794 213.018Z" fill="#9DE7E9"/>
<path d="M198.191 213.343C198.191 213.343 187.589 220.975 183.542 235.776L190.867 243.399C190.867 243.399 185.971 249.807 185.701 252.627C185.431 255.447 195.767 307.832 218.122 317.399C195.292 290.625 197.386 227.728 198.191 213.343Z" fill="#F2EBEB"/>
<path d="M216.569 316.648C195.29 305.392 185.437 255.381 185.701 252.627C185.97 249.807 190.866 243.399 190.866 243.399L183.541 235.776C187.217 222.335 196.271 214.828 197.909 213.558L198.191 213.343C197.498 213.396 196.784 213.455 196.04 213.526C194.302 214.766 184.305 222.375 180.266 236.006L188.285 243.708C188.285 243.708 182.925 250.182 182.629 253.031C182.343 255.788 192.93 305.435 215.79 317.399H217.972C217.764 317.151 216.775 316.899 216.569 316.648Z" fill="#C2D8F1"/>
<path d="M219.66 316.648C240.94 305.392 250.792 255.381 250.528 252.627C250.259 249.807 245.363 243.399 245.363 243.399L252.687 235.776C249.012 222.335 239.958 214.828 238.32 213.558L238.038 213.343C238.731 213.396 239.445 213.455 240.189 213.526C241.926 214.766 251.924 222.375 255.962 236.006L247.944 243.708C247.944 243.708 253.304 250.182 253.599 253.031C253.886 255.788 243.299 305.435 220.439 317.399H218.257C218.465 317.151 219.454 316.899 219.66 316.648Z" fill="#C2D8F1"/>
<path d="M176.031 265.206V317.398H184.502C180.673 312.578 176.031 265.206 176.031 265.206Z" fill="#C2D8F1"/>
<path d="M260.212 265.206V317.398H251.741C255.57 312.578 260.212 265.206 260.212 265.206Z" fill="#C2D8F1"/>
<path d="M208.949 229.534L215.033 238.762H221.21L227.293 229.534L218.121 222.493L208.949 229.534Z" fill="#FFB527"/>
<path d="M218.121 222.493L208.949 229.534L210.196 231.425C212.415 229.203 214.732 227.068 217.172 225.066C217.467 224.824 217.838 224.567 218.211 224.676C218.423 224.739 218.578 224.909 218.721 225.072C220.889 227.549 222.964 230.165 225.454 232.324L227.293 229.534L218.121 222.493Z" fill="#FF9D27"/>
<path d="M221.183 238.762H215.033C215.033 238.762 206.774 277.809 209.46 303.226C211.849 308.569 214.704 313.391 218.122 317.399C221.523 313.41 224.368 308.614 226.749 303.302C226.752 303.277 226.754 303.255 226.756 303.231C229.443 277.813 221.183 238.762 221.183 238.762Z" fill="#FF9D27"/>
<path d="M221.632 241.11C221.341 239.612 221.161 238.761 221.161 238.761H215.01C215.01 238.761 214.341 241.93 213.445 247.04C214.183 246.076 214.946 245.128 215.752 244.214C216.46 243.411 217.206 242.618 218.126 242.041C219.017 241.483 220.353 241.314 221.632 241.11Z" fill="#EE8C27"/>
<path d="M212.051 178.567H199.464C198.313 178.567 197.381 177.681 197.381 176.589V170.29C197.381 169.196 198.314 168.311 199.464 168.311H212.051C213.201 168.311 214.133 169.197 214.133 170.29V176.589C214.134 177.682 213.201 178.567 212.051 178.567Z" fill="#F2EBEB"/>
<path d="M234.402 178.567H221.815C220.664 178.567 219.732 177.681 219.732 176.589V170.29C219.732 169.196 220.665 168.311 221.815 168.311H234.402C235.552 168.311 236.484 169.197 236.484 170.29V176.589C236.484 177.682 235.552 178.567 234.402 178.567Z" fill="#F2EBEB"/>
<path d="M199.891 213.226L207.524 232.323L208.949 229.533L199.891 213.226Z" fill="#55A3D4"/>
<path d="M236.351 213.226L228.719 232.323L227.293 229.533L236.351 213.226Z" fill="#55A3D4"/>
<path d="M153.467 219.605H132.987V242.901H153.467V219.605Z" fill="#F2C8C5"/>
<path d="M153.467 215.698H132.987V219.605H153.467V215.698Z" fill="#F2AFB1"/>
<path d="M151.696 218.399C152.131 218.399 152.483 218.065 152.483 217.652C152.483 217.238 152.131 216.904 151.696 216.904C151.261 216.904 150.908 217.238 150.908 217.652C150.908 218.065 151.261 218.399 151.696 218.399Z" fill="white"/>
<path d="M149.642 218.399C150.077 218.399 150.429 218.065 150.429 217.652C150.429 217.238 150.077 216.904 149.642 216.904C149.207 216.904 148.854 217.238 148.854 217.652C148.854 218.065 149.207 218.399 149.642 218.399Z" fill="white"/>
<path d="M148.374 217.652C148.374 218.064 148.022 218.399 147.586 218.399C147.152 218.399 146.799 218.064 146.799 217.652C146.799 217.239 147.151 216.904 147.586 216.904C148.022 216.904 148.374 217.239 148.374 217.652Z" fill="white"/>
<path d="M303.236 272.274H282.756V295.57H303.236V272.274Z" fill="#F2C8C5"/>
<path d="M303.236 268.367H282.757V272.275H303.236V268.367Z" fill="#F2AFB1"/>
<path d="M301.465 271.069C301.9 271.069 302.252 270.734 302.252 270.321C302.252 269.908 301.9 269.573 301.465 269.573C301.03 269.573 300.677 269.908 300.677 270.321C300.677 270.734 301.03 271.069 301.465 271.069Z" fill="white"/>
<path d="M300.197 270.321C300.197 270.733 299.845 271.069 299.41 271.069C298.976 271.069 298.623 270.734 298.623 270.321C298.623 269.908 298.975 269.573 299.41 269.573C299.845 269.573 300.197 269.908 300.197 270.321Z" fill="white"/>
<path d="M298.143 270.321C298.143 270.733 297.791 271.069 297.355 271.069C296.921 271.069 296.568 270.734 296.568 270.321C296.568 269.908 296.92 269.573 297.355 269.573C297.791 269.573 298.143 269.908 298.143 270.321Z" fill="white"/>
<path d="M155.784 292.453H135.305V303.213H155.784V292.453Z" fill="#F2C8C5"/>
<path d="M155.784 288.546H135.305V292.453H155.784V288.546Z" fill="#F2AFB1"/>
<path d="M154.8 290.499C154.8 290.912 154.448 291.247 154.012 291.247C153.578 291.247 153.225 290.912 153.225 290.499C153.225 290.086 153.577 289.751 154.012 289.751C154.448 289.751 154.8 290.086 154.8 290.499Z" fill="white"/>
<path d="M151.958 291.247C152.393 291.247 152.746 290.912 152.746 290.499C152.746 290.086 152.393 289.751 151.958 289.751C151.523 289.751 151.171 290.086 151.171 290.499C151.171 290.912 151.523 291.247 151.958 291.247Z" fill="white"/>
<path d="M149.903 291.247C150.338 291.247 150.691 290.912 150.691 290.499C150.691 290.086 150.338 289.751 149.903 289.751C149.469 289.751 149.116 290.086 149.116 290.499C149.116 290.912 149.469 291.247 149.903 291.247Z" fill="white"/>
<path d="M306.285 221.124H279.708V223.38H306.285V221.124Z" fill="#B8BDCA"/>
<path d="M306.285 227.704H299.972V229.96H306.285V227.704Z" fill="#B8BDCA"/>
<path d="M292.996 227.704H279.708V229.96H292.996V227.704Z" fill="#B8BDCA"/>
<path d="M306.285 234.283H279.708V236.54H306.285V234.283Z" fill="#B8BDCA"/>
<path d="M306.285 240.863H292.031V243.12H306.285V240.863Z" fill="#B8BDCA"/>
<path d="M285.007 240.863H279.708V243.12H285.007V240.863Z" fill="#B8BDCA"/>
<path d="M306.285 247.442H279.708V249.699H306.285V247.442Z" fill="#B8BDCA"/>
<path d="M154.013 253.21H146.925V255.467H154.013V253.21Z" fill="#B8BDCA"/>
<path d="M142.333 253.21H132.255V255.467H142.333V253.21Z" fill="#B8BDCA"/>
<path d="M154.012 259.603H132.255V261.859H154.012V259.603Z" fill="#B8BDCA"/>
<path d="M146.004 265.996H132.255V268.252H146.004V265.996Z" fill="#B8BDCA"/>
<path d="M154.013 265.996H149.645V268.252H154.013V265.996Z" fill="#B8BDCA"/>
<path d="M154.012 272.388H132.255V274.644H154.012V272.388Z" fill="#B8BDCA"/>
<path d="M402.396 203.992H371.025V233.795H402.396V203.992Z" fill="#8FC8FF"/>
<path d="M400.446 203.992V222.568L391.288 230.417H371.025V203.992H400.446Z" fill="#81AEFF"/>
<path d="M390.87 228.722H365.805V197.362H398.816V221.909L390.87 228.722Z" fill="#BAEBFF"/>
<path d="M390.87 228.722L398.816 221.909L390.87 219.801V228.722Z" fill="#ADDBFF"/>
<path d="M381.625 199.893H369.299V212.424H381.625V199.893Z" fill="white"/>
<path d="M380.397 205.09H376.587V201.47H374.337V205.09H370.528V207.227H374.337V210.846H376.587V207.227H380.397V205.09Z" fill="#FF546A"/>
<path d="M370.674 192.222C369.486 192.806 368.023 192.365 367.407 191.236L364.428 185.772C363.813 184.643 364.277 183.254 365.466 182.668C366.654 182.084 368.117 182.525 368.733 183.654L371.712 189.118C372.327 190.247 371.863 191.637 370.674 192.222Z" fill="#FF546A"/>
<path d="M370.674 192.222C369.486 192.806 368.023 192.365 367.407 191.236L365.918 188.504L370.222 186.386L371.712 189.118C372.327 190.247 371.863 191.637 370.674 192.222Z" fill="#FFB527"/>
<path d="M358.618 226.648C357.429 227.233 355.967 226.792 355.351 225.663L352.372 220.199C351.756 219.07 352.221 217.68 353.409 217.095C354.597 216.51 356.06 216.952 356.676 218.081L359.655 223.545C360.27 224.674 359.806 226.063 358.618 226.648Z" fill="#4CB5FF"/>
<path d="M358.618 226.649C357.429 227.233 355.967 226.792 355.351 225.663L353.861 222.931L358.165 220.812L359.655 223.545C360.27 224.674 359.806 226.063 358.618 226.649Z" fill="#FFB527"/>
<path d="M395.584 203.253H384.587V203.716H395.584V203.253Z" fill="#454966"/>
<path d="M395.584 206.973H392.746V207.436H395.584V206.973Z" fill="#454966"/>
<path d="M389.35 206.973H384.587V207.436H389.35V206.973Z" fill="#454966"/>
<path d="M395.584 210.694H384.587V211.156H395.584V210.694Z" fill="#454966"/>
<path d="M394.064 215.017H381.625V215.48H394.064V215.017Z" fill="#454966"/>
<path d="M375.462 215.017H369.186V215.48H375.462V215.017Z" fill="#454966"/>
<path d="M394.065 218.235H369.186V218.698H394.065V218.235Z" fill="#454966"/>
<path d="M388.927 221.453H384.587V221.915H388.927V221.453Z" fill="#454966"/>
<path d="M379.81 221.453H369.186V221.915H379.81V221.453Z" fill="#454966"/>
<path d="M389.351 224.671H369.186V225.133H389.351V224.671Z" fill="#454966"/>
<path d="M355.055 252.379V245.385H357.418C357.967 245.385 358.416 245.484 358.764 245.682C359.115 245.878 359.374 246.143 359.543 246.478C359.711 246.812 359.796 247.186 359.796 247.598C359.796 248.01 359.711 248.385 359.543 248.722C359.377 249.059 359.119 249.327 358.771 249.528C358.423 249.726 357.976 249.825 357.432 249.825H355.738V249.073H357.405C357.781 249.073 358.082 249.008 358.31 248.879C358.538 248.749 358.703 248.574 358.805 248.353C358.91 248.13 358.962 247.878 358.962 247.598C358.962 247.318 358.91 247.067 358.805 246.847C358.703 246.626 358.536 246.453 358.306 246.327C358.077 246.2 357.771 246.136 357.391 246.136H355.902V252.379H355.055ZM361.16 252.379V245.385H363.523C364.07 245.385 364.518 245.478 364.869 245.665C365.22 245.849 365.479 246.103 365.648 246.426C365.816 246.75 365.9 247.117 365.9 247.53C365.9 247.942 365.816 248.307 365.648 248.626C365.479 248.945 365.221 249.195 364.872 249.377C364.524 249.557 364.079 249.647 363.537 249.647H361.624V248.882H363.51C363.883 248.882 364.184 248.827 364.411 248.718C364.641 248.609 364.808 248.454 364.91 248.254C365.015 248.051 365.067 247.81 365.067 247.53C365.067 247.25 365.015 247.005 364.91 246.795C364.805 246.586 364.638 246.424 364.408 246.31C364.178 246.194 363.874 246.136 363.496 246.136H362.007V252.379H361.16ZM364.452 249.237L366.174 252.379H365.19L363.496 249.237H364.452ZM367.312 252.379V245.385H371.533V246.136H368.159V248.5H371.315V249.251H368.159V251.628H371.588V252.379H367.312ZM376.885 247.133C376.844 246.787 376.678 246.519 376.386 246.327C376.095 246.136 375.738 246.041 375.314 246.041C375.004 246.041 374.733 246.091 374.501 246.191C374.271 246.291 374.091 246.429 373.962 246.604C373.834 246.779 373.77 246.979 373.77 247.202C373.77 247.388 373.815 247.549 373.903 247.683C373.995 247.815 374.111 247.926 374.252 248.015C374.393 248.101 374.541 248.173 374.696 248.23C374.851 248.284 374.993 248.329 375.123 248.363L375.833 248.554C376.015 248.602 376.218 248.668 376.441 248.752C376.666 248.837 376.882 248.952 377.087 249.097C377.294 249.241 377.465 249.425 377.599 249.651C377.733 249.876 377.8 250.153 377.8 250.48C377.8 250.858 377.701 251.2 377.503 251.505C377.307 251.81 377.021 252.053 376.643 252.233C376.267 252.412 375.81 252.502 375.273 252.502C374.772 252.502 374.338 252.422 373.972 252.26C373.607 252.098 373.321 251.873 373.111 251.584C372.904 251.294 372.787 250.959 372.759 250.576H373.634C373.656 250.84 373.745 251.059 373.9 251.232C374.057 251.403 374.255 251.53 374.494 251.614C374.736 251.696 374.995 251.737 375.273 251.737C375.596 251.737 375.887 251.685 376.144 251.58C376.401 251.473 376.605 251.325 376.755 251.136C376.906 250.945 376.981 250.722 376.981 250.467C376.981 250.235 376.916 250.046 376.786 249.9C376.656 249.754 376.485 249.636 376.274 249.545C376.062 249.454 375.833 249.374 375.587 249.306L374.727 249.06C374.18 248.903 373.748 248.678 373.429 248.387C373.11 248.095 372.951 247.714 372.951 247.243C372.951 246.851 373.056 246.51 373.268 246.218C373.482 245.924 373.769 245.697 374.129 245.535C374.491 245.371 374.895 245.289 375.341 245.289C375.792 245.289 376.193 245.37 376.544 245.532C376.894 245.691 377.172 245.91 377.377 246.187C377.584 246.465 377.693 246.781 377.705 247.133H376.885ZM384.821 247.571H383.974C383.924 247.327 383.837 247.113 383.711 246.929C383.589 246.744 383.438 246.589 383.261 246.464C383.085 246.337 382.891 246.241 382.677 246.177C382.463 246.113 382.239 246.082 382.007 246.082C381.584 246.082 381.2 246.189 380.856 246.403C380.515 246.617 380.243 246.932 380.04 247.349C379.84 247.765 379.739 248.276 379.739 248.882C379.739 249.488 379.84 249.999 380.04 250.416C380.243 250.832 380.515 251.148 380.856 251.362C381.2 251.576 381.584 251.683 382.007 251.683C382.239 251.683 382.463 251.651 382.677 251.587C382.891 251.523 383.085 251.429 383.261 251.304C383.438 251.176 383.589 251.02 383.711 250.836C383.837 250.649 383.924 250.435 383.974 250.194H384.821C384.758 250.551 384.642 250.871 384.473 251.153C384.305 251.436 384.095 251.676 383.845 251.874C383.594 252.07 383.313 252.219 383.001 252.321C382.691 252.424 382.36 252.475 382.007 252.475C381.411 252.475 380.88 252.329 380.416 252.038C379.951 251.746 379.586 251.332 379.319 250.795C379.053 250.257 378.92 249.62 378.92 248.882C378.92 248.144 379.053 247.507 379.319 246.969C379.586 246.432 379.951 246.018 380.416 245.726C380.88 245.435 381.411 245.289 382.007 245.289C382.36 245.289 382.691 245.34 383.001 245.443C383.313 245.545 383.594 245.696 383.845 245.894C384.095 246.089 384.305 246.329 384.473 246.611C384.642 246.891 384.758 247.211 384.821 247.571ZM386.19 252.379V245.385H388.554C389.1 245.385 389.549 245.478 389.899 245.665C390.25 245.849 390.509 246.103 390.678 246.426C390.846 246.75 390.931 247.117 390.931 247.53C390.931 247.942 390.846 248.307 390.678 248.626C390.509 248.945 390.251 249.195 389.903 249.377C389.554 249.557 389.109 249.647 388.567 249.647H386.655V248.882H388.54C388.913 248.882 389.214 248.827 389.442 248.718C389.672 248.609 389.838 248.454 389.94 248.254C390.045 248.051 390.097 247.81 390.097 247.53C390.097 247.25 390.045 247.005 389.94 246.795C389.835 246.586 389.668 246.424 389.438 246.31C389.208 246.194 388.904 246.136 388.526 246.136H387.037V252.379H386.19ZM389.483 249.237L391.204 252.379H390.22L388.526 249.237H389.483ZM393.189 245.385V252.379H392.342V245.385H393.189ZM394.887 252.379V245.385H397.251C397.799 245.385 398.248 245.484 398.596 245.682C398.947 245.878 399.207 246.143 399.375 246.478C399.544 246.812 399.628 247.186 399.628 247.598C399.628 248.01 399.544 248.385 399.375 248.722C399.209 249.059 398.952 249.327 398.603 249.528C398.255 249.726 397.809 249.825 397.264 249.825H395.57V249.073H397.237C397.613 249.073 397.914 249.008 398.142 248.879C398.37 248.749 398.535 248.574 398.637 248.353C398.742 248.13 398.794 247.878 398.794 247.598C398.794 247.318 398.742 247.067 398.637 246.847C398.535 246.626 398.369 246.453 398.139 246.327C397.909 246.2 397.604 246.136 397.223 246.136H395.734V252.379H394.887ZM400.61 246.136V245.385H405.856V246.136H403.656V252.379H402.809V246.136H400.61ZM355.902 257.385V264.379H355.055V257.385H355.902ZM363.502 260.882C363.502 261.62 363.369 262.257 363.102 262.795C362.836 263.332 362.471 263.746 362.006 264.038C361.542 264.329 361.011 264.475 360.415 264.475C359.818 264.475 359.288 264.329 358.823 264.038C358.359 263.746 357.993 263.332 357.727 262.795C357.46 262.257 357.327 261.62 357.327 260.882C357.327 260.144 357.46 259.507 357.727 258.969C357.993 258.432 358.359 258.018 358.823 257.726C359.288 257.435 359.818 257.289 360.415 257.289C361.011 257.289 361.542 257.435 362.006 257.726C362.471 258.018 362.836 258.432 363.102 258.969C363.369 259.507 363.502 260.144 363.502 260.882ZM362.682 260.882C362.682 260.276 362.581 259.765 362.378 259.349C362.178 258.932 361.906 258.617 361.562 258.403C361.221 258.189 360.838 258.082 360.415 258.082C359.991 258.082 359.607 258.189 359.264 258.403C358.922 258.617 358.65 258.932 358.447 259.349C358.247 259.765 358.147 260.276 358.147 260.882C358.147 261.488 358.247 261.999 358.447 262.416C358.65 262.832 358.922 263.148 359.264 263.362C359.607 263.576 359.991 263.683 360.415 263.683C360.838 263.683 361.221 263.576 361.562 263.362C361.906 263.148 362.178 262.832 362.378 262.416C362.581 261.999 362.682 261.488 362.682 260.882ZM370.473 257.385V264.379H369.653L365.842 258.888H365.773V264.379H364.926V257.385H365.746L369.571 262.89H369.639V257.385H370.473Z" fill="#758596"/>
<path d="M68.3784 108.902H57.9077C51.7337 108.902 46.7103 104.131 46.7103 98.2643V89.8457H51.3685V98.2643C51.3685 101.69 54.302 104.477 57.9077 104.477H68.3784C71.9842 104.477 74.9176 101.69 74.9176 98.2643V89.8457H79.5758V98.2643C79.5758 104.13 74.5524 108.902 68.3784 108.902Z" fill="#5B5A87"/>
<path d="M49.4523 89.7722H48.4772V75.499C48.4772 73.5787 50.1212 72.0168 52.1426 72.0168H55.622V72.9433H52.1426C50.6584 72.9433 49.4523 74.0898 49.4523 75.4999V89.7722Z" fill="#454966"/>
<path d="M77.8089 89.7721H76.8337V75.4989C76.8337 74.0888 75.6268 72.9423 74.1435 72.9423H70.6641V72.0159H74.1435C76.1649 72.0159 77.8089 73.5777 77.8089 75.4981V89.7721Z" fill="#454966"/>
<path d="M58.3834 74.1993H54.9822C54.0675 74.1993 53.3267 73.4955 53.3267 72.6266C53.3267 71.7577 54.0684 71.054 54.9822 71.054H58.3834V74.1993Z" fill="#5B5A87"/>
<path d="M58.3825 71.053H56.3962V74.1983H58.3825V71.053Z" fill="#444B76"/>
<path d="M67.9026 71.053H71.3039C72.2185 71.053 72.9593 71.7576 72.9593 72.6256C72.9593 73.4945 72.2177 74.1983 71.3039 74.1983H67.9026V71.053Z" fill="#5B5A87"/>
<path d="M69.889 71.053H67.9026V74.1983H69.889V71.053Z" fill="#444B76"/>
<path d="M63.6088 115.835H62.6775C61.3547 115.835 60.2821 114.816 60.2821 113.56V108.902H66.0041V113.56C66.0041 114.816 64.9315 115.835 63.6088 115.835Z" fill="#5B5A87"/>
<path d="M66.0041 108.902H60.2821V110.882H66.0041V108.902Z" fill="#444B76"/>
<path d="M79.466 145.599C77.3138 145.599 75.6408 144.01 75.6408 142.057V127.891C75.6408 126.548 74.4901 125.455 73.076 125.455C71.662 125.455 70.5113 126.548 70.5113 127.891V142.057C70.5113 144.01 68.8383 145.599 66.7826 145.599H66.2911C64.2345 145.599 62.5615 144.01 62.5615 142.057V115.835H63.7263V142.058C63.7263 143.401 64.877 144.493 66.2911 144.493H66.7826C68.1967 144.493 69.3474 143.4 69.3474 142.058V127.892C69.3474 125.938 71.0204 124.349 73.0769 124.349C75.1335 124.349 76.8065 125.938 76.8065 127.892V142.058C76.8065 143.401 77.9563 144.493 79.3704 144.493C80.881 144.493 82.0317 143.4 82.0317 142.058V114.896C82.0317 113.198 83.4861 111.815 85.2741 111.815H90.1658V112.922H85.2741C84.1286 112.922 83.1956 113.807 83.1956 114.896V142.058C83.1956 144.01 81.5226 145.599 79.466 145.599Z" fill="#454966"/>
<path d="M94.716 117.151C97.4966 117.151 99.7508 115.01 99.7508 112.368C99.7508 109.726 97.4966 107.585 94.716 107.585C91.9354 107.585 89.6813 109.726 89.6813 112.368C89.6813 115.01 91.9354 117.151 94.716 117.151Z" fill="#D9E5F1"/>
<path d="M94.716 114.318C95.8494 114.318 96.7682 113.445 96.7682 112.368C96.7682 111.292 95.8494 110.419 94.716 110.419C93.5827 110.419 92.6639 111.292 92.6639 112.368C92.6639 113.445 93.5827 114.318 94.716 114.318Z" fill="#C0C2E3"/>
<path d="M47.0065 158.838H44.848V151.844H47.1021C47.7806 151.844 48.3612 151.984 48.8439 152.264C49.3266 152.542 49.6966 152.941 49.9539 153.463C50.2112 153.982 50.3398 154.603 50.3398 155.327C50.3398 156.056 50.2101 156.683 49.9505 157.209C49.6909 157.733 49.313 158.136 48.8166 158.418C48.3202 158.698 47.7169 158.838 47.0065 158.838ZM45.695 158.087H46.9518C47.5302 158.087 48.0094 157.975 48.3897 157.752C48.7699 157.529 49.0534 157.212 49.2401 156.799C49.4268 156.387 49.5202 155.897 49.5202 155.327C49.5202 154.763 49.428 154.277 49.2435 153.869C49.0591 153.459 48.7836 153.145 48.417 152.926C48.0504 152.706 47.5939 152.595 47.0475 152.595H45.695V158.087ZM52.6076 151.844V158.838H51.7606V151.844H52.6076ZM54.5928 158.838H53.7048L56.2732 151.844H57.1475L59.7158 158.838H58.8278L56.7376 152.95H56.683L54.5928 158.838ZM54.9207 156.106H58.5V156.857H54.9207V156.106ZM65.2581 154.03C65.1829 153.8 65.0839 153.594 64.9609 153.411C64.8402 153.227 64.6957 153.07 64.5272 152.94C64.361 152.81 64.172 152.711 63.9602 152.643C63.7485 152.575 63.5162 152.54 63.2635 152.54C62.8491 152.54 62.4723 152.648 62.133 152.862C61.7938 153.076 61.524 153.391 61.3236 153.808C61.1232 154.224 61.023 154.735 61.023 155.341C61.023 155.947 61.1244 156.458 61.327 156.875C61.5296 157.291 61.804 157.607 62.1501 157.821C62.4962 158.035 62.8855 158.142 63.3181 158.142C63.7189 158.142 64.0718 158.056 64.3769 157.885C64.6843 157.712 64.9234 157.469 65.0941 157.155C65.2672 156.838 65.3537 156.466 65.3537 156.038L65.6133 156.092H63.5094V155.341H66.1734V156.092C66.1734 156.668 66.0504 157.169 65.8045 157.595C65.5609 158.021 65.2239 158.351 64.7936 158.586C64.3655 158.818 63.8737 158.934 63.3181 158.934C62.6988 158.934 62.1547 158.788 61.6856 158.497C61.2188 158.205 60.8545 157.791 60.5927 157.254C60.3331 156.716 60.2034 156.079 60.2034 155.341C60.2034 154.788 60.2774 154.29 60.4254 153.849C60.5756 153.405 60.7874 153.027 61.0606 152.715C61.3338 152.403 61.6572 152.164 62.0306 151.997C62.404 151.831 62.815 151.748 63.2635 151.748C63.6324 151.748 63.9762 151.804 64.2949 151.915C64.616 152.025 64.9017 152.181 65.1522 152.383C65.4049 152.584 65.6155 152.824 65.784 153.104C65.9525 153.382 66.0686 153.69 66.1324 154.03H65.2581ZM73.1706 151.844V158.838H72.3509L68.5393 153.347H68.471V158.838H67.624V151.844H68.4437L72.2689 157.349H72.3372V151.844H73.1706ZM80.7671 155.341C80.7671 156.079 80.6339 156.716 80.3675 157.254C80.1011 157.791 79.7357 158.205 79.2712 158.497C78.8067 158.788 78.2762 158.934 77.6797 158.934C77.0831 158.934 76.5526 158.788 76.0881 158.497C75.6236 158.205 75.2582 157.791 74.9918 157.254C74.7254 156.716 74.5922 156.079 74.5922 155.341C74.5922 154.603 74.7254 153.966 74.9918 153.428C75.2582 152.891 75.6236 152.477 76.0881 152.185C76.5526 151.894 77.0831 151.748 77.6797 151.748C78.2762 151.748 78.8067 151.894 79.2712 152.185C79.7357 152.477 80.1011 152.891 80.3675 153.428C80.6339 153.966 80.7671 154.603 80.7671 155.341ZM79.9474 155.341C79.9474 154.735 79.8461 154.224 79.6435 153.808C79.4431 153.391 79.171 153.076 78.8272 152.862C78.4857 152.648 78.1032 152.54 77.6797 152.54C77.2562 152.54 76.8725 152.648 76.5287 152.862C76.1872 153.076 75.9151 153.391 75.7124 153.808C75.5121 154.224 75.4119 154.735 75.4119 155.341C75.4119 155.947 75.5121 156.458 75.7124 156.875C75.9151 157.291 76.1872 157.607 76.5287 157.821C76.8725 158.035 77.2562 158.142 77.6797 158.142C78.1032 158.142 78.4857 158.035 78.8272 157.821C79.171 157.607 79.4431 157.291 79.6435 156.875C79.8461 156.458 79.9474 155.947 79.9474 155.341ZM48.6732 165.592C48.6322 165.246 48.466 164.978 48.1745 164.786C47.8831 164.595 47.5256 164.5 47.1021 164.5C46.7924 164.5 46.5215 164.55 46.2893 164.65C46.0593 164.75 45.8794 164.888 45.7496 165.063C45.6221 165.238 45.5584 165.438 45.5584 165.661C45.5584 165.847 45.6028 166.008 45.6916 166.142C45.7826 166.274 45.8988 166.385 46.0399 166.474C46.1811 166.56 46.3291 166.632 46.4839 166.689C46.6388 166.743 46.7811 166.788 46.9108 166.822L47.6212 167.013C47.8034 167.061 48.006 167.127 48.2292 167.211C48.4546 167.296 48.6697 167.411 48.8747 167.556C49.0819 167.7 49.2526 167.884 49.387 168.11C49.5213 168.335 49.5885 168.612 49.5885 168.939C49.5885 169.317 49.4894 169.659 49.2913 169.964C49.0955 170.269 48.8086 170.512 48.4307 170.692C48.055 170.871 47.5985 170.961 47.0611 170.961C46.5602 170.961 46.1265 170.881 45.7599 170.719C45.3956 170.557 45.1087 170.332 44.8992 170.043C44.692 169.753 44.5748 169.418 44.5474 169.035H45.4218C45.4445 169.299 45.5333 169.518 45.6882 169.691C45.8453 169.862 46.0434 169.989 46.2824 170.073C46.5238 170.155 46.7833 170.196 47.0611 170.196C47.3844 170.196 47.6747 170.144 47.932 170.039C48.1893 169.932 48.3931 169.784 48.5434 169.595C48.6937 169.404 48.7688 169.181 48.7688 168.926C48.7688 168.694 48.7039 168.505 48.5741 168.359C48.4443 168.213 48.2736 168.095 48.0618 168.004C47.8501 167.913 47.6212 167.833 47.3753 167.765L46.5147 167.519C45.9682 167.362 45.5356 167.137 45.2168 166.846C44.8981 166.554 44.7387 166.173 44.7387 165.702C44.7387 165.31 44.8446 164.969 45.0563 164.677C45.2703 164.383 45.5572 164.156 45.917 163.994C46.279 163.83 46.6832 163.748 47.1294 163.748C47.5803 163.748 47.981 163.829 48.3316 163.991C48.6823 164.15 48.9601 164.369 49.165 164.646C49.3722 164.924 49.4815 165.239 49.4928 165.592H48.6732ZM51.8281 163.844V170.838H50.9811V163.844H51.8281ZM57.3515 165.592C57.3106 165.246 57.1443 164.978 56.8529 164.786C56.5615 164.595 56.204 164.5 55.7805 164.5C55.4708 164.5 55.1999 164.55 54.9676 164.65C54.7377 164.75 54.5578 164.888 54.428 165.063C54.3005 165.238 54.2368 165.438 54.2368 165.661C54.2368 165.847 54.2812 166.008 54.37 166.142C54.461 166.274 54.5771 166.385 54.7183 166.474C54.8595 166.56 55.0075 166.632 55.1623 166.689C55.3171 166.743 55.4594 166.788 55.5892 166.822L56.2996 167.013C56.4818 167.061 56.6844 167.127 56.9075 167.211C57.133 167.296 57.3481 167.411 57.553 167.556C57.7602 167.7 57.931 167.884 58.0654 168.11C58.1997 168.335 58.2669 168.612 58.2669 168.939C58.2669 169.317 58.1678 169.659 57.9697 169.964C57.7739 170.269 57.487 170.512 57.1091 170.692C56.7334 170.871 56.2769 170.961 55.7395 170.961C55.2386 170.961 54.8048 170.881 54.4383 170.719C54.074 170.557 53.7871 170.332 53.5776 170.043C53.3704 169.753 53.2531 169.418 53.2258 169.035H54.1001C54.1229 169.299 54.2117 169.518 54.3665 169.691C54.5236 169.862 54.7217 169.989 54.9608 170.073C55.2022 170.155 55.4617 170.196 55.7395 170.196C56.0628 170.196 56.3531 170.144 56.6104 170.039C56.8677 169.932 57.0715 169.784 57.2218 169.595C57.372 169.404 57.4472 169.181 57.4472 168.926C57.4472 168.694 57.3823 168.505 57.2525 168.359C57.1227 168.213 56.9519 168.095 56.7402 168.004C56.5284 167.913 56.2996 167.833 56.0537 167.765L55.193 167.519C54.6466 167.362 54.214 167.137 53.8952 166.846C53.5765 166.554 53.4171 166.173 53.4171 165.702C53.4171 165.31 53.5229 164.969 53.7347 164.677C53.9487 164.383 54.2356 164.156 54.5954 163.994C54.9574 163.83 55.3615 163.748 55.8078 163.748C56.2586 163.748 56.6594 163.829 57.01 163.991C57.3607 164.15 57.6384 164.369 57.8434 164.646C58.0506 164.924 58.1598 165.239 58.1712 165.592H57.3515Z" fill="#758596"/>
<path d="M35.9369 204.028H33.5257V208.394H35.9369V204.028Z" fill="#A6446A"/>
<path d="M44.7363 204.028H42.3251V208.394H44.7363V204.028Z" fill="#A6446A"/>
<path d="M44.3229 207.666H33.9382C27.5368 207.666 22.1984 212.316 21.6454 218.374L20.772 227.933H57.489L56.6157 218.374C56.0627 212.316 50.7243 207.666 44.3229 207.666Z" fill="#FF546A"/>
<path d="M62.6098 227.934H15.6504V230.809H62.6098V227.934Z" fill="#A6446A"/>
<path d="M45.2109 223.975C48.5698 220.784 48.5698 215.61 45.2109 212.42C41.852 209.229 36.4062 209.229 33.0473 212.42C29.6884 215.61 29.6884 220.784 33.0473 223.975C36.4062 227.166 41.852 227.166 45.2109 223.975Z" fill="#F1E4E9"/>
<path d="M44.0893 222.91C46.8288 220.307 46.8288 216.088 44.0893 213.485C41.3499 210.883 36.9083 210.882 34.1688 213.485C31.4293 216.088 31.4293 220.307 34.1688 222.91C36.9083 225.512 41.3499 225.512 44.0893 222.91Z" fill="white"/>
<path d="M44.4423 216.875H40.524V213.153H37.7371V216.875H33.8198V219.523H37.7371V223.244H40.524V219.523H44.4423V216.875Z" fill="#FF546A"/>
<path d="M18.5901 201.481V202.4H28.8308V198.557C28.8308 197.351 29.8604 196.372 31.1305 196.372H46.9229C48.193 196.372 49.2226 197.351 49.2226 198.557V202.4H59.4632V201.481C59.4632 194.856 53.8097 189.486 46.836 189.486H31.2173C24.2437 189.486 18.5901 194.856 18.5901 201.481Z" fill="#FF546A"/>
<path d="M49.2224 198.558V202.4H59.4631V201.482C59.4631 200.017 59.1726 198.619 58.6661 197.321H48.816C49.0715 197.672 49.2224 198.098 49.2224 198.558Z" fill="#A6446A"/>
<path d="M28.8306 198.558C28.8306 198.098 28.9816 197.672 29.237 197.321H19.3861C18.8796 198.619 18.5891 200.016 18.5891 201.482V202.4H28.8298L28.8306 198.558Z" fill="#A6446A"/>
<path d="M23.3286 248.335V241.341H24.1756V244.455H27.9052V241.341H28.7522V248.335H27.9052V245.207H24.1756V248.335H23.3286ZM36.3496 244.838C36.3496 245.576 36.2164 246.213 35.95 246.75C35.6836 247.288 35.3182 247.702 34.8537 247.994C34.3892 248.285 33.8587 248.431 33.2622 248.431C32.6656 248.431 32.1351 248.285 31.6706 247.994C31.2061 247.702 30.8407 247.288 30.5743 246.75C30.3079 246.213 30.1747 245.576 30.1747 244.838C30.1747 244.1 30.3079 243.463 30.5743 242.925C30.8407 242.388 31.2061 241.974 31.6706 241.682C32.1351 241.391 32.6656 241.245 33.2622 241.245C33.8587 241.245 34.3892 241.391 34.8537 241.682C35.3182 241.974 35.6836 242.388 35.95 242.925C36.2164 243.463 36.3496 244.1 36.3496 244.838ZM35.5299 244.838C35.5299 244.232 35.4286 243.721 35.226 243.304C35.0256 242.888 34.7535 242.572 34.4097 242.358C34.0682 242.144 33.6857 242.037 33.2622 242.037C32.8387 242.037 32.455 242.144 32.1112 242.358C31.7696 242.572 31.4976 242.888 31.2949 243.304C31.0945 243.721 30.9944 244.232 30.9944 244.838C30.9944 245.444 31.0945 245.955 31.2949 246.371C31.4976 246.788 31.7696 247.103 32.1112 247.317C32.455 247.531 32.8387 247.638 33.2622 247.638C33.6857 247.638 34.0682 247.531 34.4097 247.317C34.7535 247.103 35.0256 246.788 35.226 246.371C35.4286 245.955 35.5299 245.444 35.5299 244.838ZM37.1001 242.092V241.341H42.3461V242.092H40.1466V248.335H39.2996V242.092H37.1001ZM43.6533 248.335V241.341H44.5003V247.584H47.7517V248.335H43.6533ZM24.1756 253.341V260.335H23.3286V253.341H24.1756ZM31.4204 253.341V260.335H30.6007L26.7892 254.843H26.7209V260.335H25.8739V253.341H26.6936L30.5188 258.846H30.5871V253.341H31.4204ZM33.1153 260.335V253.341H37.3367V254.092H33.9623V256.455H37.1181V257.207H33.9623V259.584H37.3913V260.335H33.1153Z" fill="#758596"/>
<path d="M359.106 95.9285H328.152V119.641H359.106V95.9285Z" fill="#FF546A"/>
<path d="M359.106 119.641H383.453V109.43L377.802 107.784L374.007 99.3372H359.106V119.641Z" fill="#A6446A"/>
<path d="M375.132 109.533H360.544V101.074H372.194L375.132 109.533Z" fill="white"/>
<path d="M345.303 115.8H333.667L331.338 119.641H347.633L345.303 115.8Z" fill="#6A446A"/>
<path d="M374.887 115.8H363.251L360.922 119.641H377.216L374.887 115.8Z" fill="#6A446A"/>
<path d="M339.485 124.289C342.188 124.289 344.379 122.208 344.379 119.64C344.379 117.073 342.188 114.992 339.485 114.992C336.783 114.992 334.592 117.073 334.592 119.64C334.592 122.208 336.783 124.289 339.485 124.289Z" fill="#454966"/>
<path d="M342.242 119.641C342.242 121.088 341.008 122.26 339.485 122.26C337.963 122.26 336.728 121.088 336.728 119.641C336.728 118.194 337.963 117.022 339.485 117.022C341.008 117.022 342.242 118.194 342.242 119.641Z" fill="#F2EBEB"/>
<path d="M373.962 119.64C373.962 122.208 371.771 124.289 369.069 124.289C366.366 124.289 364.176 122.208 364.176 119.64C364.176 117.073 366.367 114.992 369.069 114.992C371.771 114.992 373.962 117.073 373.962 119.64Z" fill="#454966"/>
<path d="M372.01 119.641C372.01 121.183 370.694 122.434 369.07 122.434C367.446 122.434 366.129 121.183 366.129 119.641C366.129 118.098 367.446 116.847 369.07 116.847C370.694 116.847 372.01 118.098 372.01 119.641Z" fill="#F2EBEB"/>
<path d="M379.909 112.21H383.453V109.43L379.909 108.398V112.21Z" fill="#FF746A"/>
<path d="M384.819 116.51H381.137V121.028H384.819V116.51Z" fill="#454966"/>
<path d="M330.572 116.51H326.89V121.028H330.572V116.51Z" fill="#454966"/>
<path d="M346.02 111.709C349.477 110.341 351.112 106.57 349.672 103.286C348.233 100.002 344.263 98.4488 340.806 99.8167C337.349 101.185 335.714 104.956 337.154 108.24C338.594 111.524 342.564 113.077 346.02 111.709Z" fill="white"/>
<path d="M347.248 104.66H344.378V101.934H342.165V104.66H339.295V106.763H342.165V109.489H344.378V106.763H347.248V104.66Z" fill="#FF546A"/>
<path d="M369.07 97.7288H362.599V99.3273H369.07V97.7288Z" fill="#6A446A"/>
<path d="M365.332 95.2786C364.331 95.2786 363.52 96.049 363.52 96.9996V97.7284H367.143V96.9996C367.143 96.049 366.332 95.2786 365.332 95.2786Z" fill="#65F5FF"/>
<path d="M330.043 137.373V130.378H334.264V131.13H330.89V133.493H334.046V134.245H330.89V136.622H334.319V137.373H330.043ZM335.791 130.378H336.802L339.179 136.185H339.261L341.638 130.378H342.649V137.373H341.856V132.059H341.788L339.602 137.373H338.837L336.651 132.059H336.583V137.373H335.791V130.378ZM344.347 137.373V130.378H348.568V131.13H345.194V133.493H348.35V134.245H345.194V136.622H348.623V137.373H344.347ZM350.095 137.373V130.378H352.459C353.005 130.378 353.454 130.472 353.804 130.658C354.155 130.843 354.414 131.097 354.583 131.42C354.751 131.743 354.836 132.111 354.836 132.523C354.836 132.935 354.751 133.301 354.583 133.62C354.414 133.938 354.156 134.189 353.808 134.371C353.459 134.551 353.014 134.641 352.472 134.641H350.56V133.876H352.445C352.818 133.876 353.119 133.821 353.347 133.712C353.576 133.603 353.743 133.448 353.845 133.247C353.95 133.045 354.002 132.803 354.002 132.523C354.002 132.243 353.95 131.998 353.845 131.789C353.74 131.579 353.573 131.418 353.343 131.304C353.113 131.188 352.809 131.13 352.431 131.13H350.942V137.373H350.095ZM353.388 134.231L355.109 137.373H354.125L352.431 134.231H353.388ZM361.028 132.564C360.953 132.334 360.854 132.128 360.731 131.946C360.611 131.762 360.466 131.605 360.298 131.475C360.131 131.345 359.942 131.246 359.731 131.178C359.519 131.109 359.287 131.075 359.034 131.075C358.62 131.075 358.243 131.182 357.903 131.396C357.564 131.61 357.294 131.926 357.094 132.342C356.894 132.759 356.793 133.27 356.793 133.876C356.793 134.481 356.895 134.993 357.097 135.409C357.3 135.826 357.574 136.141 357.921 136.355C358.267 136.569 358.656 136.676 359.089 136.676C359.489 136.676 359.842 136.591 360.147 136.42C360.455 136.247 360.694 136.003 360.865 135.689C361.038 135.373 361.124 135.001 361.124 134.572L361.384 134.627H359.28V133.876H361.944V134.627C361.944 135.203 361.821 135.704 361.575 136.13C361.331 136.556 360.994 136.886 360.564 137.12C360.136 137.353 359.644 137.469 359.089 137.469C358.469 137.469 357.925 137.323 357.456 137.032C356.989 136.74 356.625 136.326 356.363 135.788C356.104 135.251 355.974 134.613 355.974 133.876C355.974 133.322 356.048 132.825 356.196 132.383C356.346 131.939 356.558 131.561 356.831 131.249C357.104 130.937 357.428 130.698 357.801 130.532C358.174 130.366 358.585 130.283 359.034 130.283C359.403 130.283 359.747 130.339 360.065 130.45C360.386 130.559 360.672 130.715 360.923 130.918C361.175 131.118 361.386 131.359 361.554 131.639C361.723 131.916 361.839 132.225 361.903 132.564H361.028ZM363.394 137.373V130.378H367.616V131.13H364.241V133.493H367.397V134.245H364.241V136.622H367.67V137.373H363.394ZM335.589 142.378V149.373H334.77L330.958 143.881H330.89V149.373H330.043V142.378H330.862L334.688 147.884H334.756V142.378H335.589ZM342.913 144.564H342.066C342.016 144.321 341.928 144.107 341.803 143.922C341.68 143.738 341.529 143.583 341.352 143.458C341.177 143.33 340.982 143.235 340.768 143.171C340.554 143.107 340.331 143.075 340.098 143.075C339.675 143.075 339.291 143.182 338.947 143.396C338.606 143.61 338.334 143.926 338.131 144.342C337.931 144.759 337.831 145.27 337.831 145.876C337.831 146.481 337.931 146.993 338.131 147.409C338.334 147.826 338.606 148.141 338.947 148.355C339.291 148.569 339.675 148.676 340.098 148.676C340.331 148.676 340.554 148.644 340.768 148.581C340.982 148.517 341.177 148.422 341.352 148.297C341.529 148.17 341.68 148.014 341.803 147.829C341.928 147.643 342.016 147.429 342.066 147.187H342.913C342.849 147.545 342.733 147.865 342.564 148.147C342.396 148.429 342.186 148.669 341.936 148.868C341.685 149.063 341.404 149.213 341.092 149.315C340.783 149.417 340.451 149.469 340.098 149.469C339.502 149.469 338.971 149.323 338.507 149.032C338.042 148.74 337.677 148.326 337.411 147.788C337.144 147.251 337.011 146.613 337.011 145.876C337.011 145.138 337.144 144.5 337.411 143.963C337.677 143.426 338.042 143.011 338.507 142.72C338.971 142.429 339.502 142.283 340.098 142.283C340.451 142.283 340.783 142.334 341.092 142.436C341.404 142.539 341.685 142.689 341.936 142.887C342.186 143.083 342.396 143.322 342.564 143.605C342.733 143.885 342.849 144.204 342.913 144.564ZM343.68 142.378H344.65L346.59 145.643H346.672L348.612 142.378H349.582L347.055 146.49V149.373H346.208V146.49L343.68 142.378Z" fill="#758596"/>
<path d="M181.365 68.3191H139.243C138.024 68.3191 137.037 67.3802 137.037 66.2228V42.7555C137.037 41.5973 138.025 40.6592 139.243 40.6592H181.365C182.584 40.6592 183.571 41.5981 183.571 42.7555V66.2228C183.571 67.3802 182.584 68.3191 181.365 68.3191Z" fill="#FF546A"/>
<path d="M171.381 56.2002C172.378 50.387 168.225 44.9068 162.106 43.9598C155.987 43.0127 150.218 46.9574 149.222 52.7706C148.225 58.5837 152.377 64.0639 158.496 65.011C164.615 65.958 170.384 62.0133 171.381 56.2002Z" fill="#F1E4E9"/>
<path d="M160.304 63.7597C165.694 63.7597 170.063 59.609 170.063 54.4889C170.063 49.3687 165.694 45.218 160.304 45.218C154.914 45.218 150.545 49.3687 150.545 54.4889C150.545 59.609 154.914 63.7597 160.304 63.7597Z" fill="white"/>
<path d="M166.828 53.0039H161.867V48.2917H158.741V53.0039H153.78V55.9749H158.741V60.6871H161.867V55.9749H166.828V53.0039Z" fill="#FF546A"/>
<path d="M148.991 38.4155H145.122C144.763 38.4155 144.472 38.6924 144.472 39.0334V40.6586H149.642V39.0334C149.641 38.6924 149.35 38.4155 148.991 38.4155Z" fill="#8C476A"/>
<path d="M175.485 38.4155H171.617C171.258 38.4155 170.967 38.6924 170.967 39.0334V40.6586H176.137V39.0334C176.137 38.6924 175.845 38.4155 175.485 38.4155Z" fill="#8C476A"/>
<path d="M173.917 38.4163H173.186V31.8129C173.186 30.9974 172.488 30.3345 171.629 30.3345H148.978C148.12 30.3345 147.422 30.9974 147.422 31.8129V38.4163H146.691V31.8129C146.691 30.6147 147.717 29.6399 148.978 29.6399H171.629C172.891 29.6399 173.917 30.6147 173.917 31.8129V38.4163Z" fill="#454966"/>
<path d="M168.066 28.5569H152.542V31.417H168.066V28.5569Z" fill="#FF546A"/>
<path d="M141.845 84.95V77.9553H146.039V78.7067H142.692V81.0701H145.724V81.8215H142.692V84.95H141.845ZM148.336 77.9553V84.95H147.489V77.9553H148.336ZM150.035 84.95V77.9553H152.398C152.944 77.9553 153.393 78.0487 153.744 78.2354C154.094 78.4198 154.354 78.6737 154.522 78.997C154.691 79.3203 154.775 79.688 154.775 80.1002C154.775 80.5123 154.691 80.8777 154.522 81.1965C154.354 81.5153 154.095 81.7657 153.747 81.9479C153.399 82.1277 152.954 82.2177 152.412 82.2177H150.499V81.4526H152.384C152.758 81.4526 153.058 81.398 153.286 81.2887C153.516 81.1794 153.682 81.0246 153.785 80.8242C153.889 80.6216 153.942 80.3802 153.942 80.1002C153.942 79.8201 153.889 79.5753 153.785 79.3659C153.68 79.1564 153.513 78.9947 153.283 78.8809C153.053 78.7648 152.749 78.7067 152.371 78.7067H150.882V84.95H150.035ZM153.327 81.8078L155.048 84.95H154.065L152.371 81.8078H153.327ZM160.012 79.704C159.971 79.3579 159.804 79.0892 159.513 78.898C159.222 78.7067 158.864 78.6111 158.441 78.6111C158.131 78.6111 157.86 78.6612 157.628 78.7614C157.398 78.8615 157.218 78.9993 157.088 79.1746C156.961 79.3499 156.897 79.5492 156.897 79.7723C156.897 79.959 156.941 80.1195 157.03 80.2539C157.121 80.3859 157.237 80.4963 157.378 80.5851C157.52 80.6717 157.668 80.7434 157.822 80.8003C157.977 80.855 158.12 80.8994 158.249 80.9335L158.96 81.1248C159.142 81.1726 159.345 81.2386 159.568 81.3229C159.793 81.4071 160.008 81.5221 160.213 81.6678C160.42 81.8113 160.591 81.9957 160.725 82.2211C160.86 82.4465 160.927 82.7231 160.927 83.051C160.927 83.429 160.828 83.7705 160.63 84.0756C160.434 84.3807 160.147 84.6232 159.769 84.8031C159.394 84.983 158.937 85.0729 158.4 85.0729C157.899 85.0729 157.465 84.9921 157.098 84.8304C156.734 84.6688 156.447 84.4433 156.238 84.1542C156.031 83.865 155.913 83.5292 155.886 83.1467H156.76C156.783 83.4108 156.872 83.6294 157.027 83.8024C157.184 83.9732 157.382 84.1007 157.621 84.1849C157.862 84.2669 158.122 84.3079 158.4 84.3079C158.723 84.3079 159.013 84.2555 159.271 84.1508C159.528 84.0437 159.732 83.8957 159.882 83.7068C160.032 83.5155 160.107 83.2924 160.107 83.0374C160.107 82.8051 160.042 82.6161 159.913 82.4704C159.783 82.3247 159.612 82.2063 159.4 82.1152C159.189 82.0241 158.96 81.9445 158.714 81.8761L157.853 81.6302C157.307 81.4731 156.874 81.2489 156.555 80.9574C156.237 80.666 156.077 80.2846 156.077 79.8133C156.077 79.4217 156.183 79.0801 156.395 78.7887C156.609 78.495 156.896 78.2673 157.255 78.1056C157.618 77.9417 158.022 77.8597 158.468 77.8597C158.919 77.8597 159.32 77.9405 159.67 78.1022C160.021 78.2616 160.299 78.4802 160.503 78.7579C160.711 79.0357 160.82 79.3511 160.831 79.704H160.012ZM161.937 78.7067V77.9553H167.183V78.7067H164.984V84.95H164.137V78.7067H161.937ZM142.132 96.95H141.244L143.812 89.9553H144.686L147.255 96.95H146.367L144.276 91.0619H144.222L142.132 96.95ZM142.459 94.2177H146.039V94.9691H142.459V94.2177ZM149.191 89.9553V96.95H148.344V89.9553H149.191ZM153.048 96.95H150.889V89.9553H153.143C153.822 89.9553 154.403 90.0954 154.885 90.3754C155.368 90.6532 155.738 91.0528 155.995 91.5742C156.253 92.0933 156.381 92.7149 156.381 93.439C156.381 94.1676 156.251 94.7949 155.992 95.3208C155.732 95.8445 155.354 96.2475 154.858 96.5299C154.362 96.8099 153.758 96.95 153.048 96.95ZM151.736 96.1986H152.993C153.571 96.1986 154.051 96.087 154.431 95.8639C154.811 95.6407 155.095 95.3231 155.281 94.911C155.468 94.4989 155.561 94.0082 155.561 93.439C155.561 92.8743 155.469 92.3882 155.285 91.9806C155.1 91.5708 154.825 91.2566 154.458 91.038C154.092 90.8171 153.635 90.7067 153.089 90.7067H151.736V96.1986Z" fill="#758596"/>
<path d="M293.783 65.4991L280.632 48.1948C279.261 46.3912 278.524 44.224 278.524 42.0001V23.917H273.354V41.9992C273.354 44.2231 272.617 46.3903 271.246 48.194L258.095 65.4982C256.678 67.3627 258.08 69.9677 260.5 69.9677H291.377C293.798 69.9685 295.2 67.3636 293.783 65.4991Z" fill="#C7F5FF"/>
<path d="M293.783 65.499L280.632 48.1948C279.261 46.392 278.523 44.224 278.523 42.0001V23.917H275.285V42.0001C275.285 44.224 276.023 46.3912 277.393 48.1948L290.544 65.499C291.961 67.3636 290.559 69.9685 288.138 69.9685H291.376C293.798 69.9685 295.2 67.3636 293.783 65.499Z" fill="#BCEBFF"/>
<path d="M279.086 20.4675H272.791C271.789 20.4675 270.976 21.2397 270.976 22.192C270.976 23.1442 271.789 23.9172 272.791 23.9172H279.086C280.088 23.9172 280.901 23.1451 280.901 22.192C280.902 21.2405 280.089 20.4675 279.086 20.4675Z" fill="#CDF5FF"/>
<path d="M258.095 65.4994C256.678 67.3639 258.08 69.9689 260.5 69.9689H291.377C293.798 69.9689 295.2 67.3639 293.783 65.4994L286.038 55.3088H265.839L258.095 65.4994Z" fill="#90F5FF"/>
<path d="M294.016 65.857C293.95 65.7353 293.872 65.616 293.783 65.4993L286.038 55.3079H282.8L290.545 65.4993C291.962 67.3638 290.56 69.9688 288.139 69.9688H291.377C291.68 69.9688 291.966 69.9279 292.234 69.8529C292.5 69.7778 292.749 69.6694 292.974 69.5327C293.311 69.3275 293.597 69.0607 293.819 68.753C294.411 67.9333 294.552 66.8293 294.016 65.857Z" fill="#77E0FF"/>
<path d="M271.785 59.2711C271.785 60.361 270.854 61.2449 269.707 61.2449C268.56 61.2449 267.63 60.361 267.63 59.2711C267.63 58.1813 268.56 57.2974 269.707 57.2974C270.854 57.2974 271.785 58.1813 271.785 59.2711Z" fill="#76DBFF"/>
<path d="M286.326 65.5187C286.326 66.6085 285.396 67.4924 284.249 67.4924C283.102 67.4924 282.171 66.6085 282.171 65.5187C282.171 64.4288 283.102 63.5449 284.249 63.5449C285.396 63.5449 286.326 64.4288 286.326 65.5187Z" fill="#76DBFF"/>
<path d="M281.321 60.426C281.321 61.1081 280.739 61.6601 280.022 61.6601C279.305 61.6601 278.723 61.1073 278.723 60.426C278.723 59.7447 279.305 59.1919 280.022 59.1919C280.739 59.1919 281.321 59.7447 281.321 60.426Z" fill="#76DBFF"/>
<path d="M274.383 65.115C274.383 65.7962 273.801 66.3491 273.084 66.3491C272.366 66.3491 271.785 65.7962 271.785 65.115C271.785 64.4329 272.367 63.8809 273.084 63.8809C273.802 63.8809 274.383 64.4337 274.383 65.115Z" fill="#76DBFF"/>
<path d="M266.076 66.3496C266.076 67.3369 265.233 68.1374 264.194 68.1374C263.155 68.1374 262.312 67.3369 262.312 66.3496C262.312 65.3623 263.155 64.5618 264.194 64.5618C265.233 64.5618 266.076 65.3623 266.076 66.3496Z" fill="#76DBFF"/>
<path d="M259.89 43.1787C258.684 42.3815 258.386 40.8064 259.225 39.6598L262.147 35.6689C262.986 34.5232 264.644 34.2397 265.851 35.0369C267.057 35.834 267.356 37.4092 266.517 38.5558L263.595 42.5466C262.755 43.6932 261.097 43.9759 259.89 43.1787Z" fill="#A6446A"/>
<path d="M259.89 43.1786C258.684 42.3814 258.386 40.8063 259.225 39.6597L260.686 37.6643L265.054 40.5511L263.594 42.5466C262.755 43.6931 261.097 43.9758 259.89 43.1786Z" fill="#FF546A"/>
<path d="M296.37 59.9734C295.164 59.1762 294.865 57.601 295.704 56.4545L298.626 52.4636C299.465 51.3179 301.124 51.0344 302.33 51.8316C303.536 52.6287 303.835 54.2039 302.996 55.3504L300.073 59.3413C299.234 60.4879 297.576 60.7705 296.37 59.9734Z" fill="#FF546A"/>
<path d="M296.37 59.9735C295.164 59.1764 294.865 57.6012 295.704 56.4547L297.165 54.4592L301.533 57.346L300.073 59.3415C299.234 60.488 297.576 60.7707 296.37 59.9735Z" fill="#A6446A"/>
<path d="M257.522 57.8897C258.325 59.5857 257.529 61.5795 255.744 62.3425C253.959 63.1055 251.86 62.3491 251.057 60.6539C250.254 58.9578 251.05 56.9641 252.835 56.2011C254.62 55.4373 256.719 56.1936 257.522 57.8897Z" fill="#FF546A"/>
<path d="M252.835 56.2001C251.05 56.9631 250.254 58.9569 251.057 60.6529L257.522 57.8887C256.719 56.1935 254.62 55.4371 252.835 56.2001Z" fill="#FFB527"/>
<path d="M294.037 41.0948C294.84 42.7909 294.044 44.7847 292.258 45.5476C290.473 46.3106 288.374 45.5543 287.571 43.8582C286.768 42.1622 287.564 40.1684 289.349 39.4054C291.135 38.6425 293.233 39.3988 294.037 41.0948Z" fill="#FFB527"/>
<path d="M289.349 39.4054C287.564 40.1684 286.768 42.1622 287.571 43.8583L294.037 41.094C293.233 39.3988 291.135 38.6425 289.349 39.4054Z" fill="#FF546A"/>
<path d="M257.394 77.9551H258.405L260.782 83.7612H260.864L263.241 77.9551H264.252V84.9497H263.459V79.6354H263.391L261.205 84.9497H260.44L258.254 79.6354H258.186V84.9497H257.394V77.9551ZM265.95 84.9497V77.9551H270.171V78.7065H266.797V81.0699H269.953V81.8213H266.797V84.1983H270.226V84.9497H265.95ZM273.857 84.9497H271.698V77.9551H273.952C274.631 77.9551 275.211 78.0951 275.694 78.3752C276.177 78.653 276.547 79.0526 276.804 79.574C277.061 80.0931 277.19 80.7147 277.19 81.4387C277.19 82.1673 277.06 82.7946 276.801 83.3206C276.541 83.8443 276.163 84.2473 275.667 84.5296C275.17 84.8097 274.567 84.9497 273.857 84.9497ZM272.545 84.1983H273.802C274.38 84.1983 274.86 84.0868 275.24 83.8636C275.62 83.6405 275.904 83.3229 276.09 82.9107C276.277 82.4986 276.37 82.008 276.37 81.4387C276.37 80.8741 276.278 80.3879 276.094 79.9804C275.909 79.5705 275.634 79.2563 275.267 79.0378C274.901 78.8169 274.444 78.7065 273.898 78.7065H272.545V84.1983ZM279.458 77.9551V84.9497H278.611V77.9551H279.458ZM286.785 80.1409H285.938C285.887 79.8973 285.8 79.6833 285.675 79.4988C285.552 79.3144 285.401 79.1596 285.224 79.0343C285.048 78.9068 284.854 78.8112 284.64 78.7474C284.426 78.6837 284.203 78.6518 283.97 78.6518C283.547 78.6518 283.163 78.7588 282.819 78.9729C282.478 79.1869 282.206 79.5022 282.003 79.9189C281.803 80.3356 281.703 80.8467 281.703 81.4524C281.703 82.0581 281.803 82.5692 282.003 82.9859C282.206 83.4026 282.478 83.7179 282.819 83.9319C283.163 84.146 283.547 84.253 283.97 84.253C284.203 84.253 284.426 84.2211 284.64 84.1573C284.854 84.0936 285.048 83.9991 285.224 83.8739C285.401 83.7464 285.552 83.5904 285.675 83.406C285.8 83.2193 285.887 83.0052 285.938 82.7639H286.785C286.721 83.1214 286.605 83.4413 286.436 83.7236C286.268 84.0059 286.058 84.2461 285.808 84.4442C285.557 84.64 285.276 84.7892 284.964 84.8916C284.655 84.9941 284.323 85.0453 283.97 85.0453C283.374 85.0453 282.843 84.8996 282.379 84.6082C281.914 84.3167 281.549 83.9023 281.282 83.365C281.016 82.8276 280.883 82.1901 280.883 81.4524C280.883 80.7147 281.016 80.0772 281.282 79.5398C281.549 79.0025 281.914 78.5881 282.379 78.2966C282.843 78.0052 283.374 77.8595 283.97 77.8595C284.323 77.8595 284.655 77.9107 284.964 78.0131C285.276 78.1156 285.557 78.2659 285.808 78.464C286.058 78.6598 286.268 78.8989 286.436 79.1812C286.605 79.4613 286.721 79.7812 286.785 80.1409ZM258.241 89.9551V96.9497H257.394V89.9551H258.241ZM265.486 89.9551V96.9497H264.666L260.854 91.4578H260.786V96.9497H259.939V89.9551H260.759L264.584 95.4606H264.652V89.9551H265.486ZM267.18 96.9497V89.9551H271.402V90.7065H268.027V93.0699H271.183V93.8213H268.027V96.1983H271.456V96.9497H267.18Z" fill="#758596"/>
<path d="M160.304 68.3191H181.365C182.583 68.3191 183.571 67.3802 183.571 66.2228V42.7555C183.571 41.5973 182.583 40.6592 181.365 40.6592H179.963C179.963 40.6592 182.134 64.7402 160.304 68.3191Z" fill="#C7476A"/>
<path d="M181.365 68.3192C182.583 68.3192 183.571 67.3803 183.571 66.2229V51.833C181.904 57.2873 178.565 65.0714 172.555 68.3192H181.365Z" fill="#A9476A"/>
<path d="M113.119 227.628L104.673 212.734L72.5898 212.732V211.807L105.256 211.808L113.978 227.189L113.119 227.628Z" fill="#5E9DA6"/>
<path d="M323.123 227.628L322.265 227.189L330.986 211.808L355.854 211.807V212.732L331.569 212.734L323.123 227.628Z" fill="#5E9DA6"/>
<path d="M174.845 161.829L144.673 114.504H114.118V113.577H145.222L175.679 161.35L174.845 161.829Z" fill="#5E9DA6"/>
<path d="M261.398 161.829L260.565 161.35L291.021 113.577H316.302V114.504H291.57L261.398 161.829Z" fill="#5E9DA6"/>
<path d="M208.219 118.669L197.286 54.1305H190.176V53.2041H198.116L209.182 118.521L208.219 118.669Z" fill="#5E9DA6"/>
<path d="M228.023 118.669L227.061 118.521L238.127 53.2041H246.066V54.1305H238.957L228.023 118.669Z" fill="#5E9DA6"/>
</g>
<defs>
<clipPath id="clip0_17_2211">
<rect width="400" height="380" fill="white"/>
</clipPath>
</defs>
</svg>
