<svg width="410" height="395" viewBox="0 0 410 395" fill="none" xmlns="http://www.w3.org/2000/svg">
<path d="M339.103 394.329C339.103 394.329 353.042 363.485 389.991 261.104C426.94 158.723 412.876 38.1727 346.472 26.5813C280.068 14.9899 228.505 64.3454 228.505 64.3454C228.505 64.3454 154.441 34.6535 95.3228 54.9592C36.2043 75.2648 42.0221 174.77 42.0221 174.77C42.0221 174.77 2.90626 193.241 0.154153 240.938C-3.56833 305.455 61.3619 394.061 61.3619 394.061L339.103 394.329Z" fill="#F4FDFF"/>
<mask id="mask0_13_1634" style="mask-type:luminance" maskUnits="userSpaceOnUse" x="57" y="57" width="277" height="280">
<path d="M292.857 295.455C346.771 241.063 346.771 152.877 292.857 98.4848C238.944 44.0931 151.533 44.0931 97.6191 98.4848C43.7055 152.877 43.7055 241.063 97.619 295.455C151.533 349.846 238.944 349.846 292.857 295.455Z" fill="white"/>
</mask>
<g mask="url(#mask0_13_1634)">
<path d="M322.828 128.869H271.31C270.077 128.869 269.078 127.86 269.078 126.616V87.693C269.078 86.4495 270.077 85.4409 271.31 85.4409H322.828C324.061 85.4409 325.06 86.4495 325.06 87.693V126.616C325.06 127.86 324.061 128.869 322.828 128.869Z" fill="#E1ECFF"/>
</g>
<mask id="mask1_13_1634" style="mask-type:luminance" maskUnits="userSpaceOnUse" x="57" y="57" width="277" height="280">
<path d="M292.857 295.455C346.771 241.063 346.771 152.877 292.857 98.4848C238.944 44.0931 151.533 44.0931 97.6191 98.4848C43.7055 152.877 43.7055 241.063 97.619 295.455C151.533 349.846 238.944 349.846 292.857 295.455Z" fill="white"/>
</mask>
<g mask="url(#mask1_13_1634)">
<path d="M295.05 136.764L295.119 120.694H282.703V128.869C282.703 128.869 287.881 129.12 290.735 131.19C293.566 133.246 295.05 136.764 295.05 136.764Z" fill="#E1ECFF"/>
</g>
<mask id="mask2_13_1634" style="mask-type:luminance" maskUnits="userSpaceOnUse" x="57" y="57" width="277" height="280">
<path d="M292.857 295.455C346.771 241.063 346.771 152.877 292.857 98.4848C238.944 44.0931 151.533 44.0931 97.6191 98.4848C43.7055 152.877 43.7055 241.063 97.619 295.455C151.533 349.846 238.944 349.846 292.857 295.455Z" fill="white"/>
</mask>
<g mask="url(#mask2_13_1634)">
<path d="M313.526 168.322C314.078 170.189 309.469 177.709 308.463 179.008C308.387 179.106 308.29 179.182 308.182 179.248C307.987 179.532 307.792 179.739 307.63 179.848C305.975 180.961 298.239 180.033 294.55 178.942C290.872 177.851 283.504 172.6 283.504 172.6L240.759 164.579L240.261 168.944L224.985 168.137C224.985 168.137 225.31 185.786 224.942 215.518C224.92 217.265 224.888 219.207 224.856 221.303C224.262 254.941 221.816 330.331 221.816 330.331L221.524 330.385C223.396 331.607 225.354 333.747 228.816 339.434C232.581 345.622 225.516 352.324 216.915 343.286C212.381 338.517 210.9 335.526 210.716 332.35L210.586 332.371L202.829 243.12L199.031 244.125L199.345 331.63H199.324C200.199 334.217 199.107 337.818 197.874 339.205C195.884 341.464 194.033 343.145 187.478 346.495C180.316 350.141 175.426 343.592 181.83 337.295C184.243 334.926 186.558 333.026 188.592 331.63H188.484C188.484 331.63 177.438 257.551 175.415 230.427C175.209 227.654 175.026 224.784 174.874 221.848C174.117 207.539 173.456 191.723 173.023 180.503C173.013 180.406 173.013 180.35 173.013 180.35C172.667 171.498 172.462 165.539 172.462 165.539H155.335L155.043 158.662L116.604 165.998L116.041 166.118C116.041 166.118 112.59 166.29 109.319 169.12C106.061 171.941 98.0671 173.965 94.8062 175.062C94.0054 175.328 91.9431 174.875 92.358 173.733C92.6169 173.036 93.7615 171.985 91.9451 172.909C91.1854 173.299 89.9128 171.965 90.7535 170.804C91.5072 169.755 90.9924 169.885 90.1897 170.272C89.169 170.766 87.8365 168.964 89.185 167.638C89.7788 167.066 90.4126 166.222 89.097 166.828C87.6675 167.486 86.5209 166.286 87.7505 164.542C88.8531 162.971 89.6848 162.303 91.0694 161.354C93.7585 159.492 100.144 157.855 100.144 157.855C100.144 157.855 98.271 156.336 96.7025 155.42C95.124 154.503 95.418 151.736 97.0744 151.914C98.7209 152.092 101.771 152.98 105.544 154.134C109.305 155.287 115.194 158.139 115.194 158.139L116.604 159.568L154.33 141.765L188.495 125.634L192.909 123.549V114.817L192.768 114.774L191.74 114.403L191.686 114.381C190.388 113.824 188.17 112.678 185.541 110.451C184.773 109.796 184.146 108.89 183.659 107.81C183.648 107.778 183.627 107.744 183.616 107.723C183.606 107.68 183.584 107.658 183.584 107.636C183.573 107.613 183.573 107.602 183.573 107.602C180.36 100.071 183.108 84.0367 185.174 77.2916C185.661 75.7193 186.343 74.3558 187.166 73.199C186.202 70.6555 185.272 67.1518 186.321 65.0349C188.117 61.4112 192.607 62.6557 192.607 62.6557C192.607 62.6557 191.525 57.5041 194.035 54.8628C196.546 52.2103 211.043 50.9557 215.467 54.8628C219.882 58.7598 219.059 64.4681 219.059 64.4681C219.059 64.4681 222.229 64.0536 225.269 66.5638C228.309 69.0741 225.269 75.7546 225.269 75.7546C225.269 75.7546 229.164 77.3592 229.424 80.5028C229.673 83.4498 223.171 89.4859 220.25 95.0631C221.212 96.5043 221.948 98.9813 221.374 101.176C220.531 102.191 219.481 102.9 218.41 103.369C218.388 103.861 218.388 104.33 218.377 104.799C218.312 107.954 218.258 110.617 216.159 112.821C213.325 115.801 206.974 118.028 202.809 117.733L202.668 123.987L208.965 127.251L243.022 144.867L284.437 166.303C284.437 166.303 284.437 166.292 284.448 166.292C284.675 166.03 287.412 162.886 289.976 161.729C291.999 160.813 296.522 159.645 299.172 158.957L303.488 149.559L314.275 154.602L310.347 163.17C310.455 163.267 310.563 163.377 310.672 163.497C310.67 163.498 312.974 166.467 313.526 168.322Z" fill="#E1ECFF"/>
</g>
<mask id="mask3_13_1634" style="mask-type:luminance" maskUnits="userSpaceOnUse" x="57" y="57" width="277" height="280">
<path d="M292.857 295.455C346.771 241.063 346.771 152.877 292.857 98.4848C238.944 44.0931 151.533 44.0931 97.6191 98.4848C43.7055 152.877 43.7055 241.063 97.619 295.455C151.533 349.846 238.944 349.846 292.857 295.455Z" fill="white"/>
</mask>
<g mask="url(#mask3_13_1634)">
<path d="M274.254 308.889C274.254 318.331 266.669 325.982 257.312 325.982C247.954 325.982 240.369 318.33 240.369 308.889C240.369 302.101 244.296 296.239 249.976 293.467C249.954 293.216 249.943 292.965 249.943 292.714V196.87C249.943 192.864 253.167 189.612 257.138 189.612H257.484C261.454 189.612 264.678 192.864 264.678 196.87V292.714C264.678 292.965 264.667 293.216 264.645 293.467C270.326 296.239 274.254 302.101 274.254 308.889Z" fill="#E1ECFF"/>
<path d="M257.311 327.619C247.074 327.619 238.746 319.217 238.746 308.891C238.746 302.107 242.47 295.785 248.321 292.494V196.872C248.321 191.968 252.276 187.978 257.139 187.978H257.485C262.346 187.978 266.301 191.968 266.301 196.872V292.493C272.153 295.785 275.877 302.108 275.877 308.892C275.877 319.217 267.548 327.619 257.311 327.619ZM257.138 191.25C254.064 191.25 251.565 193.772 251.565 196.871V292.714C251.565 292.916 251.575 293.118 251.592 293.32L251.694 294.447L250.684 294.941C245.322 297.558 241.991 302.903 241.991 308.89C241.991 317.412 248.864 324.346 257.311 324.346C265.759 324.346 272.633 317.412 272.633 308.89C272.633 302.994 269.22 297.519 263.94 294.941L262.93 294.447L263.032 293.32C263.05 293.118 263.058 292.916 263.058 292.714V196.871C263.058 193.772 260.558 191.25 257.486 191.25H257.138Z" fill="#E1ECFF"/>
</g>
<mask id="mask4_13_1634" style="mask-type:luminance" maskUnits="userSpaceOnUse" x="57" y="57" width="277" height="280">
<path d="M292.857 295.455C346.771 241.063 346.771 152.877 292.857 98.4848C238.944 44.0931 151.533 44.0931 97.6191 98.4848C43.7055 152.877 43.7055 241.063 97.619 295.455C151.533 349.846 238.944 349.846 292.857 295.455Z" fill="white"/>
</mask>
<g mask="url(#mask4_13_1634)">
<path d="M316.977 308.889C316.977 318.331 309.393 325.982 300.035 325.982C290.676 325.982 283.092 318.33 283.092 308.889C283.092 302.101 287.02 296.239 292.699 293.467C292.678 293.216 292.667 292.965 292.667 292.714V196.87C292.667 192.864 295.891 189.612 299.862 189.612H300.208C304.178 189.612 307.402 192.864 307.402 196.87V292.714C307.402 292.965 307.391 293.216 307.37 293.467C313.049 296.239 316.977 302.101 316.977 308.889Z" fill="#E1ECFF"/>
<path d="M300.035 327.619C289.798 327.619 281.47 319.217 281.47 308.89C281.47 302.107 285.194 295.784 291.045 292.492V196.871C291.045 191.967 294.999 187.977 299.861 187.977H300.208C305.071 187.977 309.025 191.967 309.025 196.871V292.492C314.875 295.783 318.599 302.107 318.599 308.89C318.599 319.217 310.271 327.619 300.035 327.619ZM299.861 191.25C296.789 191.25 294.29 193.772 294.29 196.871V292.713C294.29 292.92 294.3 293.125 294.317 293.331L294.409 294.45L293.406 294.941C288.126 297.519 284.714 302.993 284.714 308.889C284.714 317.411 291.586 324.346 300.035 324.346C308.482 324.346 315.355 317.411 315.355 308.889C315.355 302.993 311.943 297.519 306.662 294.941L305.659 294.45L305.752 293.331C305.77 293.124 305.779 292.919 305.779 292.713V196.871C305.779 193.772 303.279 191.25 300.206 191.25H299.861Z" fill="#E1ECFF"/>
</g>
<mask id="mask5_13_1634" style="mask-type:luminance" maskUnits="userSpaceOnUse" x="57" y="57" width="277" height="280">
<path d="M292.857 295.455C346.771 241.063 346.771 152.877 292.857 98.4848C238.944 44.0931 151.533 44.0931 97.6191 98.4848C43.7055 152.877 43.7055 241.063 97.619 295.455C151.533 349.846 238.944 349.846 292.857 295.455Z" fill="white"/>
</mask>
<g mask="url(#mask5_13_1634)">
<path d="M359.701 308.889C359.701 318.331 352.118 325.982 342.759 325.982C333.401 325.982 325.816 318.33 325.816 308.889C325.816 302.101 329.743 296.239 335.423 293.467C335.401 293.216 335.39 292.965 335.39 292.714V196.87C335.39 192.864 338.603 189.612 342.585 189.612H342.931C346.901 189.612 350.125 192.864 350.125 196.87V292.714C350.125 292.965 350.115 293.216 350.092 293.467C355.774 296.239 359.701 302.101 359.701 308.889Z" fill="#E1ECFF"/>
<path d="M342.758 327.619C332.522 327.619 324.194 319.217 324.194 308.89C324.194 302.107 327.917 295.784 333.768 292.492V196.871C333.768 191.967 337.723 187.977 342.586 187.977H342.931C347.793 187.977 351.748 191.967 351.748 196.871V292.492C357.598 295.783 361.321 302.107 361.321 308.89C361.322 319.217 352.995 327.619 342.758 327.619ZM342.586 191.25C339.513 191.25 337.012 193.772 337.012 196.871V292.713C337.012 292.92 337.022 293.125 337.039 293.331L337.132 294.45L336.129 294.941C330.848 297.519 327.437 302.993 327.437 308.889C327.437 317.411 334.31 324.346 342.757 324.346C351.205 324.346 358.077 317.411 358.077 308.889C358.077 302.993 354.666 297.519 349.385 294.941L348.382 294.45L348.476 293.331C348.493 293.124 348.503 292.919 348.503 292.713V196.871C348.503 193.772 346.002 191.25 342.93 191.25H342.586Z" fill="#E1ECFF"/>
</g>
<mask id="mask6_13_1634" style="mask-type:luminance" maskUnits="userSpaceOnUse" x="57" y="57" width="277" height="280">
<path d="M292.857 295.455C346.771 241.063 346.771 152.877 292.857 98.4848C238.944 44.0931 151.533 44.0931 97.6191 98.4848C43.7055 152.877 43.7055 241.063 97.619 295.455C151.533 349.846 238.944 349.846 292.857 295.455Z" fill="white"/>
</mask>
<g mask="url(#mask6_13_1634)">
<path d="M132.764 326.455H47.9926C46.789 326.455 45.8133 325.471 45.8133 324.257V199.348C45.8133 198.134 46.789 197.151 47.9916 197.151H132.763C133.966 197.151 134.942 198.135 134.942 199.349V324.259C134.943 325.472 133.967 326.455 132.764 326.455Z" fill="#E1ECFF"/>
</g>
<mask id="mask7_13_1634" style="mask-type:luminance" maskUnits="userSpaceOnUse" x="57" y="57" width="277" height="280">
<path d="M292.857 295.455C346.771 241.063 346.771 152.877 292.857 98.4848C238.944 44.0931 151.533 44.0931 97.6191 98.4848C43.7055 152.877 43.7055 241.063 97.619 295.455C151.533 349.846 238.944 349.846 292.857 295.455Z" fill="white"/>
</mask>
<g mask="url(#mask7_13_1634)">
<path d="M142.769 195.064L126.84 194.995V207.521H134.943C134.943 207.521 135.192 202.297 137.245 199.419C139.281 196.562 142.769 195.064 142.769 195.064Z" fill="#E1ECFF"/>
</g>
<mask id="mask8_13_1634" style="mask-type:luminance" maskUnits="userSpaceOnUse" x="57" y="57" width="277" height="280">
<path d="M292.857 295.455C346.771 241.063 346.771 152.877 292.857 98.4848C238.944 44.0931 151.533 44.0931 97.6191 98.4848C43.7055 152.877 43.7055 241.063 97.619 295.455C151.533 349.846 238.944 349.846 292.857 295.455Z" fill="white"/>
</mask>
<g mask="url(#mask8_13_1634)">
<path d="M148.394 116.476H47.417C46.2134 116.476 45.2377 115.492 45.2377 114.277V56.6051C45.2377 55.3908 46.2134 54.4075 47.417 54.4075H148.394C149.597 54.4075 150.573 55.3918 150.573 56.6051V114.277C150.573 115.492 149.597 116.476 148.394 116.476Z" fill="#E1ECFF"/>
</g>
<path d="M134.803 190.04C134.789 190.04 134.776 190.036 134.762 190.036H59.7111C55.7244 190.036 52.4924 193.297 52.4924 197.319V312.581C52.4924 316.603 55.7244 319.863 59.7111 319.863H134.762C138.749 319.863 141.981 316.603 141.981 312.581V202.613C141.981 202.613 142.23 197.368 144.292 194.478C146.338 191.61 149.838 190.106 149.838 190.106L134.803 190.04Z" fill="#FCF9F9"/>
<path d="M78.2467 297.294C72.2747 297.294 67.4323 292.41 67.4323 286.384V235.27C67.4323 229.244 72.2747 224.36 78.2467 224.36C84.2198 224.36 89.0612 229.245 89.0612 235.27V286.384C89.0612 292.409 84.2198 297.294 78.2467 297.294Z" fill="#FCF9F9"/>
<path d="M78.2478 298.541C71.602 298.541 66.1958 293.088 66.1958 286.384V235.27C66.1958 228.565 71.602 223.111 78.2478 223.111C84.8926 223.111 90.2979 228.564 90.2979 235.27V286.384C90.2979 293.088 84.8926 298.541 78.2478 298.541ZM78.2478 225.607C72.9656 225.607 68.67 229.941 68.67 235.27V286.384C68.67 291.711 72.9656 296.045 78.2478 296.045C83.5281 296.045 87.8237 291.711 87.8237 286.384V235.27C87.8237 229.941 83.5281 225.607 78.2478 225.607Z" fill="#939AA0"/>
<path d="M89.0602 260.827V287.481C89.0602 292.902 84.2158 297.289 78.2517 297.289C72.2877 297.289 67.4323 292.902 67.4323 287.481V260.827H89.0602Z" fill="#014F6C"/>
<path d="M78.2528 298.537C71.6 298.537 66.1958 293.577 66.1958 287.481V260.827C66.1958 260.138 66.7496 259.578 67.4334 259.578H89.0613C89.744 259.578 90.2989 260.137 90.2989 260.827V287.481C90.2979 293.577 84.8936 298.537 78.2528 298.537ZM68.67 262.074V287.481C68.67 292.2 72.9646 296.041 78.2418 296.041C83.5301 296.041 87.8247 292.201 87.8247 287.481V262.074H68.67Z" fill="#014F6C"/>
<path d="M131.976 307.564H62.2928V310.06H131.976V307.564Z" fill="#939AA0"/>
<path d="M127.488 282.865C127.488 290.807 121.106 297.246 113.234 297.246C105.361 297.246 98.9796 290.807 98.9796 282.865C98.9796 274.923 105.361 268.484 113.234 268.484C121.106 268.484 127.488 274.922 127.488 282.865Z" fill="#FCF9F9"/>
<path d="M113.234 298.494C104.692 298.494 97.7433 291.482 97.7433 282.864C97.7433 274.246 104.692 267.236 113.234 267.236C121.776 267.236 128.725 274.246 128.725 282.864C128.725 291.482 121.776 298.494 113.234 298.494ZM113.234 269.732C106.057 269.732 100.217 275.623 100.217 282.864C100.217 290.105 106.057 295.998 113.234 295.998C120.412 295.998 126.251 290.105 126.251 282.864C126.251 275.623 120.412 269.732 113.234 269.732Z" fill="#939AA0"/>
<path d="M127.492 282.865C127.492 290.799 121.105 297.243 113.23 297.243C105.366 297.243 98.9788 290.799 98.9788 282.865H127.492Z" fill="#FCF9F9"/>
<path d="M113.229 298.491C104.689 298.491 97.7414 291.481 97.7414 282.864V281.616H128.73V282.864C128.73 291.48 121.776 298.491 113.229 298.491ZM100.274 284.112C100.898 290.77 106.471 295.994 113.229 295.994C119.995 295.994 125.573 290.77 126.198 284.112H100.274Z" fill="#939AA0"/>
<path d="M127.492 246.451C127.492 254.385 121.105 260.829 113.23 260.829C105.366 260.829 98.9788 254.385 98.9788 246.451H127.492Z" fill="#FCF9F9"/>
<path d="M113.229 262.076C104.689 262.076 97.7414 255.067 97.7414 246.451C97.7414 245.762 98.2952 245.203 98.979 245.203H127.494C128.176 245.203 128.731 245.762 128.731 246.451C128.73 255.067 121.776 262.076 113.229 262.076ZM100.274 247.7C100.898 254.356 106.471 259.58 113.229 259.58C119.995 259.58 125.571 254.356 126.198 247.7H100.274Z" fill="#939AA0"/>
<path d="M131.975 199.61H62.2928V206.185H131.975V199.61Z" fill="#939AA0"/>
<path d="M131.976 212.577H62.2928V215.073H131.976V212.577Z" fill="#939AA0"/>
<path d="M134.761 321.112H59.7108C55.0473 321.112 51.2536 317.284 51.2536 312.582V197.32C51.2536 192.615 55.0473 188.788 59.7108 188.788H111.474C112.157 188.788 112.711 189.346 112.711 190.036C112.711 190.725 112.158 191.285 111.474 191.285H59.7108C56.4119 191.285 53.7278 193.993 53.7278 197.321V312.584C53.7278 315.91 56.4119 318.618 59.7108 318.618H134.761C138.06 318.618 140.744 315.91 140.744 312.584V266.912C140.744 266.223 141.298 265.664 141.981 265.664C142.663 265.664 143.218 266.223 143.218 266.912V312.584C143.217 317.285 139.424 321.112 134.761 321.112Z" fill="#939AA0"/>
<path d="M141.98 258.387C141.298 258.387 140.744 257.828 140.744 257.139V250.877C140.744 250.188 141.298 249.629 141.98 249.629C142.663 249.629 143.218 250.188 143.218 250.877V257.139C143.217 257.828 142.663 258.387 141.98 258.387Z" fill="#939AA0"/>
<path d="M310.171 80.5789H268.754C264.669 80.5789 261.359 83.9191 261.359 88.04V116.721C261.359 120.841 264.669 124.181 268.754 124.181H275.039C275.039 124.181 280.237 124.433 283.102 126.513C285.945 128.576 287.436 132.108 287.436 132.108L287.471 124.18H310.173C314.257 124.18 317.568 120.84 317.568 116.72V88.039C317.566 83.9191 314.255 80.5789 310.171 80.5789Z" fill="#FCF9F9"/>
<path d="M310.171 125.429H304.44C303.757 125.429 303.203 124.871 303.203 124.181C303.203 123.492 303.756 122.933 304.44 122.933H310.171C313.565 122.933 316.328 120.147 316.328 116.721V88.0398C316.328 84.6138 313.565 81.8272 310.171 81.8272H278.47C277.787 81.8272 277.233 81.2685 277.233 80.5786C277.233 79.8898 277.787 79.3311 278.47 79.3311H310.171C314.93 79.3311 318.801 83.2371 318.801 88.0398V116.721C318.802 121.522 314.93 125.429 310.171 125.429Z" fill="#939AA0"/>
<path d="M306.902 89.9961L291.824 108.659L286.991 114.742L286.959 114.764L286.937 114.742L282.103 108.659L272.022 96.0009H281.766L286.969 102.544L297.116 89.9961H306.902Z" fill="#42BAE4"/>
<path d="M286.954 115.998C286.648 115.998 286.346 115.892 286.116 115.679L271.057 96.7836C270.759 96.4094 270.701 95.8961 270.905 95.4624C271.111 95.0298 271.545 94.7534 272.022 94.7534H281.766C282.141 94.7534 282.495 94.9259 282.73 95.2194L286.978 100.56L296.156 89.2065C296.391 88.916 296.742 88.7466 297.114 88.7466H306.901C307.378 88.7466 307.813 89.0249 308.019 89.4586C308.224 89.8943 308.163 90.4097 307.86 90.7828L287.955 115.521C287.874 115.625 287.775 115.715 287.666 115.787C287.451 115.929 287.202 115.998 286.954 115.998ZM274.602 97.2496L286.964 112.78L290.861 107.879L304.298 91.2427H297.703L287.928 103.332C287.694 103.623 287.342 103.792 286.97 103.792C286.968 103.792 286.967 103.792 286.965 103.792C286.591 103.79 286.238 103.617 286.005 103.326L281.173 97.2496H274.602Z" fill="#2D918A"/>
<path d="M153.533 107.413H52.1486C50.94 107.413 49.9613 106.425 49.9613 105.206V47.3012C49.9613 46.0818 50.941 45.0945 52.1486 45.0945H153.533C154.742 45.0945 155.72 46.0829 155.72 47.3012V105.205C155.72 106.425 154.741 107.413 153.533 107.413Z" fill="#FCF9F9"/>
<path d="M145.097 67.3516H109.875V69.8477H145.097V67.3516Z" fill="#939AA0"/>
<path d="M145.097 85.9568H109.875V88.4529H145.097V85.9568Z" fill="#939AA0"/>
<path d="M145.097 76.6536H109.875V79.1497H145.097V76.6536Z" fill="#939AA0"/>
<path d="M145.097 95.2036H109.875V97.6997H145.097V95.2036Z" fill="#939AA0"/>
<path d="M145.098 54.7493H102.063V61.3239H145.098V54.7493Z" fill="#939AA0"/>
<path d="M100.284 68.6204V84.0197H88.0654V96.452H72.8155V84.0197H60.5835V68.6204H72.8155V56.3989H88.0654V68.6204H100.284Z" fill="#42BAE4"/>
<path d="M88.0654 97.7003H72.8154C72.1326 97.7003 71.5788 97.1416 71.5788 96.4517V85.266H60.5834C59.9006 85.266 59.3458 84.7073 59.3458 84.0175V68.6191C59.3458 67.9303 59.8996 67.3716 60.5834 67.3716H71.5788V56.3987C71.5788 55.7099 72.1326 55.1511 72.8154 55.1511H88.0654C88.7481 55.1511 89.303 55.7099 89.303 56.3987V67.3726H100.285C100.968 67.3726 101.523 67.9313 101.523 68.6201V84.0185C101.523 84.7073 100.969 85.2671 100.285 85.2671H89.303V96.4527C89.302 97.1406 88.7481 97.7003 88.0654 97.7003ZM74.053 95.2032H86.8288V84.0175C86.8288 83.3286 87.3826 82.7699 88.0664 82.7699H99.0478V69.8677H88.0654C87.3826 69.8677 86.8278 69.309 86.8278 68.6191V57.6463H74.052V68.6201C74.052 69.309 73.4982 69.8687 72.8144 69.8687H61.82V82.7709H72.8154C73.4982 82.7709 74.053 83.3297 74.053 84.0185V95.2032Z" fill="#2D918A"/>
<path d="M49.961 93.2277C49.2782 93.2277 48.7244 92.669 48.7244 91.9791V52.3769C48.7244 47.6741 52.5172 43.8467 57.1806 43.8467H78.2477C78.9305 43.8467 79.4843 44.4054 79.4843 45.0953C79.4843 45.7841 78.9305 46.3428 78.2477 46.3428H57.1796C53.8807 46.3428 51.1976 49.0507 51.1976 52.3769V91.9801C51.1976 92.669 50.6438 93.2277 49.961 93.2277Z" fill="#939AA0"/>
<path d="M141.101 46.3428H136.203C135.52 46.3428 134.966 45.7841 134.966 45.0953C134.966 44.4054 135.52 43.8467 136.203 43.8467H141.101C141.784 43.8467 142.339 44.4054 142.339 45.0953C142.338 45.7831 141.784 46.3428 141.101 46.3428Z" fill="#939AA0"/>
<path d="M148.501 108.661H113.488C112.805 108.661 112.251 108.103 112.251 107.414C112.251 106.725 112.804 106.165 113.488 106.165H148.501C151.8 106.165 154.484 103.457 154.484 100.129V52.3769C154.484 49.0507 151.8 46.3428 148.501 46.3428C147.818 46.3428 147.263 45.7841 147.263 45.0953C147.263 44.4054 147.817 43.8467 148.501 43.8467C153.164 43.8467 156.958 47.6741 156.958 52.3769V100.13C156.958 104.834 153.164 108.661 148.501 108.661Z" fill="#939AA0"/>
<path d="M344.821 283.162V290.203C344.821 290.455 344.81 290.708 344.788 290.96C350.491 293.743 354.434 299.628 354.434 306.445C354.434 315.924 346.819 323.606 337.422 323.606C328.026 323.606 320.412 315.924 320.412 306.445C320.412 299.628 324.355 293.743 330.058 290.96C330.036 290.708 330.025 290.455 330.025 290.203V193.974C330.025 189.952 333.251 186.686 337.248 186.686H337.596C341.583 186.686 344.82 189.952 344.82 193.974V200.064V283.162H344.821Z" fill="#FCF9F9"/>
<path d="M337.423 324.855C327.363 324.855 319.177 316.596 319.177 306.444C319.177 299.699 322.923 293.416 328.79 290.212C328.79 290.209 328.79 290.205 328.79 290.202V193.973C328.79 189.265 332.585 185.437 337.25 185.437H337.597C342.264 185.437 346.06 189.265 346.06 193.973V200.063C346.06 200.752 345.506 201.311 344.822 201.311C344.138 201.311 343.585 200.752 343.585 200.063V193.973C343.585 190.642 340.9 187.933 337.597 187.933H337.25C333.95 187.933 331.265 190.642 331.265 193.973V290.202C331.265 290.416 331.273 290.631 331.292 290.846L331.369 291.705L330.599 292.08C325.163 294.735 321.651 300.371 321.651 306.443C321.651 315.218 328.726 322.358 337.423 322.358C346.122 322.358 353.198 315.219 353.198 306.443C353.198 300.371 349.685 294.735 344.25 292.08L343.479 291.705L343.555 290.846C343.574 290.632 343.584 290.417 343.584 290.202V283.161C343.584 282.472 344.138 281.912 344.821 281.912C345.504 281.912 346.059 282.471 346.059 283.161V290.202C346.059 290.205 346.059 290.208 346.059 290.212C351.925 293.418 355.672 299.698 355.672 306.444C355.673 316.596 347.486 324.855 337.423 324.855Z" fill="#939AA0"/>
<path d="M344.822 267.818C344.138 267.818 343.585 267.26 343.585 266.57V236.153C343.585 235.464 344.139 234.906 344.822 234.906C345.505 234.906 346.06 235.464 346.06 236.153V266.57C346.059 267.26 345.505 267.818 344.822 267.818Z" fill="#939AA0"/>
<path d="M344.822 214.199C344.138 214.199 343.585 213.64 343.585 212.95V207.781C343.585 207.092 344.139 206.532 344.822 206.532C345.505 206.532 346.06 207.091 346.06 207.781V212.95C346.059 213.64 345.505 214.199 344.822 214.199Z" fill="#939AA0"/>
<path d="M344.821 279.763V290.204C344.821 290.456 344.81 290.708 344.788 290.96C350.491 293.744 354.434 299.628 354.434 306.445C354.434 315.924 346.819 323.606 337.422 323.606C328.026 323.606 320.412 315.924 320.412 306.445C320.412 299.628 324.355 293.744 330.058 290.96C330.036 290.708 330.025 290.456 330.025 290.204V253.096H344.82V269.991V279.763H344.821Z" fill="#BCE4ED"/>
<path d="M337.423 324.855C327.363 324.855 319.176 316.596 319.176 306.444C319.176 299.699 322.923 293.416 328.79 290.212C328.79 290.209 328.79 290.205 328.79 290.202V253.095C328.79 252.406 329.344 251.848 330.027 251.848H344.822C345.505 251.848 346.06 252.406 346.06 253.095V269.992C346.06 270.681 345.506 271.24 344.822 271.24C344.138 271.24 343.585 270.681 343.585 269.992V254.344H331.264V290.203C331.264 290.417 331.272 290.632 331.291 290.847C331.338 291.363 331.061 291.856 330.599 292.082C325.162 294.737 321.651 300.373 321.651 306.445C321.651 315.22 328.726 322.36 337.423 322.36C346.122 322.36 353.198 315.221 353.198 306.445C353.198 300.373 349.685 294.737 344.25 292.082C343.786 291.856 343.509 291.364 343.555 290.847C343.574 290.633 343.584 290.418 343.584 290.203V279.764C343.584 279.075 344.138 278.516 344.821 278.516C345.504 278.516 346.059 279.075 346.059 279.764V290.203C346.059 290.206 346.059 290.209 346.059 290.213C351.925 293.419 355.671 299.699 355.671 306.445C355.672 316.596 347.486 324.855 337.423 324.855Z" fill="#6A8F9B"/>
<path d="M337.423 314.004C341.789 314.004 345.327 310.433 345.327 306.029C345.327 301.625 341.789 298.055 337.423 298.055C333.058 298.055 329.519 301.625 329.519 306.029C329.519 310.433 333.058 314.004 337.423 314.004Z" fill="#FCF9F9"/>
<path d="M287.13 234.337V193.974C287.13 189.952 290.367 186.686 294.354 186.686H294.701C298.688 186.686 301.925 189.952 301.925 193.974V290.203C301.925 290.455 301.914 290.708 301.892 290.96C307.595 293.743 311.538 299.628 311.538 306.445C311.538 315.924 303.923 323.606 294.528 323.606C285.132 323.606 277.517 315.924 277.517 306.445C277.517 299.628 281.461 293.743 287.163 290.96C287.141 290.708 287.13 290.455 287.13 290.203V253.096V234.337Z" fill="#FCF9F9"/>
<path d="M294.528 324.855C284.465 324.855 276.279 316.596 276.279 306.444C276.279 299.699 280.025 293.418 285.891 290.212C285.891 290.209 285.891 290.205 285.891 290.202V253.095H288.366V290.202C288.366 290.416 288.376 290.631 288.395 290.846L288.472 291.705L287.7 292.08C282.266 294.735 278.752 300.371 278.752 306.443C278.752 315.218 285.827 322.358 294.527 322.358C303.224 322.358 310.299 315.219 310.299 306.443C310.299 300.371 306.788 294.735 301.351 292.08L300.588 291.708L300.659 290.854C300.677 290.636 300.685 290.42 300.685 290.202V193.973C300.685 190.642 298.001 187.933 294.7 187.933H294.353C291.051 187.933 288.365 190.642 288.365 193.973V234.336H285.89V193.973C285.89 189.265 289.685 185.437 294.352 185.437H294.699C299.364 185.437 303.159 189.265 303.159 193.973V290.202C303.159 290.205 303.159 290.208 303.159 290.212C309.026 293.416 312.773 299.698 312.773 306.444C312.776 316.596 304.589 324.855 294.528 324.855Z" fill="#939AA0"/>
<path d="M287.13 238.303V209.537H301.925V290.204C301.925 290.456 301.914 290.708 301.892 290.96C307.595 293.744 311.538 299.629 311.538 306.445C311.538 315.924 303.923 323.606 294.528 323.606C285.132 323.606 277.517 315.924 277.517 306.445C277.517 299.629 281.461 293.744 287.163 290.96C287.141 290.708 287.13 290.456 287.13 290.204V250.341V238.303Z" fill="#014F6C"/>
<path d="M294.527 324.855C284.465 324.855 276.278 316.596 276.278 306.444C276.278 299.699 280.025 293.417 285.891 290.212C285.891 290.209 285.891 290.205 285.891 290.202V250.341C285.891 249.652 286.445 249.092 287.128 249.092C287.811 249.092 288.364 249.651 288.364 250.341V290.202C288.364 290.416 288.374 290.631 288.393 290.846C288.44 291.362 288.164 291.855 287.699 292.081C282.264 294.736 278.751 300.372 278.751 306.444C278.751 315.219 285.826 322.358 294.525 322.358C303.223 322.358 310.298 315.22 310.298 306.444C310.298 300.372 306.786 294.736 301.35 292.081C300.889 291.857 300.614 291.369 300.657 290.855C300.675 290.637 300.684 290.421 300.684 290.203V210.785H288.363V238.302C288.363 238.991 287.81 239.549 287.127 239.549C286.444 239.549 285.89 238.991 285.89 238.302V209.536C285.89 208.848 286.444 208.288 287.127 208.288H301.922C302.606 208.288 303.159 208.847 303.159 209.536V290.202C303.159 290.205 303.159 290.208 303.159 290.212C309.026 293.415 312.772 299.698 312.772 306.444C312.775 316.596 304.589 324.855 294.527 324.855Z" fill="#014F6C"/>
<path d="M304.945 308.72C304.389 310.008 303.473 311.041 302.352 311.729L301.894 311.994L294.533 316.243L287.164 311.994L286.696 311.729C285.585 311.041 284.669 310.008 284.103 308.72C282.66 305.346 284.191 301.432 287.525 299.977C289.962 298.915 292.672 299.436 294.524 301.107C296.386 299.435 299.096 298.914 301.524 299.977C304.868 301.432 306.398 305.346 304.945 308.72Z" fill="#FCF9F9"/>
<path d="M244.234 198.365V193.974C244.234 189.952 247.471 186.686 251.457 186.686H251.805C255.792 186.686 259.029 189.952 259.029 193.974V290.203C259.029 290.455 259.018 290.708 258.996 290.96C264.699 293.743 268.642 299.628 268.642 306.445C268.642 315.924 261.027 323.606 251.631 323.606C242.235 323.606 234.621 315.924 234.621 306.445C234.621 299.628 238.564 293.743 244.267 290.96C244.245 290.708 244.234 290.455 244.234 290.203V223.324V198.365Z" fill="#FCF9F9"/>
<path d="M251.631 324.855C241.57 324.855 233.384 316.596 233.384 306.444C233.384 299.699 237.13 293.416 242.996 290.213C242.996 290.21 242.996 290.205 242.996 290.202V223.323C242.996 222.634 243.55 222.075 244.233 222.075C244.916 222.075 245.471 222.633 245.471 223.323V290.202C245.471 290.42 245.481 290.636 245.498 290.854C245.541 291.368 245.266 291.856 244.805 292.08C239.369 294.735 235.857 300.372 235.857 306.443C235.857 315.218 242.933 322.358 251.63 322.358C260.329 322.358 267.404 315.219 267.404 306.443C267.404 300.372 263.892 294.735 258.456 292.08C257.993 291.854 257.716 291.362 257.762 290.845C257.782 290.631 257.791 290.416 257.791 290.201V193.972C257.791 190.641 255.105 187.932 251.803 187.932H251.455C248.154 187.932 245.469 190.641 245.469 193.972V198.363C245.469 199.052 244.915 199.611 244.231 199.611C243.548 199.611 242.994 199.052 242.994 198.363V193.972C242.994 189.264 246.789 185.436 251.455 185.436H251.803C256.469 185.436 260.265 189.264 260.265 193.972V290.201C260.265 290.204 260.265 290.207 260.265 290.212C266.131 293.417 269.878 299.697 269.878 306.443C269.88 316.596 261.693 324.855 251.631 324.855Z" fill="#939AA0"/>
<path d="M268.642 306.444C268.642 315.923 261.027 323.605 251.631 323.605C242.235 323.605 234.621 315.923 234.621 306.444C234.621 302.908 235.682 299.622 237.499 296.89C239.185 294.355 241.522 292.298 244.267 290.959C244.245 290.707 244.234 290.454 244.234 290.202V257.563V237.24H259.028V290.202C259.028 290.454 259.017 290.707 258.995 290.959C264.698 293.743 268.642 299.628 268.642 306.444Z" fill="#42BAE4"/>
<path d="M251.631 324.854C241.57 324.854 233.384 316.595 233.384 306.443C233.384 302.775 234.451 299.231 236.472 296.195C238.135 293.695 240.381 291.639 242.996 290.213C242.996 290.21 242.996 290.206 242.996 290.203V237.24C242.996 236.551 243.55 235.992 244.233 235.992H259.029C259.712 235.992 260.267 236.551 260.267 237.24V290.203C260.267 290.206 260.267 290.209 260.267 290.213C266.133 293.418 269.88 299.698 269.88 306.444C269.88 316.595 261.693 324.854 251.631 324.854ZM245.471 238.487V290.202C245.471 290.42 245.481 290.635 245.498 290.853C245.541 291.367 245.266 291.856 244.805 292.08C242.27 293.318 240.098 295.221 238.526 297.584C236.78 300.209 235.857 303.272 235.857 306.442C235.857 315.218 242.933 322.357 251.63 322.357C260.329 322.357 267.404 315.219 267.404 306.442C267.404 300.371 263.892 294.734 258.456 292.08C257.993 291.854 257.716 291.362 257.762 290.844C257.782 290.63 257.791 290.416 257.791 290.201V238.486H245.471V238.487Z" fill="#2D918A"/>
<path d="M258.971 308.837C258.971 312.929 255.686 316.243 251.63 316.243C247.575 316.243 244.29 312.929 244.29 308.837C244.29 307.264 244.776 305.8 245.611 304.597L245.969 304.116L251.63 298.055L257.292 304.116L257.649 304.597C258.485 305.8 258.971 307.264 258.971 308.837Z" fill="#FCF9F9"/>
<path d="M223.229 75.1965C223.523 78.6921 214.354 86.5285 212.822 92.8187C211.302 99.12 213.376 104.007 209.911 107.646C206.446 111.285 197.756 113.816 194.149 111.997C190.544 110.178 182.179 71 182.179 71C182.179 71 182.092 70.8356 181.94 70.529C181.42 69.4337 180.137 66.6058 179.681 63.8989C179.638 63.6579 179.605 63.4168 179.573 63.1758C179.421 61.8717 179.486 60.6222 179.964 59.6691C181.767 56.0313 186.276 57.2799 186.276 57.2799C186.276 57.2799 186.265 57.2355 186.254 57.1699C186.254 57.1699 186.254 57.1588 186.254 57.1477C186.189 56.7968 186.026 55.7892 186.037 54.5619C186.048 53.8276 186.124 53.0168 186.309 52.216C186.32 52.1615 186.331 52.1061 186.342 52.0516C186.592 51.0985 187.005 50.1777 187.7 49.4546C190.22 46.7911 204.786 45.5314 209.218 49.4546C213.661 53.3667 212.824 59.1093 212.824 59.1093C212.824 59.1093 216.017 58.6817 219.07 61.2021C220.146 62.0896 220.461 63.4925 220.417 64.9498C220.341 67.6234 219.07 70.4403 219.07 70.4403C219.07 70.4403 222.969 72.0398 223.229 75.1965Z" fill="#773128"/>
<path d="M301.758 174.945C300.097 176.063 292.329 175.131 288.625 174.035C284.933 172.94 277.535 167.668 277.535 167.668L229.186 158.594L226.873 158.155L213.935 153.487L168.084 149.947L109.47 161.137C109.47 161.137 106.515 163.186 103.55 166.364C100.595 169.531 92.8338 172.413 89.6929 173.86C88.9241 174.214 86.8178 173.988 87.1137 172.798C87.2937 172.075 88.3273 170.909 86.6049 172.029C85.8881 172.495 84.4786 171.306 85.1954 170.047C85.8371 168.919 85.3403 169.11 84.5826 169.581C83.6129 170.184 82.0864 168.532 83.3 167.063C83.8288 166.422 84.3746 165.513 83.126 166.258C81.7685 167.07 80.4909 165.993 81.5316 164.124C82.4733 162.434 83.231 161.676 84.5076 160.578C86.9948 158.44 93.1977 156.107 93.1977 156.107C93.1977 156.107 91.1664 154.792 89.5049 154.047C87.8325 153.301 87.8325 150.507 89.5049 150.507C91.1664 150.507 94.3063 151.065 98.1951 151.811C102.073 152.556 108.363 155.351 108.363 155.351L186.573 118.419V109.652L186.432 109.608C186.247 109.553 185.899 109.443 185.4 109.235L185.346 109.213C184.043 108.654 181.816 107.504 179.176 105.268C178.351 104.567 177.699 103.591 177.189 102.408C173.963 94.8456 176.733 78.7473 178.808 71.975C181.208 64.1396 188.507 61.7171 194.34 62.2759C200.543 62.8679 203.193 63.7443 207.071 68.4017C210.95 73.0702 208.853 87.6456 208.853 87.6456C208.853 87.6456 211.536 87.5801 213.198 88.8841C214.654 90.0237 216.239 94.0014 214.774 96.9827C214.567 97.4214 214.285 97.8268 213.937 98.21C211.167 101.191 207.093 100.325 207.093 100.325C207.093 100.325 206.311 105.059 203.954 107.086C200.663 109.914 196.557 110.396 196.557 110.396L196.372 118.857L201.52 121.52L278.471 161.345C278.471 161.345 283.272 158.715 287.52 157.97C291.778 157.225 304.53 159.647 306.204 161.138C307.863 162.627 303.42 173.827 301.758 174.945Z" fill="#F9AA8F"/>
<path d="M308.423 149.581L297.598 144.523L287.464 166.6L298.29 171.658L308.423 149.581Z" fill="#FCF9F9"/>
<path d="M298.289 172.836C298.126 172.836 297.96 172.802 297.804 172.727L286.978 167.67C286.699 167.542 286.485 167.304 286.378 167.016C286.273 166.725 286.286 166.404 286.415 166.125L296.551 144.046C296.678 143.765 296.913 143.549 297.2 143.442C297.49 143.336 297.806 143.348 298.082 143.479L308.907 148.538C309.485 148.808 309.739 149.5 309.47 150.084L299.336 172.161C299.141 172.586 298.724 172.836 298.289 172.836ZM288.996 166.046L297.726 170.124L306.888 150.161L298.159 146.082L288.996 166.046Z" fill="#6A8F9B"/>
<path d="M278.469 161.345C278.469 161.345 281.33 157.918 284.032 156.753C288.284 154.92 290.577 155.605 294.634 154.936C298.1 154.366 299.81 157.242 294.957 158.103C290.59 158.878 289.04 161.558 286.805 164.099C284.548 166.664 278.469 161.345 278.469 161.345Z" fill="#F9AA8F"/>
<path d="M304.809 158.526C302.683 156.194 301.434 157.458 301.573 159.02C301.642 159.797 300.43 158.805 299.597 159.552C298.764 160.298 299.216 161.965 299.216 161.965C299.216 161.965 298.337 161.604 297.69 162.07C297.044 162.536 296.766 165.147 297.69 165.893C298.615 166.64 296.93 165.356 296.687 166.331C296.479 167.165 296.502 167.844 298.483 170.226C300.464 172.608 296.57 174.101 296.57 174.101C296.57 174.101 301.572 175.407 302.589 174.101C303.606 172.795 308.228 165.241 307.673 163.375C307.12 161.51 304.809 158.526 304.809 158.526Z" fill="#F9AA8F"/>
<path d="M277.535 167.668L229.186 158.595V146.683L236.41 144.03L238.343 156.753L277.535 167.668Z" fill="#D87360"/>
<path d="M109.469 161.137L151.439 147.801V153.125L109.469 161.137Z" fill="#CC6148"/>
<path d="M236.887 139.821L234.899 157.169L234.117 163.997L218.779 163.186C218.779 163.186 219.105 180.906 218.736 210.759C218.714 212.513 218.681 214.463 218.649 216.567C218.584 216.589 218.476 216.61 218.324 216.655C216.933 217.06 215.065 217.51 212.707 217.97C212.392 218.025 212.078 218.091 211.752 218.145C211.709 218.156 211.676 218.167 211.644 218.167C207.592 218.88 202.215 219.537 195.35 219.834C192.982 219.932 190.441 219.987 187.703 219.987C184.998 219.987 182.673 219.931 180.664 219.823C174.375 219.483 171.127 218.595 168.466 217.116C167.705 202.749 167.042 186.87 166.609 175.603C166.598 175.504 166.598 175.45 166.598 175.45C166.25 166.563 166.044 160.579 166.044 160.579H148.848L147.839 136.711L182.131 120.469C182.131 120.469 184.75 129.489 190.637 129.685C198.957 129.96 202.868 121.806 202.868 121.806L236.887 139.821Z" fill="#FCF9F9"/>
<path d="M175.454 333.03C169.013 339.345 173.925 345.928 181.115 342.263C187.702 338.905 189.561 337.215 191.562 334.944C193.564 332.673 195.238 324.487 188.521 324.46C186.269 324.45 181.138 327.454 175.454 333.03Z" fill="#1E5259"/>
<path d="M210.675 339.045C219.309 348.118 226.403 341.392 222.624 335.174C216.615 325.287 215.1 326.081 210.826 323.859C206.772 321.752 205.234 321.256 205.07 322.155C203.931 328.409 203.556 331.565 210.675 339.045Z" fill="#1E5259"/>
<path d="M218.648 216.567C218.051 250.342 215.596 326.036 215.596 326.036L204.321 328.085L196.533 238.474L192.72 239.482L193.035 327.34H182.128C182.128 327.34 171.038 252.962 169.007 225.729C168.8 222.945 168.616 220.063 168.464 217.115C169.887 217.903 171.494 218.529 173.634 218.989C173.634 218.989 173.721 219.011 173.884 219.043C174.156 219.099 174.449 219.153 174.753 219.219C174.774 219.219 174.808 219.219 174.829 219.23C177.849 219.734 181.868 219.986 187.701 219.986C190.395 219.986 192.904 219.931 195.25 219.833C207.363 219.329 214.858 217.674 218.648 216.567Z" fill="#6A8F9B"/>
<path d="M184.335 84.0968C184.125 85.3665 183.465 86.3145 182.86 86.2127C182.257 86.1108 181.936 84.9994 182.146 83.7286C182.356 82.4579 183.015 81.5109 183.62 81.6127C184.225 81.7146 184.545 82.826 184.335 84.0968Z" fill="#773128"/>
<path d="M198.665 84.0968C198.455 85.3665 197.795 86.3145 197.191 86.2127C196.587 86.1108 196.267 84.9994 196.477 83.7286C196.687 82.4579 197.346 81.5109 197.951 81.6127C198.554 81.7146 198.874 82.826 198.665 84.0968Z" fill="#773128"/>
<path d="M181.332 76.4914C181.332 76.4914 183.155 75.5201 184.536 75.39C185.919 75.2599 187.872 75.3063 187.872 75.3063C187.872 75.3063 188.457 73.9024 187.838 73.497C187.221 73.0916 184.26 73.4506 183.172 74.1747C182.084 74.8979 181.332 76.4914 181.332 76.4914Z" fill="#773128"/>
<path d="M197.271 73.7813C196.202 73.9618 196.168 75.988 196.168 75.988C196.168 75.988 198.923 75.993 200.325 76.7827C201.728 77.5724 202.967 78.7645 202.967 78.7645C202.967 78.7645 201.866 75.5069 200.511 74.6456C199.242 73.8388 198.072 73.6461 197.271 73.7813Z" fill="#773128"/>
<path d="M185.922 91.9805H193.041C193.041 91.9805 191.7 95.711 190.36 95.944C189.019 96.177 185.922 91.9805 185.922 91.9805Z" fill="#FCF9F9"/>
<path d="M188.878 88.4354C188.783 88.4354 188.688 88.4112 188.601 88.3588C187.391 87.6377 186.947 86.6604 187.162 85.196C187.318 84.1401 188.111 83.5511 188.809 83.0317C189.136 82.7896 189.444 82.5587 189.676 82.2985C190.148 81.767 190.324 80.1816 190.324 79.3072C190.324 79.0046 190.567 78.7595 190.867 78.7595C191.167 78.7595 191.409 79.0046 191.409 79.3072C191.409 79.5815 191.383 82.0181 190.485 83.0297C190.178 83.3746 189.81 83.6489 189.453 83.9131C188.847 84.364 188.325 84.7523 188.237 85.3543C188.085 86.381 188.325 86.9216 189.155 87.4148C189.413 87.5671 189.498 87.9039 189.345 88.1651C189.244 88.3396 189.063 88.4354 188.878 88.4354Z" fill="#CC6148"/>
<path d="M206.913 94.8764C206.784 94.8764 206.656 94.831 206.553 94.7362C206.331 94.5345 206.31 94.1956 206.506 93.9687C206.566 93.9021 207.979 92.347 211.262 92.6374C211.56 92.6647 211.781 92.9319 211.754 93.2335C211.728 93.534 211.478 93.771 211.163 93.7297C208.46 93.4806 207.363 94.6474 207.318 94.6979C207.209 94.8169 207.06 94.8764 206.913 94.8764Z" fill="#CC6148"/>
<path d="M215.151 95.9531C214.944 96.3918 214.282 97.827 213.935 98.2102C211.165 101.191 207.091 100.325 207.091 100.325C207.091 100.325 206.31 105.059 203.952 107.086C200.661 109.914 196.555 110.396 196.555 110.396L196.37 118.857L202.696 122.129L194.143 119.963L193.514 111.568L186.571 109.651L186.43 109.607L185.398 109.235L185.344 109.212C184.041 108.654 181.814 107.503 179.174 105.267C178.349 104.566 177.697 103.59 177.187 102.407C177.187 102.407 178.886 107.508 189.482 107.298C198.544 107.119 203.517 105.059 205.517 101.816C206.44 100.347 206.537 99.2077 206.537 99.2077C206.537 99.2077 212.141 99.5818 215.151 95.9531Z" fill="#CC6148"/>
<path d="M220.406 64.9603C219.383 66.7575 217.866 67.5563 216.645 67.5896C214.897 67.6229 211.928 66.3249 210.773 63.5958C209.882 61.4325 209.453 61.3326 207.969 61.7986C205.726 62.564 199.92 64.2614 194.015 63.4294C192.662 63.263 191.672 62.8303 190.914 62.3311C187.186 62.6972 183.326 64.3613 180.819 67.8891C180.357 66.691 179.928 65.2599 179.697 63.8953C179.631 63.6623 179.598 63.4294 179.565 63.1631C179.433 61.8651 179.499 60.6337 179.961 59.6685C181.776 56.0408 186.262 57.2723 186.262 57.2723C186.262 57.2723 186.262 57.239 186.262 57.1724C186.262 57.1724 186.262 57.1724 186.262 57.1391C186.196 56.773 186.031 55.7746 186.031 54.5764C186.031 53.8109 186.097 53.0122 186.295 52.2134L186.394 52.5462C186.394 52.3798 186.361 52.2134 186.328 52.047C186.592 51.0819 186.988 50.1832 187.714 49.451C190.221 46.7885 204.769 45.5238 209.223 49.451C213.676 53.3783 212.884 58.0044 212.884 58.0044C212.884 58.0044 216.051 57.4054 219.119 59.9015C220.175 60.8001 220.472 63.4959 220.406 64.9603Z" fill="#A54D3C"/>
<path d="M169.777 145.235C161.361 145.235 154.513 138.328 154.513 129.836C154.513 121.343 161.361 114.434 169.777 114.434C178.195 114.434 185.043 121.343 185.043 129.836C185.043 138.328 178.195 145.235 169.777 145.235ZM169.777 116.931C162.725 116.931 156.987 122.72 156.987 129.837C156.987 136.952 162.725 142.74 169.777 142.74C176.831 142.74 182.569 136.952 182.569 129.837C182.569 122.72 176.831 116.931 169.777 116.931Z" fill="#42BAE4"/>
<path d="M177.83 129.836C177.83 134.322 174.225 137.958 169.778 137.958C165.332 137.958 161.727 134.322 161.727 129.836C161.727 125.35 165.332 121.713 169.778 121.713C174.225 121.713 177.83 125.35 177.83 129.836Z" fill="#42BAE4"/>
<path d="M169.777 139.623C164.428 139.623 160.077 135.234 160.077 129.837C160.077 124.44 164.428 120.049 169.777 120.049C175.126 120.049 179.479 124.44 179.479 129.837C179.479 135.234 175.126 139.623 169.777 139.623ZM169.777 123.377C166.248 123.377 163.376 126.275 163.376 129.837C163.376 133.397 166.248 136.295 169.777 136.295C173.308 136.295 176.18 133.397 176.18 129.837C176.18 126.275 173.308 123.377 169.777 123.377Z" fill="#42BAE4"/>
<path d="M181.518 314.329C173.102 314.329 166.254 307.42 166.254 298.929C166.254 290.437 173.102 283.529 181.518 283.529C189.936 283.529 196.784 290.438 196.784 298.929C196.784 307.421 189.936 314.329 181.518 314.329ZM181.518 286.025C174.467 286.025 168.728 291.813 168.728 298.929C168.728 306.044 174.466 311.833 181.518 311.833C188.572 311.833 194.31 306.044 194.31 298.929C194.31 291.813 188.572 286.025 181.518 286.025Z" fill="#42BAE4"/>
<path d="M189.571 298.929C189.571 303.415 185.966 307.052 181.519 307.052C177.073 307.052 173.467 303.415 173.467 298.929C173.467 294.443 177.072 290.807 181.519 290.807C185.966 290.807 189.571 294.443 189.571 298.929Z" fill="#42BAE4"/>
<path d="M181.519 308.716C176.169 308.716 171.819 304.327 171.819 298.929C171.819 293.533 176.169 289.142 181.519 289.142C186.868 289.142 191.22 293.533 191.22 298.929C191.22 304.327 186.868 308.716 181.519 308.716ZM181.519 292.471C177.99 292.471 175.118 295.368 175.118 298.93C175.118 302.492 177.99 305.389 181.519 305.389C185.049 305.389 187.921 302.492 187.921 298.93C187.921 295.367 185.049 292.471 181.519 292.471Z" fill="#42BAE4"/>
<path d="M212.001 211.362C203.585 211.362 196.737 204.453 196.737 195.962C196.737 187.469 203.585 180.562 212.001 180.562C220.419 180.562 227.266 187.47 227.266 195.962C227.266 204.453 220.419 211.362 212.001 211.362ZM212.001 183.058C204.95 183.058 199.211 188.847 199.211 195.962C199.211 203.077 204.95 208.866 212.001 208.866C219.055 208.866 224.792 203.077 224.792 195.962C224.792 188.846 219.055 183.058 212.001 183.058Z" fill="#42BAE4"/>
<path d="M220.054 195.963C220.054 200.449 216.448 204.086 212.002 204.086C207.555 204.086 203.95 200.449 203.95 195.963C203.95 191.477 207.555 187.84 212.002 187.84C216.449 187.839 220.054 191.477 220.054 195.963Z" fill="#42BAE4"/>
<path d="M212.001 205.75C206.652 205.75 202.301 201.361 202.301 195.963C202.301 190.566 206.651 186.175 212.001 186.175C217.351 186.175 221.703 190.566 221.703 195.963C221.703 201.36 217.351 205.75 212.001 205.75ZM212.001 189.503C208.472 189.503 205.6 192.401 205.6 195.963C205.6 199.524 208.472 202.422 212.001 202.422C215.532 202.422 218.404 199.524 218.404 195.963C218.404 192.401 215.532 189.503 212.001 189.503Z" fill="#42BAE4"/>
<path d="M41.5319 241.64C43.2484 241.64 44.6399 240.237 44.6399 238.505C44.6399 236.773 43.2484 235.369 41.5319 235.369C39.8154 235.369 38.424 236.773 38.424 238.505C38.424 240.237 39.8154 241.64 41.5319 241.64Z" fill="#FCD9D9"/>
<path d="M30.2755 247.353C30.2755 248.122 29.6577 248.746 28.894 248.746C28.1312 248.746 27.5134 248.122 27.5134 247.353C27.5134 246.583 28.1312 245.96 28.894 245.96C29.6577 245.959 30.2755 246.583 30.2755 247.353Z" fill="#FCD9D9"/>
<path d="M43.3972 212.518C43.3972 213.211 42.8404 213.771 42.1546 213.771C41.4678 213.771 40.912 213.21 40.912 212.518C40.912 211.825 41.4688 211.264 42.1546 211.264C42.8404 211.263 43.3972 211.825 43.3972 212.518Z" fill="#FCD9D9"/>
<path d="M60.001 129.769C60.001 131.663 58.4795 133.198 56.6021 133.198C54.7247 133.198 53.2032 131.663 53.2032 129.769C53.2032 127.875 54.7247 126.34 56.6021 126.34C58.4795 126.34 60.001 127.875 60.001 129.769Z" fill="#FCD9D9"/>
<path d="M44.8929 110.479C44.8929 111.588 44.0012 112.488 42.9016 112.488C41.8019 112.488 40.9102 111.588 40.9102 110.479C40.9102 109.37 41.8019 108.47 42.9016 108.47C44.0012 108.47 44.8929 109.37 44.8929 110.479Z" fill="#FCD9D9"/>
<path d="M263.141 59.9149C263.141 61.1544 262.145 62.1599 260.916 62.1599C259.688 62.1599 258.691 61.1554 258.691 59.9149C258.691 58.6754 259.688 57.6699 260.916 57.6699C262.145 57.6709 263.141 58.6754 263.141 59.9149Z" fill="#FCD9D9"/>
<path d="M264.864 339.612C264.864 341.469 263.372 342.975 261.531 342.975C259.691 342.975 258.198 341.469 258.198 339.612C258.198 337.756 259.69 336.25 261.531 336.25C263.372 336.25 264.864 337.756 264.864 339.612Z" fill="#FCD9D9"/>
<path d="M276.489 326.257C276.489 327.465 275.519 328.445 274.321 328.445C273.124 328.445 272.154 327.465 272.154 326.257C272.154 325.049 273.124 324.071 274.321 324.071C275.519 324.071 276.489 325.049 276.489 326.257Z" fill="#FCD9D9"/>
<path d="M354.434 249.621C355.807 249.621 356.92 248.498 356.92 247.112C356.92 245.727 355.807 244.604 354.434 244.604C353.061 244.604 351.948 245.727 351.948 247.112C351.948 248.498 353.061 249.621 354.434 249.621Z" fill="#FCD9D9"/>
<path d="M349.504 212.953C349.504 213.968 350.32 214.791 351.327 214.791C352.333 214.791 353.149 213.968 353.149 212.953C353.149 211.937 352.333 211.114 351.327 211.114C350.32 211.114 349.504 211.937 349.504 212.953Z" fill="#FCF9F9"/>
<path d="M240.647 103.865C240.647 102.218 241.971 100.882 243.604 100.882C245.237 100.882 246.561 102.217 246.561 103.865C246.561 105.513 245.238 106.848 243.604 106.848C241.972 106.848 240.647 105.513 240.647 103.865Z" fill="#FCF9F9"/>
<path d="M240.647 86.9024C240.647 87.7879 239.937 88.5049 239.059 88.5049C238.182 88.5049 237.47 87.7879 237.47 86.9024C237.47 86.0169 238.181 85.2998 239.059 85.2998C239.937 85.2998 240.647 86.0169 240.647 86.9024Z" fill="#FCF9F9"/>
<path d="M102.414 141.457C103.817 141.457 104.954 140.31 104.954 138.895C104.954 137.479 103.817 136.332 102.414 136.332C101.011 136.332 99.8738 137.479 99.8738 138.895C99.8738 140.31 101.011 141.457 102.414 141.457Z" fill="#FCF9F9"/>
<path d="M312.363 243.516C312.363 245.244 313.752 246.646 315.466 246.646C317.179 246.646 318.569 245.244 318.569 243.516C318.569 241.787 317.179 240.385 315.466 240.385C313.752 240.385 312.363 241.786 312.363 243.516Z" fill="#FCF9F9"/>
<path d="M318.569 219.813C318.569 220.689 319.273 221.399 320.142 221.399C321.011 221.399 321.714 220.689 321.714 219.813C321.714 218.936 321.011 218.226 320.142 218.226C319.273 218.225 318.569 218.936 318.569 219.813Z" fill="#FCF9F9"/>
<path d="M111.474 128.073C111.474 128.685 110.982 129.181 110.375 129.181C109.769 129.181 109.277 128.685 109.277 128.073C109.277 127.461 109.769 126.965 110.375 126.965C110.982 126.964 111.474 127.46 111.474 128.073Z" fill="#FCF9F9"/>
<path d="M129.395 179.123C129.395 179.969 128.715 180.656 127.875 180.656C127.037 180.656 126.356 179.97 126.356 179.123C126.356 178.277 127.036 177.59 127.875 177.59C128.715 177.59 129.395 178.277 129.395 179.123Z" fill="#FCF9F9"/>
<path d="M126.357 328.607C126.357 329.697 125.48 330.58 124.401 330.58C123.32 330.58 122.443 329.697 122.443 328.607C122.443 327.516 123.319 326.633 124.401 326.633C125.48 326.633 126.357 327.516 126.357 328.607Z" fill="#FCD9D9"/>
</svg>
