<?xml version="1.0" encoding="UTF-8"?>
<svg id="Layer_1" data-name="Layer 1" xmlns="http://www.w3.org/2000/svg" viewBox="0 0 885.3 182.1">
  <defs>
    <style>
      .cls-1 {
        fill: #fff;
      }
    </style>
  </defs>
  <path class="cls-1" d="M194.07,63.83c0,32.02-40.38,57.97-90.18,57.97S13.71,95.85,13.7,63.84v57.97h.19c2.96,30.3,42.12,54.29,90,54.29s87.04-23.99,90-54.29h.19v-57.97h0Z"/>
  <path class="cls-1" d="M241.3,100.57c0-5.78.97-11.02,2.91-15.71,1.94-4.69,4.64-8.69,8.11-11.99,3.47-3.3,7.59-5.83,12.35-7.6,4.76-1.77,9.96-2.65,15.61-2.65s10.85.88,15.61,2.65c4.76,1.77,8.88,4.3,12.35,7.6,3.47,3.3,6.17,7.3,8.11,11.99,1.94,4.69,2.91,9.93,2.91,15.71s-.97,11.02-2.91,15.71c-1.94,4.69-4.64,8.69-8.11,11.99-3.47,3.3-7.59,5.83-12.35,7.6-4.76,1.77-9.97,2.65-15.61,2.65s-10.85-.88-15.61-2.65c-4.76-1.77-8.88-4.3-12.35-7.6-3.47-3.3-6.17-7.3-8.11-11.99-1.94-4.69-2.91-9.93-2.91-15.71ZM257.83,100.57c0,3.4.53,6.52,1.58,9.34,1.05,2.82,2.57,5.27,4.54,7.35,1.97,2.08,4.34,3.69,7.09,4.85,2.76,1.16,5.83,1.73,9.24,1.73s6.48-.58,9.23-1.73c2.76-1.16,5.12-2.77,7.09-4.85,1.97-2.07,3.49-4.52,4.54-7.35,1.05-2.82,1.58-5.93,1.58-9.34s-.53-6.43-1.58-9.29c-1.05-2.86-2.57-5.32-4.54-7.4-1.97-2.07-4.34-3.69-7.09-4.85-2.76-1.16-5.83-1.73-9.23-1.73s-6.48.58-9.24,1.73c-2.75,1.16-5.12,2.77-7.09,4.85-1.97,2.08-3.49,4.54-4.54,7.4-1.06,2.86-1.58,5.95-1.58,9.29Z"/>
  <path class="cls-1" d="M328.13,87.1h14.69v6.73h.2c.48-.95,1.16-1.9,2.04-2.86.88-.95,1.94-1.8,3.16-2.55,1.23-.75,2.62-1.36,4.18-1.84,1.56-.48,3.27-.71,5.1-.71,3.88,0,7.01.6,9.39,1.79,2.38,1.19,4.24,2.84,5.56,4.95,1.33,2.11,2.23,4.59,2.7,7.45.48,2.86.71,5.95.71,9.29v27.35h-15.31v-24.29c0-1.43-.05-2.91-.15-4.44-.1-1.53-.41-2.94-.92-4.23-.51-1.29-1.29-2.35-2.35-3.16-1.05-.82-2.57-1.22-4.54-1.22s-3.57.36-4.8,1.07c-1.22.71-2.16,1.67-2.81,2.86-.65,1.19-1.07,2.54-1.28,4.03-.2,1.5-.31,3.06-.31,4.69v24.69h-15.31v-49.59Z"/>
  <path class="cls-1" d="M433.64,128.12c-2.45,3.13-5.55,5.55-9.29,7.25-3.74,1.7-7.62,2.55-11.63,2.55s-7.4-.61-10.77-1.84c-3.37-1.22-6.29-2.98-8.78-5.26-2.48-2.28-4.44-5.02-5.87-8.21-1.43-3.2-2.14-6.77-2.14-10.71s.71-7.52,2.14-10.71c1.43-3.2,3.38-5.93,5.87-8.21,2.48-2.28,5.41-4.03,8.78-5.26,3.37-1.22,6.95-1.84,10.77-1.84,3.54,0,6.75.61,9.64,1.84,2.89,1.22,5.34,2.98,7.35,5.26,2.01,2.28,3.55,5.02,4.64,8.21,1.09,3.2,1.63,6.77,1.63,10.71v4.8h-35.51c.61,2.93,1.94,5.25,3.98,6.99,2.04,1.73,4.56,2.6,7.55,2.6,2.52,0,4.64-.56,6.38-1.68,1.73-1.12,3.25-2.57,4.54-4.34l10.71,7.86ZM420.68,106.28c.07-2.58-.78-4.8-2.55-6.63-1.77-1.84-4.05-2.76-6.84-2.76-1.7,0-3.2.27-4.49.82-1.29.55-2.4,1.24-3.32,2.09-.92.85-1.63,1.84-2.14,2.96-.51,1.12-.8,2.3-.87,3.52h20.2Z"/>
  <path class="cls-1" d="M494.46,83.22c-1.57-1.9-3.49-3.37-5.77-4.39-2.28-1.02-4.92-1.53-7.91-1.53s-5.77.58-8.32,1.73c-2.55,1.16-4.76,2.77-6.63,4.85-1.87,2.08-3.33,4.54-4.39,7.4-1.06,2.86-1.58,5.95-1.58,9.29s.53,6.52,1.58,9.34c1.05,2.82,2.5,5.27,4.34,7.35,1.84,2.08,3.99,3.69,6.48,4.85,2.48,1.16,5.15,1.73,8.01,1.73,3.26,0,6.16-.68,8.67-2.04,2.52-1.36,4.59-3.27,6.22-5.71l13.27,9.9c-3.06,4.29-6.94,7.45-11.63,9.49-4.69,2.04-9.52,3.06-14.49,3.06-5.65,0-10.85-.88-15.61-2.65-4.76-1.77-8.88-4.3-12.35-7.6-3.47-3.3-6.17-7.3-8.11-11.99-1.94-4.69-2.91-9.93-2.91-15.71s.97-11.02,2.91-15.71c1.94-4.69,4.64-8.69,8.11-11.99,3.47-3.3,7.59-5.83,12.35-7.6,4.76-1.77,9.96-2.65,15.61-2.65,2.04,0,4.17.19,6.38.56,2.21.37,4.39.97,6.53,1.79,2.14.82,4.2,1.91,6.17,3.27,1.97,1.36,3.74,3.03,5.31,5l-12.24,10Z"/>
  <path class="cls-1" d="M515.38,59.55h15.31v77.14h-15.31V59.55Z"/>
  <path class="cls-1" d="M607.93,59.55h15.31v47.14l16.94-19.59h18.78l-19.69,22.35,20.2,27.25h-19.29l-16.73-25.1h-.2v25.1h-15.31V59.55Z"/>
  <path class="cls-1" d="M666.6,64.45h24.08l16.63,47.14h.2l16.74-47.14h23.98v72.24h-15.92v-55.41h-.2l-18.98,55.41h-12.14l-18.26-55.41h-.21v55.41h-15.92v-72.24Z"/>
  <path class="cls-1" d="M807.93,128.12c-2.45,3.13-5.54,5.55-9.29,7.25-3.74,1.7-7.62,2.55-11.63,2.55s-7.4-.61-10.77-1.84c-3.37-1.22-6.29-2.98-8.78-5.26-2.48-2.28-4.44-5.02-5.87-8.21-1.43-3.2-2.14-6.77-2.14-10.71s.71-7.52,2.14-10.71c1.43-3.2,3.38-5.93,5.87-8.21,2.48-2.28,5.41-4.03,8.78-5.26,3.37-1.22,6.95-1.84,10.77-1.84,3.54,0,6.75.61,9.64,1.84,2.89,1.22,5.34,2.98,7.35,5.26,2,2.28,3.55,5.02,4.64,8.21,1.09,3.2,1.63,6.77,1.63,10.71v4.8h-35.51c.61,2.93,1.94,5.25,3.98,6.99,2.04,1.73,4.56,2.6,7.55,2.6,2.52,0,4.64-.56,6.38-1.68,1.73-1.12,3.25-2.57,4.54-4.34l10.71,7.86ZM794.97,106.28c.07-2.58-.78-4.8-2.55-6.63-1.77-1.84-4.05-2.76-6.84-2.76-1.7,0-3.2.27-4.49.82-1.29.55-2.4,1.24-3.32,2.09-.92.85-1.63,1.84-2.14,2.96s-.8,2.3-.87,3.52h20.2Z"/>
  <path class="cls-1" d="M871.6,136.69h-14.08v-6.53h-.2c-.61.88-1.41,1.79-2.4,2.7-.99.92-2.14,1.75-3.47,2.5-1.33.75-2.79,1.36-4.39,1.84-1.6.48-3.25.71-4.95.71-3.67,0-7.01-.63-10-1.89-2.99-1.26-5.56-3.03-7.7-5.31-2.14-2.28-3.79-4.98-4.95-8.11-1.16-3.13-1.74-6.56-1.74-10.31,0-3.47.53-6.79,1.58-9.95,1.05-3.16,2.55-5.97,4.49-8.42,1.94-2.45,4.3-4.4,7.09-5.87,2.79-1.46,5.95-2.19,9.49-2.19,3.2,0,6.17.49,8.93,1.48,2.75.99,5.02,2.67,6.79,5.05h.2v-32.86h15.31v77.14ZM857.52,111.9c0-3.74-1.07-6.77-3.21-9.08-2.14-2.31-5.15-3.47-9.03-3.47s-6.89,1.16-9.03,3.47c-2.14,2.31-3.21,5.34-3.21,9.08s1.07,6.77,3.21,9.08c2.14,2.31,5.15,3.47,9.03,3.47s6.89-1.16,9.03-3.47c2.14-2.31,3.21-5.34,3.21-9.08Z"/>
  <path class="cls-1" d="M103.88,34.09c-25.55,0-46.26,13.31-46.26,29.74h46.26l-32.71,21.03c8.37,5.38,19.94,8.71,32.71,8.71,25.55,0,46.26-13.31,46.26-29.74s-20.71-29.74-46.26-29.74Z"/>
  <path class="cls-1" d="M557.23,111.24c0-.21-.01-.41-.01-.62v.62h.01Z"/>
  <path class="cls-1" d="M549.56,80.36c2.45,0,4.54-.87,6.27-2.6,1.73-1.73,2.6-3.83,2.6-6.28s-.87-4.54-2.6-6.27c-1.73-1.73-3.83-2.6-6.27-2.6s-4.54.87-6.28,2.6c-1.73,1.73-2.6,3.83-2.6,6.27s.87,4.54,2.6,6.28c1.73,1.73,3.83,2.6,6.28,2.6Z"/>
  <path class="cls-1" d="M589.15,122.05c-1.22.75-2.69,1.12-4.39,1.12-3.88,0-6.89-1.16-9.03-3.47-2.14-2.31-3.21-5.34-3.21-9.08s1.07-6.77,3.21-9.08c2.14-2.31,5.15-3.47,9.03-3.47,1.56,0,3.03.36,4.39,1.07,1.36.71,2.41,1.62,3.16,2.7l10.1-10.61c-2.38-2.45-5.19-4.17-8.42-5.15-3.23-.99-6.31-1.48-9.23-1.48-3.81,0-7.4.61-10.77,1.84-3.37,1.22-6.29,2.98-8.78,5.26-2.48,2.28-4.44,5.02-5.87,8.21-1.43,3.2-2.14,6.77-2.14,10.71,0,.21,0,.41.01.62h-.01s0-.62,0-.62v-23.52h-15.31v49.59h14.7l-.13-.21c-1.02-1.7-3.35-5.77-3.78-6.55-.21-.37-.7-1.24-.08-1.85l.12-.12.16-.07.26-.11.19-.08h.21c.31.03.61.15.87.4l1.81,1.87v-6.91c0-.7.57-1.28,1.28-1.28s1.28.57,1.28,1.28v2.44c.23-.23.55-.38.91-.38h.09c.66.07,1.15.62,1.15,1.28v.22c.2-.22.47-.35.77-.38.03,0,.06,0,.09,0h.03s.05,0,.05,0c.63,0,1.16.47,1.23,1.09,0,.01,0,.02,0,.03.23-.24.55-.38.91-.38.7,0,1.28.57,1.28,1.28v3.5c0,.18-.02.36-.08.52l-1.06,3.99-.11.41h20.69l-.02-.02s.01,0,.02,0c2.92,0,6-.49,9.23-1.48,3.23-.99,6.04-2.7,8.42-5.15l-10.1-10.61c-.88,1.02-1.94,1.91-3.16,2.65Z"/>
</svg>